<?xml version="1.0" encoding="us-ascii" standalone="no"?><svg xmlns="http://www.w3.org/2000/svg" xmlns:xlink="http://www.w3.org/1999/xlink" contentStyleType="text/css" height="2582px" preserveAspectRatio="none" style="width:1375px;height:2582px;background:#FFFFFF;" version="1.1" viewBox="0 0 1375 2582" width="1375px" zoomAndPan="magnify"><defs/><g><text fill="#000000" font-family="sans-serif" font-size="14" font-weight="bold" lengthAdjust="spacing" textLength="154" x="606.5" y="28.5352">&#35282;&#24230;&#25351;&#23450;&#22238;&#38957;&#21205;&#20316;&#12501;&#12525;&#12540;</text><text fill="#000000" font-family="sans-serif" font-size="14" font-weight="bold" lengthAdjust="spacing" textLength="113" x="627" y="45.0234">(AngleRotation)</text><rect fill="#FFFFFF" height="2244.6484" style="stroke:#181818;stroke-width:1.0;" width="10" x="455.5" y="181.5742"/><rect fill="none" height="1268.332" style="stroke:#000000;stroke-width:1.5;" width="944" x="340" y="1150.8906"/><rect fill="none" height="737.4082" style="stroke:#000000;stroke-width:1.5;" width="924" x="350" y="1537.5723"/><rect fill="none" height="148.8184" style="stroke:#000000;stroke-width:1.5;" width="200" x="360" y="2119.1621"/><line style="stroke:#181818;stroke-width:0.5;stroke-dasharray:5.0,5.0;" x1="67" x2="67" y1="106.9531" y2="2530.1543"/><line style="stroke:#181818;stroke-width:0.5;stroke-dasharray:5.0,5.0;" x1="460.5" x2="460.5" y1="106.9531" y2="2530.1543"/><line style="stroke:#181818;stroke-width:0.5;stroke-dasharray:5.0,5.0;" x1="962" x2="962" y1="106.9531" y2="2530.1543"/><line style="stroke:#181818;stroke-width:0.5;stroke-dasharray:5.0,5.0;" x1="1062" x2="1062" y1="106.9531" y2="2530.1543"/><line style="stroke:#181818;stroke-width:0.5;stroke-dasharray:5.0,5.0;" x1="1161" x2="1161" y1="106.9531" y2="2530.1543"/><line style="stroke:#181818;stroke-width:0.5;stroke-dasharray:5.0,5.0;" x1="1230" x2="1230" y1="106.9531" y2="2530.1543"/><line style="stroke:#181818;stroke-width:0.5;stroke-dasharray:5.0,5.0;" x1="1318" x2="1318" y1="106.9531" y2="2530.1543"/><rect fill="#E2E2F0" height="46.9766" rx="2.5" ry="2.5" style="stroke:#181818;stroke-width:0.5;" width="105" x="15" y="58.9766"/><text fill="#000000" font-family="sans-serif" font-size="14" lengthAdjust="spacing" textLength="85" x="25" y="79.5117">AreaMaster/</text><text fill="#000000" font-family="sans-serif" font-size="14" lengthAdjust="spacing" textLength="91" x="22" y="96">MotionParser</text><rect fill="#E2E2F0" height="46.9766" rx="2.5" ry="2.5" style="stroke:#181818;stroke-width:0.5;" width="105" x="15" y="2529.1543"/><text fill="#000000" font-family="sans-serif" font-size="14" lengthAdjust="spacing" textLength="85" x="25" y="2549.6895">AreaMaster/</text><text fill="#000000" font-family="sans-serif" font-size="14" lengthAdjust="spacing" textLength="91" x="22" y="2566.1777">MotionParser</text><rect fill="#E2E2F0" height="30.4883" rx="2.5" ry="2.5" style="stroke:#181818;stroke-width:0.5;" width="112" x="404.5" y="75.4648"/><text fill="#000000" font-family="sans-serif" font-size="14" lengthAdjust="spacing" textLength="98" x="411.5" y="96">AngleRotation</text><rect fill="#E2E2F0" height="30.4883" rx="2.5" ry="2.5" style="stroke:#181818;stroke-width:0.5;" width="112" x="404.5" y="2529.1543"/><text fill="#000000" font-family="sans-serif" font-size="14" lengthAdjust="spacing" textLength="98" x="411.5" y="2549.6895">AngleRotation</text><rect fill="#E2E2F0" height="30.4883" rx="2.5" ry="2.5" style="stroke:#181818;stroke-width:0.5;" width="55" x="935" y="75.4648"/><text fill="#000000" font-family="sans-serif" font-size="14" lengthAdjust="spacing" textLength="41" x="942" y="96">Robot</text><rect fill="#E2E2F0" height="30.4883" rx="2.5" ry="2.5" style="stroke:#181818;stroke-width:0.5;" width="55" x="935" y="2529.1543"/><text fill="#000000" font-family="sans-serif" font-size="14" lengthAdjust="spacing" textLength="41" x="942" y="2549.6895">Robot</text><rect fill="#E2E2F0" height="30.4883" rx="2.5" ry="2.5" style="stroke:#181818;stroke-width:0.5;" width="125" x="1000" y="75.4648"/><text fill="#000000" font-family="sans-serif" font-size="14" lengthAdjust="spacing" textLength="111" x="1007" y="96">MotorController</text><rect fill="#E2E2F0" height="30.4883" rx="2.5" ry="2.5" style="stroke:#181818;stroke-width:0.5;" width="125" x="1000" y="2529.1543"/><text fill="#000000" font-family="sans-serif" font-size="14" lengthAdjust="spacing" textLength="111" x="1007" y="2549.6895">MotorController</text><rect fill="#E2E2F0" height="30.4883" rx="2.5" ry="2.5" style="stroke:#181818;stroke-width:0.5;" width="52" x="1135" y="75.4648"/><text fill="#000000" font-family="sans-serif" font-size="14" lengthAdjust="spacing" textLength="38" x="1142" y="96">Clock</text><rect fill="#E2E2F0" height="30.4883" rx="2.5" ry="2.5" style="stroke:#181818;stroke-width:0.5;" width="52" x="1135" y="2529.1543"/><text fill="#000000" font-family="sans-serif" font-size="14" lengthAdjust="spacing" textLength="38" x="1142" y="2549.6895">Clock</text><rect fill="#E2E2F0" height="30.4883" rx="2.5" ry="2.5" style="stroke:#181818;stroke-width:0.5;" width="67" x="1197" y="75.4648"/><text fill="#000000" font-family="sans-serif" font-size="14" lengthAdjust="spacing" textLength="53" x="1204" y="96">Mileage</text><rect fill="#E2E2F0" height="30.4883" rx="2.5" ry="2.5" style="stroke:#181818;stroke-width:0.5;" width="67" x="1197" y="2529.1543"/><text fill="#000000" font-family="sans-serif" font-size="14" lengthAdjust="spacing" textLength="53" x="1204" y="2549.6895">Mileage</text><rect fill="#E2E2F0" height="30.4883" rx="2.5" ry="2.5" style="stroke:#181818;stroke-width:0.5;" width="89" x="1274" y="75.4648"/><text fill="#000000" font-family="sans-serif" font-size="14" lengthAdjust="spacing" textLength="75" x="1281" y="96">SystemInfo</text><rect fill="#E2E2F0" height="30.4883" rx="2.5" ry="2.5" style="stroke:#181818;stroke-width:0.5;" width="89" x="1274" y="2529.1543"/><text fill="#000000" font-family="sans-serif" font-size="14" lengthAdjust="spacing" textLength="75" x="1281" y="2549.6895">SystemInfo</text><rect fill="#FFFFFF" height="2244.6484" style="stroke:#181818;stroke-width:1.0;" width="10" x="455.5" y="181.5742"/><rect fill="#EEEEEE" height="3" style="stroke:#EEEEEE;stroke-width:1.0;" width="1368" x="0" y="137.6084"/><line style="stroke:#000000;stroke-width:1.0;" x1="0" x2="1368" y1="137.6084" y2="137.6084"/><line style="stroke:#000000;stroke-width:1.0;" x1="0" x2="1368" y1="140.6084" y2="140.6084"/><rect fill="#EEEEEE" height="23.3105" style="stroke:#000000;stroke-width:2.0;" width="57" x="655.5" y="126.9531"/><text fill="#000000" font-family="sans-serif" font-size="13" font-weight="bold" lengthAdjust="spacing" textLength="39" x="661.5" y="143.5215">&#21021;&#26399;&#21270;</text><polygon fill="#181818" points="443.5,177.5742,453.5,181.5742,443.5,185.5742,447.5,181.5742" style="stroke:#181818;stroke-width:1.0;"/><line style="stroke:#181818;stroke-width:1.0;" x1="67.5" x2="449.5" y1="181.5742" y2="181.5742"/><text fill="#000000" font-family="sans-serif" font-size="13" lengthAdjust="spacing" textLength="369" x="74.5" y="176.832">new AngleRotation(robot, targetAngle, speed, isClockwise)</text><path d="M470,194.5742 L470,265.5742 L725,265.5742 L725,204.5742 L715,194.5742 L470,194.5742 " fill="#FEFFDD" style="stroke:#181818;stroke-width:0.5;"/><path d="M715,194.5742 L715,204.5742 L725,204.5742 L715,194.5742 " fill="#FEFFDD" style="stroke:#181818;stroke-width:0.5;"/><text fill="#000000" font-family="sans-serif" font-size="13" lengthAdjust="spacing" textLength="234" x="476" y="212.1426">targetAngle: &#30446;&#27161;&#22238;&#36578;&#35282;&#24230;(deg) 0~360</text><text fill="#000000" font-family="sans-serif" font-size="13" lengthAdjust="spacing" textLength="149" x="476" y="227.4531">speed: &#25351;&#23450;&#36895;&#24230;(mm/&#31186;)</text><text fill="#000000" font-family="sans-serif" font-size="13" lengthAdjust="spacing" textLength="135" x="476" y="242.7637">isClockwise: &#22238;&#38957;&#26041;&#21521;</text><text fill="#000000" font-family="sans-serif" font-size="13" lengthAdjust="spacing" textLength="196" x="476" y="258.0742">(true:&#26178;&#35336;&#22238;&#12426;, false:&#21453;&#26178;&#35336;&#22238;&#12426;)</text><line style="stroke:#181818;stroke-width:1.0;" x1="465.5" x2="507.5" y1="292.127" y2="292.127"/><line style="stroke:#181818;stroke-width:1.0;" x1="507.5" x2="507.5" y1="292.127" y2="305.127"/><line style="stroke:#181818;stroke-width:1.0;" x1="466.5" x2="507.5" y1="305.127" y2="305.127"/><polygon fill="#181818" points="476.5,301.127,466.5,305.127,476.5,309.127,472.5,305.127" style="stroke:#181818;stroke-width:1.0;"/><text fill="#000000" font-family="sans-serif" font-size="13" lengthAdjust="spacing" textLength="117" x="472.5" y="287.3848">&#22238;&#36578;&#26041;&#21521;&#12469;&#12452;&#12531;&#35336;&#31639;</text><path d="M470,318.127 L470,358.127 L721,358.127 L721,328.127 L711,318.127 L470,318.127 " fill="#FEFFDD" style="stroke:#181818;stroke-width:0.5;"/><path d="M711,318.127 L711,328.127 L721,328.127 L711,318.127 " fill="#FEFFDD" style="stroke:#181818;stroke-width:0.5;"/><text fill="#000000" font-family="sans-serif" font-size="13" lengthAdjust="spacing" textLength="217" x="476" y="335.6953">&#26178;&#35336;&#22238;&#12426;: leftSign=-1, rightSign=1</text><text fill="#000000" font-family="sans-serif" font-size="13" lengthAdjust="spacing" textLength="230" x="476" y="351.0059">&#21453;&#26178;&#35336;&#22238;&#12426;: leftSign=1, rightSign=-1</text><rect fill="#EEEEEE" height="3" style="stroke:#EEEEEE;stroke-width:1.0;" width="1368" x="0" y="384.4033"/><line style="stroke:#000000;stroke-width:1.0;" x1="0" x2="1368" y1="384.4033" y2="384.4033"/><line style="stroke:#000000;stroke-width:1.0;" x1="0" x2="1368" y1="387.4033" y2="387.4033"/><rect fill="#EEEEEE" height="23.3105" style="stroke:#000000;stroke-width:2.0;" width="70" x="649" y="373.748"/><text fill="#000000" font-family="sans-serif" font-size="13" font-weight="bold" lengthAdjust="spacing" textLength="52" x="655" y="390.3164">&#23455;&#34892;&#38283;&#22987;</text><polygon fill="#181818" points="443.5,424.3691,453.5,428.3691,443.5,432.3691,447.5,428.3691" style="stroke:#181818;stroke-width:1.0;"/><line style="stroke:#181818;stroke-width:1.0;" x1="67.5" x2="449.5" y1="428.3691" y2="428.3691"/><text fill="#000000" font-family="sans-serif" font-size="13" lengthAdjust="spacing" textLength="29" x="74.5" y="423.627">run()</text><rect fill="#EEEEEE" height="3" style="stroke:#EEEEEE;stroke-width:1.0;" width="1368" x="0" y="457.0244"/><line style="stroke:#000000;stroke-width:1.0;" x1="0" x2="1368" y1="457.0244" y2="457.0244"/><line style="stroke:#000000;stroke-width:1.0;" x1="0" x2="1368" y1="460.0244" y2="460.0244"/><rect fill="#EEEEEE" height="23.3105" style="stroke:#000000;stroke-width:2.0;" width="70" x="649" y="446.3691"/><text fill="#000000" font-family="sans-serif" font-size="13" font-weight="bold" lengthAdjust="spacing" textLength="52" x="655" y="462.9375">&#28310;&#20633;&#20966;&#29702;</text><line style="stroke:#181818;stroke-width:1.0;" x1="465.5" x2="507.5" y1="500.9902" y2="500.9902"/><line style="stroke:#181818;stroke-width:1.0;" x1="507.5" x2="507.5" y1="500.9902" y2="513.9902"/><line style="stroke:#181818;stroke-width:1.0;" x1="466.5" x2="507.5" y1="513.9902" y2="513.9902"/><polygon fill="#181818" points="476.5,509.9902,466.5,513.9902,476.5,517.9902,472.5,513.9902" style="stroke:#181818;stroke-width:1.0;"/><text fill="#000000" font-family="sans-serif" font-size="13" lengthAdjust="spacing" textLength="55" x="472.5" y="496.248">prepare()</text><polygon fill="#181818" points="950.5,539.3008,960.5,543.3008,950.5,547.3008,954.5,543.3008" style="stroke:#181818;stroke-width:1.0;"/><line style="stroke:#181818;stroke-width:1.0;" x1="465.5" x2="956.5" y1="543.3008" y2="543.3008"/><text fill="#000000" font-family="sans-serif" font-size="13" lengthAdjust="spacing" textLength="181" x="472.5" y="538.5586">getMotorControllerInstance()</text><polygon fill="#181818" points="476.5,568.6113,466.5,572.6113,476.5,576.6113,472.5,572.6113" style="stroke:#181818;stroke-width:1.0;"/><line style="stroke:#181818;stroke-width:1.0;stroke-dasharray:2.0,2.0;" x1="470.5" x2="961.5" y1="572.6113" y2="572.6113"/><text fill="#000000" font-family="sans-serif" font-size="13" lengthAdjust="spacing" textLength="109" x="482.5" y="567.8691">MotorController&amp;</text><polygon fill="#181818" points="1050.5,597.9219,1060.5,601.9219,1050.5,605.9219,1054.5,601.9219" style="stroke:#181818;stroke-width:1.0;"/><line style="stroke:#181818;stroke-width:1.0;" x1="465.5" x2="1056.5" y1="601.9219" y2="601.9219"/><text fill="#000000" font-family="sans-serif" font-size="13" lengthAdjust="spacing" textLength="127" x="472.5" y="597.1797">getLeftMotorCount()</text><polygon fill="#181818" points="476.5,627.2324,466.5,631.2324,476.5,635.2324,472.5,631.2324" style="stroke:#181818;stroke-width:1.0;"/><line style="stroke:#181818;stroke-width:1.0;stroke-dasharray:2.0,2.0;" x1="470.5" x2="1061.5" y1="631.2324" y2="631.2324"/><text fill="#000000" font-family="sans-serif" font-size="13" lengthAdjust="spacing" textLength="96" x="482.5" y="626.4902">leftMotorCount</text><polygon fill="#181818" points="1050.5,656.543,1060.5,660.543,1050.5,664.543,1054.5,660.543" style="stroke:#181818;stroke-width:1.0;"/><line style="stroke:#181818;stroke-width:1.0;" x1="465.5" x2="1056.5" y1="660.543" y2="660.543"/><text fill="#000000" font-family="sans-serif" font-size="13" lengthAdjust="spacing" textLength="136" x="472.5" y="655.8008">getRightMotorCount()</text><polygon fill="#181818" points="476.5,685.8535,466.5,689.8535,476.5,693.8535,472.5,689.8535" style="stroke:#181818;stroke-width:1.0;"/><line style="stroke:#181818;stroke-width:1.0;stroke-dasharray:2.0,2.0;" x1="470.5" x2="1061.5" y1="689.8535" y2="689.8535"/><text fill="#000000" font-family="sans-serif" font-size="13" lengthAdjust="spacing" textLength="105" x="482.5" y="685.1113">rightMotorCount</text><polygon fill="#181818" points="1218.5,715.1641,1228.5,719.1641,1218.5,723.1641,1222.5,719.1641" style="stroke:#181818;stroke-width:1.0;"/><line style="stroke:#181818;stroke-width:1.0;" x1="465.5" x2="1224.5" y1="719.1641" y2="719.1641"/><text fill="#000000" font-family="sans-serif" font-size="13" lengthAdjust="spacing" textLength="245" x="472.5" y="714.4219">calculateWheelMileage(leftMotorCount)</text><polygon fill="#181818" points="476.5,744.4746,466.5,748.4746,476.5,752.4746,472.5,748.4746" style="stroke:#181818;stroke-width:1.0;"/><line style="stroke:#181818;stroke-width:1.0;stroke-dasharray:2.0,2.0;" x1="470.5" x2="1229.5" y1="748.4746" y2="748.4746"/><text fill="#000000" font-family="sans-serif" font-size="13" lengthAdjust="spacing" textLength="93" x="482.5" y="743.7324">initLeftMileage</text><polygon fill="#181818" points="1218.5,773.7852,1228.5,777.7852,1218.5,781.7852,1222.5,777.7852" style="stroke:#181818;stroke-width:1.0;"/><line style="stroke:#181818;stroke-width:1.0;" x1="465.5" x2="1224.5" y1="777.7852" y2="777.7852"/><text fill="#000000" font-family="sans-serif" font-size="13" lengthAdjust="spacing" textLength="254" x="472.5" y="773.043">calculateWheelMileage(rightMotorCount)</text><polygon fill="#181818" points="476.5,803.0957,466.5,807.0957,476.5,811.0957,472.5,807.0957" style="stroke:#181818;stroke-width:1.0;"/><line style="stroke:#181818;stroke-width:1.0;stroke-dasharray:2.0,2.0;" x1="470.5" x2="1229.5" y1="807.0957" y2="807.0957"/><text fill="#000000" font-family="sans-serif" font-size="13" lengthAdjust="spacing" textLength="102" x="482.5" y="802.3535">initRightMileage</text><rect fill="#EEEEEE" height="3" style="stroke:#EEEEEE;stroke-width:1.0;" width="1368" x="0" y="835.751"/><line style="stroke:#000000;stroke-width:1.0;" x1="0" x2="1368" y1="835.751" y2="835.751"/><line style="stroke:#000000;stroke-width:1.0;" x1="0" x2="1368" y1="838.751" y2="838.751"/><rect fill="#EEEEEE" height="23.3105" style="stroke:#000000;stroke-width:2.0;" width="96" x="636" y="825.0957"/><text fill="#000000" font-family="sans-serif" font-size="13" font-weight="bold" lengthAdjust="spacing" textLength="78" x="642" y="841.6641">&#30446;&#27161;&#36317;&#38626;&#35336;&#31639;</text><polygon fill="#181818" points="1306.5,875.7168,1316.5,879.7168,1306.5,883.7168,1310.5,879.7168" style="stroke:#181818;stroke-width:1.0;"/><line style="stroke:#181818;stroke-width:1.0;" x1="465.5" x2="1312.5" y1="879.7168" y2="879.7168"/><text fill="#000000" font-family="sans-serif" font-size="13" lengthAdjust="spacing" textLength="113" x="472.5" y="874.9746">PI, TREAD&#23450;&#25968;&#21462;&#24471;</text><path d="M470,892.7168 L470,917.7168 L801,917.7168 L801,902.7168 L791,892.7168 L470,892.7168 " fill="#FEFFDD" style="stroke:#181818;stroke-width:0.5;"/><path d="M791,892.7168 L791,902.7168 L801,902.7168 L791,892.7168 " fill="#FEFFDD" style="stroke:#181818;stroke-width:0.5;"/><text fill="#000000" font-family="sans-serif" font-size="13" lengthAdjust="spacing" textLength="310" x="476" y="910.2852">targetDistance = &#960; &#215; TREAD &#215; targetAngle / 360</text><line style="stroke:#181818;stroke-width:1.0;" x1="465.5" x2="507.5" y1="944.3379" y2="944.3379"/><line style="stroke:#181818;stroke-width:1.0;" x1="507.5" x2="507.5" y1="944.3379" y2="957.3379"/><line style="stroke:#181818;stroke-width:1.0;" x1="466.5" x2="507.5" y1="957.3379" y2="957.3379"/><polygon fill="#181818" points="476.5,953.3379,466.5,957.3379,476.5,961.3379,472.5,957.3379" style="stroke:#181818;stroke-width:1.0;"/><text fill="#000000" font-family="sans-serif" font-size="13" lengthAdjust="spacing" textLength="403" x="472.5" y="939.5957">targetLeftDistance = initLeftMileage + targetDistance &#215; leftSign</text><line style="stroke:#181818;stroke-width:1.0;" x1="465.5" x2="507.5" y1="986.6484" y2="986.6484"/><line style="stroke:#181818;stroke-width:1.0;" x1="507.5" x2="507.5" y1="986.6484" y2="999.6484"/><line style="stroke:#181818;stroke-width:1.0;" x1="466.5" x2="507.5" y1="999.6484" y2="999.6484"/><polygon fill="#181818" points="476.5,995.6484,466.5,999.6484,476.5,1003.6484,472.5,999.6484" style="stroke:#181818;stroke-width:1.0;"/><text fill="#000000" font-family="sans-serif" font-size="13" lengthAdjust="spacing" textLength="430" x="472.5" y="981.9063">targetRightDistance = initRightMileage + targetDistance &#215; rightSign</text><path d="M470,1012.6484 L470,1052.6484 L634,1052.6484 L634,1022.6484 L624,1012.6484 L470,1012.6484 " fill="#FEFFDD" style="stroke:#181818;stroke-width:0.5;"/><path d="M624,1012.6484 L624,1022.6484 L634,1022.6484 L624,1012.6484 " fill="#FEFFDD" style="stroke:#181818;stroke-width:0.5;"/><text fill="#000000" font-family="sans-serif" font-size="13" lengthAdjust="spacing" textLength="143" x="476" y="1030.2168">&#21508;&#36554;&#36650;&#12398;&#30446;&#27161;&#36208;&#34892;&#36317;&#38626;&#12434;</text><text fill="#000000" font-family="sans-serif" font-size="13" lengthAdjust="spacing" textLength="130" x="476" y="1045.5273">&#22238;&#36578;&#26041;&#21521;&#12395;&#24540;&#12376;&#12390;&#35373;&#23450;</text><rect fill="#EEEEEE" height="3" style="stroke:#EEEEEE;stroke-width:1.0;" width="1368" x="0" y="1078.9248"/><line style="stroke:#000000;stroke-width:1.0;" x1="0" x2="1368" y1="1078.9248" y2="1078.9248"/><line style="stroke:#000000;stroke-width:1.0;" x1="0" x2="1368" y1="1081.9248" y2="1081.9248"/><rect fill="#EEEEEE" height="23.3105" style="stroke:#000000;stroke-width:2.0;" width="96" x="636" y="1068.2695"/><text fill="#000000" font-family="sans-serif" font-size="13" font-weight="bold" lengthAdjust="spacing" textLength="78" x="642" y="1084.8379">&#20107;&#21069;&#26465;&#20214;&#21028;&#23450;</text><line style="stroke:#181818;stroke-width:1.0;" x1="465.5" x2="507.5" y1="1122.8906" y2="1122.8906"/><line style="stroke:#181818;stroke-width:1.0;" x1="507.5" x2="507.5" y1="1122.8906" y2="1135.8906"/><line style="stroke:#181818;stroke-width:1.0;" x1="466.5" x2="507.5" y1="1135.8906" y2="1135.8906"/><polygon fill="#181818" points="476.5,1131.8906,466.5,1135.8906,476.5,1139.8906,472.5,1135.8906" style="stroke:#181818;stroke-width:1.0;"/><text fill="#000000" font-family="sans-serif" font-size="13" lengthAdjust="spacing" textLength="123" x="472.5" y="1118.1484">isMetPreCondition()</text><path d="M340,1150.8906 L402,1150.8906 L402,1158.2012 L392,1168.2012 L340,1168.2012 L340,1150.8906 " fill="#EEEEEE" style="stroke:#000000;stroke-width:1.5;"/><rect fill="none" height="1268.332" style="stroke:#000000;stroke-width:1.5;" width="944" x="340" y="1150.8906"/><text fill="#000000" font-family="sans-serif" font-size="13" font-weight="bold" lengthAdjust="spacing" textLength="17" x="355" y="1164.459">alt</text><text fill="#000000" font-family="sans-serif" font-size="11" font-weight="bold" lengthAdjust="spacing" textLength="118" x="417" y="1163.5254">[&#20107;&#21069;&#26465;&#20214;&#12434;&#28288;&#12383;&#12373;&#12394;&#12356;]</text><path d="M470,1173.2012 L470,1213.2012 L772,1213.2012 L772,1183.2012 L762,1173.2012 L470,1173.2012 " fill="#FEFFDD" style="stroke:#181818;stroke-width:0.5;"/><path d="M762,1173.2012 L762,1183.2012 L772,1183.2012 L762,1173.2012 " fill="#FEFFDD" style="stroke:#181818;stroke-width:0.5;"/><text fill="#000000" font-family="sans-serif" font-size="13" lengthAdjust="spacing" textLength="116" x="476" y="1190.7695">speed &lt;= 0 &#12414;&#12383;&#12399;</text><text fill="#000000" font-family="sans-serif" font-size="13" lengthAdjust="spacing" textLength="281" x="476" y="1206.0801">targetAngle &lt;= 0 &#12414;&#12383;&#12399; targetAngle &gt;= 360</text><line style="stroke:#181818;stroke-width:1.0;" x1="465.5" x2="507.5" y1="1240.1328" y2="1240.1328"/><line style="stroke:#181818;stroke-width:1.0;" x1="507.5" x2="507.5" y1="1240.1328" y2="1253.1328"/><line style="stroke:#181818;stroke-width:1.0;" x1="466.5" x2="507.5" y1="1253.1328" y2="1253.1328"/><polygon fill="#181818" points="476.5,1249.1328,466.5,1253.1328,476.5,1257.1328,472.5,1253.1328" style="stroke:#181818;stroke-width:1.0;"/><text fill="#000000" font-family="sans-serif" font-size="13" lengthAdjust="spacing" textLength="102" x="472.5" y="1235.3906">return (&#20966;&#29702;&#32066;&#20102;)</text><line style="stroke:#000000;stroke-width:1.0;stroke-dasharray:2.0,2.0;" x1="340" x2="1284" y1="1262.1328" y2="1262.1328"/><text fill="#000000" font-family="sans-serif" font-size="11" font-weight="bold" lengthAdjust="spacing" textLength="96" x="345" y="1272.7676">[&#20107;&#21069;&#26465;&#20214;&#12434;&#28288;&#12383;&#12377;]</text><rect fill="#EEEEEE" height="3" style="stroke:#EEEEEE;stroke-width:1.0;" width="1368" x="0" y="1296.7432"/><line style="stroke:#000000;stroke-width:1.0;" x1="0" x2="1368" y1="1296.7432" y2="1296.7432"/><line style="stroke:#000000;stroke-width:1.0;" x1="0" x2="1368" y1="1299.7432" y2="1299.7432"/><rect fill="#EEEEEE" height="23.3105" style="stroke:#000000;stroke-width:2.0;" width="70" x="649" y="1286.0879"/><text fill="#000000" font-family="sans-serif" font-size="13" font-weight="bold" lengthAdjust="spacing" textLength="52" x="655" y="1302.6563">&#22238;&#38957;&#38283;&#22987;</text><polygon fill="#181818" points="950.5,1336.709,960.5,1340.709,950.5,1344.709,954.5,1340.709" style="stroke:#181818;stroke-width:1.0;"/><line style="stroke:#181818;stroke-width:1.0;" x1="465.5" x2="956.5" y1="1340.709" y2="1340.709"/><text fill="#000000" font-family="sans-serif" font-size="13" lengthAdjust="spacing" textLength="117" x="472.5" y="1335.9668">getClockInstance()</text><polygon fill="#181818" points="476.5,1366.0195,466.5,1370.0195,476.5,1374.0195,472.5,1370.0195" style="stroke:#181818;stroke-width:1.0;"/><line style="stroke:#181818;stroke-width:1.0;stroke-dasharray:2.0,2.0;" x1="470.5" x2="961.5" y1="1370.0195" y2="1370.0195"/><text fill="#000000" font-family="sans-serif" font-size="13" lengthAdjust="spacing" textLength="45" x="482.5" y="1365.2773">Clock&amp;</text><polygon fill="#181818" points="1050.5,1395.3301,1060.5,1399.3301,1050.5,1403.3301,1054.5,1399.3301" style="stroke:#181818;stroke-width:1.0;"/><line style="stroke:#181818;stroke-width:1.0;" x1="465.5" x2="1056.5" y1="1399.3301" y2="1399.3301"/><text fill="#000000" font-family="sans-serif" font-size="13" lengthAdjust="spacing" textLength="228" x="472.5" y="1394.5879">setLeftMotorSpeed(speed &#215; leftSign)</text><polygon fill="#181818" points="1050.5,1424.6406,1060.5,1428.6406,1050.5,1432.6406,1054.5,1428.6406" style="stroke:#181818;stroke-width:1.0;"/><line style="stroke:#181818;stroke-width:1.0;" x1="465.5" x2="1056.5" y1="1428.6406" y2="1428.6406"/><text fill="#000000" font-family="sans-serif" font-size="13" lengthAdjust="spacing" textLength="246" x="472.5" y="1423.8984">setRightMotorSpeed(speed &#215; rightSign)</text><path d="M470,1441.6406 L470,1481.6406 L673,1481.6406 L673,1451.6406 L663,1441.6406 L470,1441.6406 " fill="#FEFFDD" style="stroke:#181818;stroke-width:0.5;"/><path d="M663,1441.6406 L663,1451.6406 L673,1451.6406 L663,1441.6406 " fill="#FEFFDD" style="stroke:#181818;stroke-width:0.5;"/><text fill="#000000" font-family="sans-serif" font-size="13" lengthAdjust="spacing" textLength="182" x="476" y="1459.209">&#24038;&#21491;&#12514;&#12540;&#12479;&#12540;&#12434;&#36895;&#24230;&#21046;&#24481;&#12391;&#39366;&#21205;</text><text fill="#000000" font-family="sans-serif" font-size="13" lengthAdjust="spacing" textLength="156" x="476" y="1474.5195">&#22238;&#36578;&#26041;&#21521;&#12395;&#12424;&#12426;&#27491;&#36000;&#12434;&#27770;&#23450;</text><rect fill="#EEEEEE" height="3" style="stroke:#EEEEEE;stroke-width:1.0;" width="1368" x="0" y="1507.917"/><line style="stroke:#000000;stroke-width:1.0;" x1="0" x2="1368" y1="1507.917" y2="1507.917"/><line style="stroke:#000000;stroke-width:1.0;" x1="0" x2="1368" y1="1510.917" y2="1510.917"/><rect fill="#EEEEEE" height="23.3105" style="stroke:#000000;stroke-width:2.0;" width="109" x="629.5" y="1497.2617"/><text fill="#000000" font-family="sans-serif" font-size="13" font-weight="bold" lengthAdjust="spacing" textLength="91" x="635.5" y="1513.8301">&#22238;&#38957;&#21046;&#24481;&#12523;&#12540;&#12503;</text><path d="M350,1537.5723 L424,1537.5723 L424,1544.8828 L414,1554.8828 L350,1554.8828 L350,1537.5723 " fill="#EEEEEE" style="stroke:#000000;stroke-width:1.5;"/><rect fill="none" height="737.4082" style="stroke:#000000;stroke-width:1.5;" width="924" x="350" y="1537.5723"/><text fill="#000000" font-family="sans-serif" font-size="13" font-weight="bold" lengthAdjust="spacing" textLength="29" x="365" y="1551.1406">loop</text><text fill="#000000" font-family="sans-serif" font-size="11" font-weight="bold" lengthAdjust="spacing" textLength="107" x="439" y="1550.207">[&#32153;&#32154;&#26465;&#20214;&#12434;&#28288;&#12383;&#12377;&#38291;]</text><rect fill="#EEEEEE" height="3" style="stroke:#EEEEEE;stroke-width:1.0;" width="1368" x="0" y="1575.5381"/><line style="stroke:#000000;stroke-width:1.0;" x1="0" x2="1368" y1="1575.5381" y2="1575.5381"/><line style="stroke:#000000;stroke-width:1.0;" x1="0" x2="1368" y1="1578.5381" y2="1578.5381"/><rect fill="#EEEEEE" height="23.3105" style="stroke:#000000;stroke-width:2.0;" width="96" x="636" y="1564.8828"/><text fill="#000000" font-family="sans-serif" font-size="13" font-weight="bold" lengthAdjust="spacing" textLength="78" x="642" y="1581.4512">&#32153;&#32154;&#26465;&#20214;&#21028;&#23450;</text><line style="stroke:#181818;stroke-width:1.0;" x1="465.5" x2="507.5" y1="1619.5039" y2="1619.5039"/><line style="stroke:#181818;stroke-width:1.0;" x1="507.5" x2="507.5" y1="1619.5039" y2="1632.5039"/><line style="stroke:#181818;stroke-width:1.0;" x1="466.5" x2="507.5" y1="1632.5039" y2="1632.5039"/><polygon fill="#181818" points="476.5,1628.5039,466.5,1632.5039,476.5,1636.5039,472.5,1632.5039" style="stroke:#181818;stroke-width:1.0;"/><text fill="#000000" font-family="sans-serif" font-size="13" lengthAdjust="spacing" textLength="186" x="472.5" y="1614.7617">isMetContinuationCondition()</text><polygon fill="#181818" points="950.5,1657.8145,960.5,1661.8145,950.5,1665.8145,954.5,1661.8145" style="stroke:#181818;stroke-width:1.0;"/><line style="stroke:#181818;stroke-width:1.0;" x1="465.5" x2="956.5" y1="1661.8145" y2="1661.8145"/><text fill="#000000" font-family="sans-serif" font-size="13" lengthAdjust="spacing" textLength="181" x="472.5" y="1657.0723">getMotorControllerInstance()</text><polygon fill="#181818" points="476.5,1687.125,466.5,1691.125,476.5,1695.125,472.5,1691.125" style="stroke:#181818;stroke-width:1.0;"/><line style="stroke:#181818;stroke-width:1.0;stroke-dasharray:2.0,2.0;" x1="470.5" x2="961.5" y1="1691.125" y2="1691.125"/><text fill="#000000" font-family="sans-serif" font-size="13" lengthAdjust="spacing" textLength="109" x="482.5" y="1686.3828">MotorController&amp;</text><polygon fill="#181818" points="1050.5,1716.4355,1060.5,1720.4355,1050.5,1724.4355,1054.5,1720.4355" style="stroke:#181818;stroke-width:1.0;"/><line style="stroke:#181818;stroke-width:1.0;" x1="465.5" x2="1056.5" y1="1720.4355" y2="1720.4355"/><text fill="#000000" font-family="sans-serif" font-size="13" lengthAdjust="spacing" textLength="127" x="472.5" y="1715.6934">getLeftMotorCount()</text><polygon fill="#181818" points="476.5,1745.7461,466.5,1749.7461,476.5,1753.7461,472.5,1749.7461" style="stroke:#181818;stroke-width:1.0;"/><line style="stroke:#181818;stroke-width:1.0;stroke-dasharray:2.0,2.0;" x1="470.5" x2="1061.5" y1="1749.7461" y2="1749.7461"/><text fill="#000000" font-family="sans-serif" font-size="13" lengthAdjust="spacing" textLength="107" x="482.5" y="1745.0039">currentLeftCount</text><polygon fill="#181818" points="1050.5,1775.0566,1060.5,1779.0566,1050.5,1783.0566,1054.5,1779.0566" style="stroke:#181818;stroke-width:1.0;"/><line style="stroke:#181818;stroke-width:1.0;" x1="465.5" x2="1056.5" y1="1779.0566" y2="1779.0566"/><text fill="#000000" font-family="sans-serif" font-size="13" lengthAdjust="spacing" textLength="136" x="472.5" y="1774.3145">getRightMotorCount()</text><polygon fill="#181818" points="476.5,1804.3672,466.5,1808.3672,476.5,1812.3672,472.5,1808.3672" style="stroke:#181818;stroke-width:1.0;"/><line style="stroke:#181818;stroke-width:1.0;stroke-dasharray:2.0,2.0;" x1="470.5" x2="1061.5" y1="1808.3672" y2="1808.3672"/><text fill="#000000" font-family="sans-serif" font-size="13" lengthAdjust="spacing" textLength="116" x="482.5" y="1803.625">currentRightCount</text><polygon fill="#181818" points="1218.5,1833.6777,1228.5,1837.6777,1218.5,1841.6777,1222.5,1837.6777" style="stroke:#181818;stroke-width:1.0;"/><line style="stroke:#181818;stroke-width:1.0;" x1="465.5" x2="1224.5" y1="1837.6777" y2="1837.6777"/><text fill="#000000" font-family="sans-serif" font-size="13" lengthAdjust="spacing" textLength="256" x="472.5" y="1832.9355">calculateWheelMileage(currentLeftCount)</text><polygon fill="#181818" points="476.5,1862.9883,466.5,1866.9883,476.5,1870.9883,472.5,1866.9883" style="stroke:#181818;stroke-width:1.0;"/><line style="stroke:#181818;stroke-width:1.0;stroke-dasharray:2.0,2.0;" x1="470.5" x2="1229.5" y1="1866.9883" y2="1866.9883"/><text fill="#000000" font-family="sans-serif" font-size="13" lengthAdjust="spacing" textLength="117" x="482.5" y="1862.2461">currentLeftMileage</text><polygon fill="#181818" points="1218.5,1892.2988,1228.5,1896.2988,1218.5,1900.2988,1222.5,1896.2988" style="stroke:#181818;stroke-width:1.0;"/><line style="stroke:#181818;stroke-width:1.0;" x1="465.5" x2="1224.5" y1="1896.2988" y2="1896.2988"/><text fill="#000000" font-family="sans-serif" font-size="13" lengthAdjust="spacing" textLength="265" x="472.5" y="1891.5566">calculateWheelMileage(currentRightCount)</text><polygon fill="#181818" points="476.5,1921.6094,466.5,1925.6094,476.5,1929.6094,472.5,1925.6094" style="stroke:#181818;stroke-width:1.0;"/><line style="stroke:#181818;stroke-width:1.0;stroke-dasharray:2.0,2.0;" x1="470.5" x2="1229.5" y1="1925.6094" y2="1925.6094"/><text fill="#000000" font-family="sans-serif" font-size="13" lengthAdjust="spacing" textLength="126" x="482.5" y="1920.8672">currentRightMileage</text><rect fill="#EEEEEE" height="3" style="stroke:#EEEEEE;stroke-width:1.0;" width="1368" x="0" y="1954.2646"/><line style="stroke:#000000;stroke-width:1.0;" x1="0" x2="1368" y1="1954.2646" y2="1954.2646"/><line style="stroke:#000000;stroke-width:1.0;" x1="0" x2="1368" y1="1957.2646" y2="1957.2646"/><rect fill="#EEEEEE" height="23.3105" style="stroke:#000000;stroke-width:2.0;" width="96" x="636" y="1943.6094"/><text fill="#000000" font-family="sans-serif" font-size="13" font-weight="bold" lengthAdjust="spacing" textLength="78" x="642" y="1960.1777">&#27531;&#12426;&#36317;&#38626;&#35336;&#31639;</text><line style="stroke:#181818;stroke-width:1.0;" x1="465.5" x2="507.5" y1="1998.2305" y2="1998.2305"/><line style="stroke:#181818;stroke-width:1.0;" x1="507.5" x2="507.5" y1="1998.2305" y2="2011.2305"/><line style="stroke:#181818;stroke-width:1.0;" x1="466.5" x2="507.5" y1="2011.2305" y2="2011.2305"/><polygon fill="#181818" points="476.5,2007.2305,466.5,2011.2305,476.5,2015.2305,472.5,2011.2305" style="stroke:#181818;stroke-width:1.0;"/><text fill="#000000" font-family="sans-serif" font-size="13" lengthAdjust="spacing" textLength="442" x="472.5" y="1993.4883">diffLeftDistance = (targetLeftDistance - currentLeftMileage) &#215; leftSign</text><line style="stroke:#181818;stroke-width:1.0;" x1="465.5" x2="507.5" y1="2040.541" y2="2040.541"/><line style="stroke:#181818;stroke-width:1.0;" x1="507.5" x2="507.5" y1="2040.541" y2="2053.541"/><line style="stroke:#181818;stroke-width:1.0;" x1="466.5" x2="507.5" y1="2053.541" y2="2053.541"/><polygon fill="#181818" points="476.5,2049.541,466.5,2053.541,476.5,2057.541,472.5,2053.541" style="stroke:#181818;stroke-width:1.0;"/><text fill="#000000" font-family="sans-serif" font-size="13" lengthAdjust="spacing" textLength="478" x="472.5" y="2035.7988">diffRightDistance = (targetRightDistance - currentRightMileage) &#215; rightSign</text><path d="M470,2066.541 L470,2106.541 L687,2106.541 L687,2076.541 L677,2066.541 L470,2066.541 " fill="#FEFFDD" style="stroke:#181818;stroke-width:0.5;"/><path d="M677,2066.541 L677,2076.541 L687,2076.541 L677,2066.541 " fill="#FEFFDD" style="stroke:#181818;stroke-width:0.5;"/><text fill="#000000" font-family="sans-serif" font-size="13" lengthAdjust="spacing" textLength="143" x="476" y="2084.1094">&#30446;&#27161;&#36317;&#38626;&#12392;&#12398;&#24046;&#20998;&#12434;&#35336;&#31639;</text><text fill="#000000" font-family="sans-serif" font-size="13" lengthAdjust="spacing" textLength="196" x="476" y="2099.4199">&#20001;&#36650;&#12392;&#12418;&#27531;&#12426;&#36317;&#38626; &lt;= 0 &#12394;&#12425;&#32066;&#20102;</text><path d="M360,2119.1621 L422,2119.1621 L422,2126.4727 L412,2136.4727 L360,2136.4727 L360,2119.1621 " fill="#EEEEEE" style="stroke:#000000;stroke-width:1.5;"/><rect fill="none" height="148.8184" style="stroke:#000000;stroke-width:1.5;" width="200" x="360" y="2119.1621"/><text fill="#000000" font-family="sans-serif" font-size="13" font-weight="bold" lengthAdjust="spacing" textLength="17" x="375" y="2132.7305">alt</text><text fill="#000000" font-family="sans-serif" font-size="11" font-weight="bold" lengthAdjust="spacing" textLength="85" x="437" y="2131.7969">[&#30446;&#27161;&#35282;&#24230;&#12395;&#21040;&#36948;]</text><path d="M370,2141.4727 L370,2196.4727 L550,2196.4727 L550,2151.4727 L540,2141.4727 L370,2141.4727 " fill="#FEFFDD" style="stroke:#181818;stroke-width:0.5;"/><path d="M540,2141.4727 L540,2151.4727 L550,2151.4727 L540,2141.4727 " fill="#FEFFDD" style="stroke:#181818;stroke-width:0.5;"/><text fill="#000000" font-family="sans-serif" font-size="13" lengthAdjust="spacing" textLength="159" x="376" y="2159.041">diffLeftDistance &lt;= 0 &amp;&amp;</text><text fill="#000000" font-family="sans-serif" font-size="13" lengthAdjust="spacing" textLength="146" x="376" y="2174.3516">diffRightDistance &lt;= 0</text><text fill="#000000" font-family="sans-serif" font-size="13" lengthAdjust="spacing" textLength="78" x="376" y="2189.6621">&#12391;&#12523;&#12540;&#12503;&#32066;&#20102;</text><line style="stroke:#000000;stroke-width:1.0;stroke-dasharray:2.0,2.0;" x1="360" x2="560" y1="2203.4043" y2="2203.4043"/><text fill="#000000" font-family="sans-serif" font-size="11" font-weight="bold" lengthAdjust="spacing" textLength="96" x="365" y="2214.0391">[&#32153;&#32154;&#26465;&#20214;&#12434;&#28288;&#12383;&#12377;]</text><path d="M400,2222.3594 L400,2262.3594 L520,2262.3594 L520,2232.3594 L510,2222.3594 L400,2222.3594 " fill="#FEFFDD" style="stroke:#181818;stroke-width:0.5;"/><path d="M510,2222.3594 L510,2232.3594 L520,2232.3594 L510,2222.3594 " fill="#FEFFDD" style="stroke:#181818;stroke-width:0.5;"/><text fill="#000000" font-family="sans-serif" font-size="13" lengthAdjust="spacing" textLength="52" x="406" y="2239.9277">&#22238;&#36578;&#32153;&#32154;</text><text fill="#000000" font-family="sans-serif" font-size="13" lengthAdjust="spacing" textLength="99" x="406" y="2255.2383">(&#12514;&#12540;&#12479;&#12540;&#39366;&#21205;&#20013;)</text><rect fill="#EEEEEE" height="3" style="stroke:#EEEEEE;stroke-width:1.0;" width="1368" x="0" y="2302.6357"/><line style="stroke:#000000;stroke-width:1.0;" x1="0" x2="1368" y1="2302.6357" y2="2302.6357"/><line style="stroke:#000000;stroke-width:1.0;" x1="0" x2="1368" y1="2305.6357" y2="2305.6357"/><rect fill="#EEEEEE" height="23.3105" style="stroke:#000000;stroke-width:2.0;" width="70" x="649" y="2291.9805"/><text fill="#000000" font-family="sans-serif" font-size="13" font-weight="bold" lengthAdjust="spacing" textLength="52" x="655" y="2308.5488">&#20572;&#27490;&#20966;&#29702;</text><polygon fill="#181818" points="950.5,2342.6016,960.5,2346.6016,950.5,2350.6016,954.5,2346.6016" style="stroke:#181818;stroke-width:1.0;"/><line style="stroke:#181818;stroke-width:1.0;" x1="465.5" x2="956.5" y1="2346.6016" y2="2346.6016"/><text fill="#000000" font-family="sans-serif" font-size="13" lengthAdjust="spacing" textLength="181" x="472.5" y="2341.8594">getMotorControllerInstance()</text><polygon fill="#181818" points="476.5,2371.9121,466.5,2375.9121,476.5,2379.9121,472.5,2375.9121" style="stroke:#181818;stroke-width:1.0;"/><line style="stroke:#181818;stroke-width:1.0;stroke-dasharray:2.0,2.0;" x1="470.5" x2="961.5" y1="2375.9121" y2="2375.9121"/><text fill="#000000" font-family="sans-serif" font-size="13" lengthAdjust="spacing" textLength="109" x="482.5" y="2371.1699">MotorController&amp;</text><polygon fill="#181818" points="1050.5,2404.2227,1060.5,2408.2227,1050.5,2412.2227,1054.5,2408.2227" style="stroke:#181818;stroke-width:1.0;"/><line style="stroke:#181818;stroke-width:1.0;" x1="465.5" x2="1056.5" y1="2408.2227" y2="2408.2227"/><text fill="#000000" font-family="sans-serif" font-size="13" lengthAdjust="spacing" textLength="117" x="472.5" y="2403.4805">stopWheelsMotor()</text><path d="M1067,2388.9121 L1067,2413.9121 L1166,2413.9121 L1166,2398.9121 L1156,2388.9121 L1067,2388.9121 " fill="#FEFFDD" style="stroke:#181818;stroke-width:0.5;"/><path d="M1156,2388.9121 L1156,2398.9121 L1166,2398.9121 L1156,2388.9121 " fill="#FEFFDD" style="stroke:#181818;stroke-width:0.5;"/><text fill="#000000" font-family="sans-serif" font-size="13" lengthAdjust="spacing" textLength="78" x="1073" y="2406.4805">&#12514;&#12540;&#12479;&#12540;&#20572;&#27490;</text><rect fill="#EEEEEE" height="3" style="stroke:#EEEEEE;stroke-width:1.0;" width="1368" x="0" y="2446.8779"/><line style="stroke:#000000;stroke-width:1.0;" x1="0" x2="1368" y1="2446.8779" y2="2446.8779"/><line style="stroke:#000000;stroke-width:1.0;" x1="0" x2="1368" y1="2449.8779" y2="2449.8779"/><rect fill="#EEEEEE" height="23.3105" style="stroke:#000000;stroke-width:2.0;" width="70" x="649" y="2436.2227"/><text fill="#000000" font-family="sans-serif" font-size="13" font-weight="bold" lengthAdjust="spacing" textLength="52" x="655" y="2452.791">&#20966;&#29702;&#23436;&#20102;</text><path d="M5,2474.5332 L5,2514.5332 L130,2514.5332 L130,2484.5332 L120,2474.5332 L5,2474.5332 " fill="#FEFFDD" style="stroke:#181818;stroke-width:0.5;"/><path d="M120,2474.5332 L120,2484.5332 L130,2484.5332 L120,2474.5332 " fill="#FEFFDD" style="stroke:#181818;stroke-width:0.5;"/><text fill="#000000" font-family="sans-serif" font-size="13" lengthAdjust="spacing" textLength="104" x="11" y="2492.1016">&#35282;&#24230;&#25351;&#23450;&#22238;&#38957;&#23436;&#20102;</text><text fill="#000000" font-family="sans-serif" font-size="13" lengthAdjust="spacing" textLength="83" x="11" y="2507.4121">&#27425;&#12398;Motion&#12408;</text><!--SRC=[dLTDJnj76BxlhnZbW6pL5g1AFLXr98lqW5HBo5JgnPUDFNPMNMQjzJfHBnMxZeWJYA2qc1AW11e1IcgNDkAZ9aqE_G7z4UDPs_-YipFsUcPtJMWvuFNEypxlzxDhIxDq2FedcwHpxAuz8UqNPFVdmSiMMTtg_hM7wrkutiBrTtaKow2o3dE6fLgQWUAAKb5DIoje5HLPu4x6X6fMhLhGdCwZhE515bIp2iqxGAs2J3Q05gau8YSZSiPzms8dx4e-fFo6EMSWopHqVUWYEoTZvdIZy0qxOLS10as7QXboGtuj0nQ_fQaipQEImJ2ByugIJWFIs7Vt3iXQ4wJJIYOBadTft2c0u2CWPHGplPWJm5BDChJOKG9KAn0M4q2hidWUQLKOLzI2fJrKBUYbZmpwQMhb1nOmIenNC4-1tcxRFTsXlUbV7_5knOgm70SptttwsKmUCVOKu1qSB1zuvqjBqxsJpNWU2JvJWBVNRVv9DhwdNRNC6aovEqx_j45FiFCi0KggJe5a_RbucpOyanjbpCFW7DWvnyuhN7zBeRtsTaGU8aqAwB1aBMfbb4xE9ZYEVPlDeu170IeXaxEy6Us3_k7QeBbAJbRbVfWr58ipZDjf4cU7F3dkRQmmZ9z1nOIquP3Y-3qsPIb0wnqOhdbKjLHKy90C0v93XW1kQbIVx1oZ-PB6FeJKa4MjitE-gIwToNOvByz9XgPywBla8vm21LKlr7GwK5y_W50Vtex9xYWXl- -pQaZZuGutuLQaWL2YMNaoGrgl8NoA-vVxWzqZFY_ZjYpEfy32V09ybViYSuzEiRjrHjQRvFtsnDMuf_7UW3JuPndylSrDlGjXTS0qe1iYJYy_z38M209509y4VL3MqJo6k5YU0J8nzqWsVwALY0J9nkF-zRF-kzVORW-BTdv6vvsN3ZkRT5t49RJVa0zxsFu9syVzqnQj7YjtjxDAdZvtzm-xrnUayOhUbhT0gsQXjM12EiP5ZIaNtHjLjoH3wipjB6Fx0DjRsAO1FLO0_Gl7p3G8V9u6Cm3Rxvd1Rtaaja8-axfqDytQv36FupEXLJCHYF4DxfqxtSvAN85KdYP5kACm2ayVcCwDzM7CFDvr9el2XdiOUSiPOeeT20pUhbQ57L_qCe_n_8KvYOTDnkiTiF6d8JwXkkJocAo_nVKZ-ZJ6pWVsVvChFMbSaFU7s3uPdApGvtPeDB3Je7hgjdxf__7IgzNl7JOWKg667FKt7d5zUrGntJ0ge7Unqxju4QxreFa30_dL6JAA-F7OZG21yVCaL4Crzk0Kvr26tqQVHnOVqUbGn3VhzWWbo72XPfeGCIZNuKYci99Ffc9OcIj8UhCS1qCId0LqMK2EbFd_U1f7_55NqbCWQbxSzYgTp-1J8JmlHQrK2iXsB4BCan4vnYNzZgOEgdWiIjoJKLd5PJqFvHZUPl51YErJglBaiaqQAtIzU0Nog7jroFJ_53kEMA6HYhx6pbCkYM67deOFNR1tHU_vq3WRs3_w23yiuo4qewlB_4nDvL6uEDvH7b75yGKZ40dJw4cwSKCGNBcu8Nqx5UMEYrltgZKUE8YAokZJbpDxpsqTZT_v_hk6t48_14stZ0hRZoe3neBodG9Y3ZmuXSLRXEBhFtkbPK6JzXgjf1UwK9fiAket6aFcaVih5Vys_zM5xIlbNm00]--></g></svg>