<?xml version="1.0" encoding="us-ascii" standalone="no"?><svg xmlns="http://www.w3.org/2000/svg" xmlns:xlink="http://www.w3.org/1999/xlink" contentStyleType="text/css" height="2802px" preserveAspectRatio="none" style="width:1532px;height:2802px;background:#FFFFFF;" version="1.1" viewBox="0 0 1532 2802" width="1532px" zoomAndPan="magnify"><defs/><g><text fill="#000000" font-family="sans-serif" font-size="14" font-weight="bold" lengthAdjust="spacing" textLength="224" x="650" y="28.5352">&#36317;&#38626;&#25351;&#23450;&#12521;&#12452;&#12531;&#12488;&#12524;&#12540;&#12473;&#21205;&#20316;&#12501;&#12525;&#12540;</text><text fill="#000000" font-family="sans-serif" font-size="14" font-weight="bold" lengthAdjust="spacing" textLength="141" x="691.5" y="45.0234">(DistanceLineTrace)</text><rect fill="#FFFFFF" height="2465.5117" style="stroke:#181818;stroke-width:1.0;" width="10" x="653.5" y="181.5742"/><rect fill="#FFFFFF" height="2282.3379" style="stroke:#181818;stroke-width:1.0;" width="10" x="1259.5" y="364.748"/><rect fill="#FFFFFF" height="1475.6191" style="stroke:#181818;stroke-width:1.0;" width="10" x="1350" y="1171.4668"/><rect fill="none" height="2124.0957" style="stroke:#000000;stroke-width:1.5;" width="955.5" x="559.5" y="515.9902"/><rect fill="none" height="1266.0664" style="stroke:#000000;stroke-width:1.5;" width="935.5" x="569.5" y="1229.7773"/><rect fill="none" height="848.7188" style="stroke:#000000;stroke-width:1.5;" width="848.5" x="579.5" y="1640.125"/><line style="stroke:#181818;stroke-width:0.5;stroke-dasharray:5.0,5.0;" x1="99" x2="99" y1="106.9531" y2="2751.0176"/><line style="stroke:#181818;stroke-width:0.5;stroke-dasharray:5.0,5.0;" x1="658.5" x2="658.5" y1="106.9531" y2="2751.0176"/><line style="stroke:#181818;stroke-width:0.5;stroke-dasharray:5.0,5.0;" x1="965" x2="965" y1="106.9531" y2="2751.0176"/><line style="stroke:#181818;stroke-width:0.5;stroke-dasharray:5.0,5.0;" x1="1065" x2="1065" y1="106.9531" y2="2751.0176"/><line style="stroke:#181818;stroke-width:0.5;stroke-dasharray:5.0,5.0;" x1="1187" x2="1187" y1="106.9531" y2="2751.0176"/><line style="stroke:#181818;stroke-width:0.5;stroke-dasharray:5.0,5.0;" x1="1264" x2="1264" y1="106.9531" y2="2751.0176"/><line style="stroke:#181818;stroke-width:0.5;stroke-dasharray:5.0,5.0;" x1="1355" x2="1355" y1="106.9531" y2="2751.0176"/><line style="stroke:#181818;stroke-width:0.5;stroke-dasharray:5.0,5.0;" x1="1461" x2="1461" y1="106.9531" y2="2751.0176"/><rect fill="#E2E2F0" height="46.9766" rx="2.5" ry="2.5" style="stroke:#181818;stroke-width:0.5;" width="105" x="47" y="58.9766"/><text fill="#000000" font-family="sans-serif" font-size="14" lengthAdjust="spacing" textLength="85" x="57" y="79.5117">AreaMaster/</text><text fill="#000000" font-family="sans-serif" font-size="14" lengthAdjust="spacing" textLength="91" x="54" y="96">MotionParser</text><rect fill="#E2E2F0" height="46.9766" rx="2.5" ry="2.5" style="stroke:#181818;stroke-width:0.5;" width="105" x="47" y="2750.0176"/><text fill="#000000" font-family="sans-serif" font-size="14" lengthAdjust="spacing" textLength="85" x="57" y="2770.5527">AreaMaster/</text><text fill="#000000" font-family="sans-serif" font-size="14" lengthAdjust="spacing" textLength="91" x="54" y="2787.041">MotionParser</text><rect fill="#E2E2F0" height="30.4883" rx="2.5" ry="2.5" style="stroke:#181818;stroke-width:0.5;" width="138" x="589.5" y="75.4648"/><text fill="#000000" font-family="sans-serif" font-size="14" lengthAdjust="spacing" textLength="124" x="596.5" y="96">DistanceLineTrace</text><rect fill="#E2E2F0" height="30.4883" rx="2.5" ry="2.5" style="stroke:#181818;stroke-width:0.5;" width="138" x="589.5" y="2750.0176"/><text fill="#000000" font-family="sans-serif" font-size="14" lengthAdjust="spacing" textLength="124" x="596.5" y="2770.5527">DistanceLineTrace</text><rect fill="#E2E2F0" height="30.4883" rx="2.5" ry="2.5" style="stroke:#181818;stroke-width:0.5;" width="55" x="938" y="75.4648"/><text fill="#000000" font-family="sans-serif" font-size="14" lengthAdjust="spacing" textLength="41" x="945" y="96">Robot</text><rect fill="#E2E2F0" height="30.4883" rx="2.5" ry="2.5" style="stroke:#181818;stroke-width:0.5;" width="55" x="938" y="2750.0176"/><text fill="#000000" font-family="sans-serif" font-size="14" lengthAdjust="spacing" textLength="41" x="945" y="2770.5527">Robot</text><rect fill="#E2E2F0" height="30.4883" rx="2.5" ry="2.5" style="stroke:#181818;stroke-width:0.5;" width="125" x="1003" y="75.4648"/><text fill="#000000" font-family="sans-serif" font-size="14" lengthAdjust="spacing" textLength="111" x="1010" y="96">MotorController</text><rect fill="#E2E2F0" height="30.4883" rx="2.5" ry="2.5" style="stroke:#181818;stroke-width:0.5;" width="125" x="1003" y="2750.0176"/><text fill="#000000" font-family="sans-serif" font-size="14" lengthAdjust="spacing" textLength="111" x="1010" y="2770.5527">MotorController</text><rect fill="#E2E2F0" height="30.4883" rx="2.5" ry="2.5" style="stroke:#181818;stroke-width:0.5;" width="99" x="1138" y="75.4648"/><text fill="#000000" font-family="sans-serif" font-size="14" lengthAdjust="spacing" textLength="85" x="1145" y="96">ColorSensor</text><rect fill="#E2E2F0" height="30.4883" rx="2.5" ry="2.5" style="stroke:#181818;stroke-width:0.5;" width="99" x="1138" y="2750.0176"/><text fill="#000000" font-family="sans-serif" font-size="14" lengthAdjust="spacing" textLength="85" x="1145" y="2770.5527">ColorSensor</text><rect fill="#E2E2F0" height="30.4883" rx="2.5" ry="2.5" style="stroke:#181818;stroke-width:0.5;" width="35" x="1247" y="75.4648"/><text fill="#000000" font-family="sans-serif" font-size="14" lengthAdjust="spacing" textLength="21" x="1254" y="96">Pid</text><rect fill="#E2E2F0" height="30.4883" rx="2.5" ry="2.5" style="stroke:#181818;stroke-width:0.5;" width="35" x="1247" y="2750.0176"/><text fill="#000000" font-family="sans-serif" font-size="14" lengthAdjust="spacing" textLength="21" x="1254" y="2770.5527">Pid</text><rect fill="#E2E2F0" height="30.4883" rx="2.5" ry="2.5" style="stroke:#181818;stroke-width:0.5;" width="126" x="1292" y="75.4648"/><text fill="#000000" font-family="sans-serif" font-size="14" lengthAdjust="spacing" textLength="112" x="1299" y="96">SpeedCalculator</text><rect fill="#E2E2F0" height="30.4883" rx="2.5" ry="2.5" style="stroke:#181818;stroke-width:0.5;" width="126" x="1292" y="2750.0176"/><text fill="#000000" font-family="sans-serif" font-size="14" lengthAdjust="spacing" textLength="112" x="1299" y="2770.5527">SpeedCalculator</text><rect fill="#E2E2F0" height="30.4883" rx="2.5" ry="2.5" style="stroke:#181818;stroke-width:0.5;" width="67" x="1428" y="75.4648"/><text fill="#000000" font-family="sans-serif" font-size="14" lengthAdjust="spacing" textLength="53" x="1435" y="96">Mileage</text><rect fill="#E2E2F0" height="30.4883" rx="2.5" ry="2.5" style="stroke:#181818;stroke-width:0.5;" width="67" x="1428" y="2750.0176"/><text fill="#000000" font-family="sans-serif" font-size="14" lengthAdjust="spacing" textLength="53" x="1435" y="2770.5527">Mileage</text><rect fill="#FFFFFF" height="2465.5117" style="stroke:#181818;stroke-width:1.0;" width="10" x="653.5" y="181.5742"/><rect fill="#FFFFFF" height="2282.3379" style="stroke:#181818;stroke-width:1.0;" width="10" x="1259.5" y="364.748"/><rect fill="#FFFFFF" height="1475.6191" style="stroke:#181818;stroke-width:1.0;" width="10" x="1350" y="1171.4668"/><rect fill="#EEEEEE" height="3" style="stroke:#EEEEEE;stroke-width:1.0;" width="1525" x="0" y="137.6084"/><line style="stroke:#000000;stroke-width:1.0;" x1="0" x2="1525" y1="137.6084" y2="137.6084"/><line style="stroke:#000000;stroke-width:1.0;" x1="0" x2="1525" y1="140.6084" y2="140.6084"/><rect fill="#EEEEEE" height="23.3105" style="stroke:#000000;stroke-width:2.0;" width="57" x="734" y="126.9531"/><text fill="#000000" font-family="sans-serif" font-size="13" font-weight="bold" lengthAdjust="spacing" textLength="39" x="740" y="143.5215">&#21021;&#26399;&#21270;</text><polygon fill="#181818" points="641.5,177.5742,651.5,181.5742,641.5,185.5742,645.5,181.5742" style="stroke:#181818;stroke-width:1.0;"/><line style="stroke:#181818;stroke-width:1.0;" x1="99.5" x2="647.5" y1="181.5742" y2="181.5742"/><text fill="#000000" font-family="sans-serif" font-size="13" lengthAdjust="spacing" textLength="535" x="106.5" y="176.832">new DistanceLineTrace(robot, targetDistance, targetSpeed, targetBrightness, pidGain)</text><path d="M668,194.5742 L668,265.5742 L852,265.5742 L852,204.5742 L842,194.5742 L668,194.5742 " fill="#FEFFDD" style="stroke:#181818;stroke-width:0.5;"/><path d="M842,194.5742 L842,204.5742 L852,204.5742 L842,194.5742 " fill="#FEFFDD" style="stroke:#181818;stroke-width:0.5;"/><text fill="#000000" font-family="sans-serif" font-size="13" lengthAdjust="spacing" textLength="152" x="674" y="212.1426">targetDistance: &#30446;&#27161;&#36317;&#38626;</text><text fill="#000000" font-family="sans-serif" font-size="13" lengthAdjust="spacing" textLength="134" x="674" y="227.4531">targetSpeed: &#30446;&#27161;&#36895;&#24230;</text><text fill="#000000" font-family="sans-serif" font-size="13" lengthAdjust="spacing" textLength="163" x="674" y="242.7637">targetBrightness: &#30446;&#27161;&#36637;&#24230;</text><text fill="#000000" font-family="sans-serif" font-size="13" lengthAdjust="spacing" textLength="116" x="674" y="258.0742">pidGain: PID&#12466;&#12452;&#12531;</text><rect fill="#EEEEEE" height="3" style="stroke:#EEEEEE;stroke-width:1.0;" width="1525" x="0" y="291.4717"/><line style="stroke:#000000;stroke-width:1.0;" x1="0" x2="1525" y1="291.4717" y2="291.4717"/><line style="stroke:#000000;stroke-width:1.0;" x1="0" x2="1525" y1="294.4717" y2="294.4717"/><rect fill="#EEEEEE" height="23.3105" style="stroke:#000000;stroke-width:2.0;" width="70" x="727.5" y="280.8164"/><text fill="#000000" font-family="sans-serif" font-size="13" font-weight="bold" lengthAdjust="spacing" textLength="52" x="733.5" y="297.3848">&#23455;&#34892;&#38283;&#22987;</text><polygon fill="#181818" points="641.5,331.4375,651.5,335.4375,641.5,339.4375,645.5,335.4375" style="stroke:#181818;stroke-width:1.0;"/><line style="stroke:#181818;stroke-width:1.0;" x1="99.5" x2="647.5" y1="335.4375" y2="335.4375"/><text fill="#000000" font-family="sans-serif" font-size="13" lengthAdjust="spacing" textLength="29" x="106.5" y="330.6953">run()</text><polygon fill="#181818" points="1247.5,360.748,1257.5,364.748,1247.5,368.748,1251.5,364.748" style="stroke:#181818;stroke-width:1.0;"/><line style="stroke:#181818;stroke-width:1.0;" x1="663.5" x2="1253.5" y1="364.748" y2="364.748"/><text fill="#000000" font-family="sans-serif" font-size="13" lengthAdjust="spacing" textLength="383" x="670.5" y="360.0059">new Pid(pidGain.kp, pidGain.ki, pidGain.kd, targetBrightness)</text><rect fill="#EEEEEE" height="3" style="stroke:#EEEEEE;stroke-width:1.0;" width="1525" x="0" y="393.4033"/><line style="stroke:#000000;stroke-width:1.0;" x1="0" x2="1525" y1="393.4033" y2="393.4033"/><line style="stroke:#000000;stroke-width:1.0;" x1="0" x2="1525" y1="396.4033" y2="396.4033"/><rect fill="#EEEEEE" height="23.3105" style="stroke:#000000;stroke-width:2.0;" width="96" x="714.5" y="382.748"/><text fill="#000000" font-family="sans-serif" font-size="13" font-weight="bold" lengthAdjust="spacing" textLength="78" x="720.5" y="399.3164">&#20107;&#21069;&#26465;&#20214;&#21028;&#23450;</text><line style="stroke:#181818;stroke-width:1.0;" x1="663.5" x2="705.5" y1="437.3691" y2="437.3691"/><line style="stroke:#181818;stroke-width:1.0;" x1="705.5" x2="705.5" y1="437.3691" y2="450.3691"/><line style="stroke:#181818;stroke-width:1.0;" x1="664.5" x2="705.5" y1="450.3691" y2="450.3691"/><polygon fill="#181818" points="674.5,446.3691,664.5,450.3691,674.5,454.3691,670.5,450.3691" style="stroke:#181818;stroke-width:1.0;"/><text fill="#000000" font-family="sans-serif" font-size="13" lengthAdjust="spacing" textLength="123" x="670.5" y="432.627">isMetPreCondition()</text><path d="M668,463.3691 L668,503.3691 L876,503.3691 L876,473.3691 L866,463.3691 L668,463.3691 " fill="#FEFFDD" style="stroke:#181818;stroke-width:0.5;"/><path d="M866,463.3691 L866,473.3691 L876,473.3691 L866,463.3691 " fill="#FEFFDD" style="stroke:#181818;stroke-width:0.5;"/><text fill="#000000" font-family="sans-serif" font-size="13" lengthAdjust="spacing" textLength="130" x="674" y="480.9375">targetSpeed &gt; 0 &#12363;&#12388;</text><text fill="#000000" font-family="sans-serif" font-size="13" lengthAdjust="spacing" textLength="187" x="674" y="496.248">targetDistance &gt; 0 &#12434;&#12481;&#12455;&#12483;&#12463;</text><path d="M559.5,515.9902 L621.5,515.9902 L621.5,523.3008 L611.5,533.3008 L559.5,533.3008 L559.5,515.9902 " fill="#EEEEEE" style="stroke:#000000;stroke-width:1.5;"/><rect fill="none" height="2124.0957" style="stroke:#000000;stroke-width:1.5;" width="955.5" x="559.5" y="515.9902"/><text fill="#000000" font-family="sans-serif" font-size="13" font-weight="bold" lengthAdjust="spacing" textLength="17" x="574.5" y="529.5586">alt</text><text fill="#000000" font-family="sans-serif" font-size="11" font-weight="bold" lengthAdjust="spacing" textLength="118" x="636.5" y="528.625">[&#20107;&#21069;&#26465;&#20214;&#12434;&#28288;&#12383;&#12373;&#12394;&#12356;]</text><line style="stroke:#181818;stroke-width:1.0;" x1="663.5" x2="705.5" y1="558.7666" y2="558.7666"/><line style="stroke:#181818;stroke-width:1.0;" x1="705.5" x2="705.5" y1="558.7666" y2="571.7666"/><line style="stroke:#181818;stroke-width:1.0;" x1="664.5" x2="705.5" y1="571.7666" y2="571.7666"/><polygon fill="#181818" points="674.5,567.7666,664.5,571.7666,674.5,575.7666,670.5,571.7666" style="stroke:#181818;stroke-width:1.0;"/><text fill="#000000" font-family="sans-serif" font-size="13" lengthAdjust="spacing" textLength="102" x="670.5" y="554.0244">return (&#20966;&#29702;&#32066;&#20102;)</text><path d="M784,538.3008 L784,578.3008 L976,578.3008 L976,548.3008 L966,538.3008 L784,538.3008 " fill="#FEFFDD" style="stroke:#181818;stroke-width:0.5;"/><path d="M966,538.3008 L966,548.3008 L976,548.3008 L966,538.3008 " fill="#FEFFDD" style="stroke:#181818;stroke-width:0.5;"/><text fill="#000000" font-family="sans-serif" font-size="13" lengthAdjust="spacing" textLength="153" x="790" y="555.8691">targetSpeed == 0 &#12414;&#12383;&#12399;</text><text fill="#000000" font-family="sans-serif" font-size="13" lengthAdjust="spacing" textLength="171" x="790" y="571.1797">targetDistance &lt;= 0 &#12398;&#22580;&#21512;</text><line style="stroke:#000000;stroke-width:1.0;stroke-dasharray:2.0,2.0;" x1="559.5" x2="1515" y1="584.9219" y2="584.9219"/><text fill="#000000" font-family="sans-serif" font-size="11" font-weight="bold" lengthAdjust="spacing" textLength="96" x="564.5" y="595.5566">[&#20107;&#21069;&#26465;&#20214;&#12434;&#28288;&#12383;&#12377;]</text><rect fill="#EEEEEE" height="3" style="stroke:#EEEEEE;stroke-width:1.0;" width="1525" x="0" y="619.5322"/><line style="stroke:#000000;stroke-width:1.0;" x1="0" x2="1525" y1="619.5322" y2="619.5322"/><line style="stroke:#000000;stroke-width:1.0;" x1="0" x2="1525" y1="622.5322" y2="622.5322"/><rect fill="#EEEEEE" height="23.3105" style="stroke:#000000;stroke-width:2.0;" width="70" x="727.5" y="608.877"/><text fill="#000000" font-family="sans-serif" font-size="13" font-weight="bold" lengthAdjust="spacing" textLength="52" x="733.5" y="625.4453">&#28310;&#20633;&#20966;&#29702;</text><line style="stroke:#181818;stroke-width:1.0;" x1="663.5" x2="705.5" y1="663.498" y2="663.498"/><line style="stroke:#181818;stroke-width:1.0;" x1="705.5" x2="705.5" y1="663.498" y2="676.498"/><line style="stroke:#181818;stroke-width:1.0;" x1="664.5" x2="705.5" y1="676.498" y2="676.498"/><polygon fill="#181818" points="674.5,672.498,664.5,676.498,674.5,680.498,670.5,676.498" style="stroke:#181818;stroke-width:1.0;"/><text fill="#000000" font-family="sans-serif" font-size="13" lengthAdjust="spacing" textLength="55" x="670.5" y="658.7559">prepare()</text><polygon fill="#181818" points="953.5,701.8086,963.5,705.8086,953.5,709.8086,957.5,705.8086" style="stroke:#181818;stroke-width:1.0;"/><line style="stroke:#181818;stroke-width:1.0;" x1="663.5" x2="959.5" y1="705.8086" y2="705.8086"/><text fill="#000000" font-family="sans-serif" font-size="13" lengthAdjust="spacing" textLength="181" x="670.5" y="701.0664">getMotorControllerInstance()</text><polygon fill="#181818" points="674.5,731.1191,664.5,735.1191,674.5,739.1191,670.5,735.1191" style="stroke:#181818;stroke-width:1.0;"/><line style="stroke:#181818;stroke-width:1.0;stroke-dasharray:2.0,2.0;" x1="668.5" x2="964.5" y1="735.1191" y2="735.1191"/><text fill="#000000" font-family="sans-serif" font-size="13" lengthAdjust="spacing" textLength="109" x="680.5" y="730.377">MotorController&amp;</text><polygon fill="#181818" points="1053.5,760.4297,1063.5,764.4297,1053.5,768.4297,1057.5,764.4297" style="stroke:#181818;stroke-width:1.0;"/><line style="stroke:#181818;stroke-width:1.0;" x1="663.5" x2="1059.5" y1="764.4297" y2="764.4297"/><text fill="#000000" font-family="sans-serif" font-size="13" lengthAdjust="spacing" textLength="136" x="670.5" y="759.6875">getRightMotorCount()</text><polygon fill="#181818" points="674.5,789.7402,664.5,793.7402,674.5,797.7402,670.5,793.7402" style="stroke:#181818;stroke-width:1.0;"/><line style="stroke:#181818;stroke-width:1.0;stroke-dasharray:2.0,2.0;" x1="668.5" x2="1064.5" y1="793.7402" y2="793.7402"/><text fill="#000000" font-family="sans-serif" font-size="13" lengthAdjust="spacing" textLength="68" x="680.5" y="788.998">rightCount</text><polygon fill="#181818" points="1053.5,819.0508,1063.5,823.0508,1053.5,827.0508,1057.5,823.0508" style="stroke:#181818;stroke-width:1.0;"/><line style="stroke:#181818;stroke-width:1.0;" x1="663.5" x2="1059.5" y1="823.0508" y2="823.0508"/><text fill="#000000" font-family="sans-serif" font-size="13" lengthAdjust="spacing" textLength="127" x="670.5" y="818.3086">getLeftMotorCount()</text><polygon fill="#181818" points="674.5,848.3613,664.5,852.3613,674.5,856.3613,670.5,852.3613" style="stroke:#181818;stroke-width:1.0;"/><line style="stroke:#181818;stroke-width:1.0;stroke-dasharray:2.0,2.0;" x1="668.5" x2="1064.5" y1="852.3613" y2="852.3613"/><text fill="#000000" font-family="sans-serif" font-size="13" lengthAdjust="spacing" textLength="59" x="680.5" y="847.6191">leftCount</text><polygon fill="#181818" points="1449.5,877.6719,1459.5,881.6719,1449.5,885.6719,1453.5,881.6719" style="stroke:#181818;stroke-width:1.0;"/><line style="stroke:#181818;stroke-width:1.0;" x1="663.5" x2="1455.5" y1="881.6719" y2="881.6719"/><text fill="#000000" font-family="sans-serif" font-size="13" lengthAdjust="spacing" textLength="247" x="670.5" y="876.9297">calculateMileage(rightCount, leftCount)</text><polygon fill="#181818" points="674.5,906.9824,664.5,910.9824,674.5,914.9824,670.5,910.9824" style="stroke:#181818;stroke-width:1.0;"/><line style="stroke:#181818;stroke-width:1.0;stroke-dasharray:2.0,2.0;" x1="668.5" x2="1460.5" y1="910.9824" y2="910.9824"/><text fill="#000000" font-family="sans-serif" font-size="13" lengthAdjust="spacing" textLength="76" x="680.5" y="906.2402">initDistance</text><path d="M668,923.9824 L668,948.9824 L806,948.9824 L806,933.9824 L796,923.9824 L668,923.9824 " fill="#FEFFDD" style="stroke:#181818;stroke-width:0.5;"/><path d="M796,923.9824 L796,933.9824 L806,933.9824 L796,923.9824 " fill="#FEFFDD" style="stroke:#181818;stroke-width:0.5;"/><text fill="#000000" font-family="sans-serif" font-size="13" lengthAdjust="spacing" textLength="117" x="674" y="941.5508">&#21021;&#26399;&#36208;&#34892;&#36317;&#38626;&#12434;&#35352;&#37682;</text><rect fill="#EEEEEE" height="3" style="stroke:#EEEEEE;stroke-width:1.0;" width="1525" x="0" y="974.9482"/><line style="stroke:#000000;stroke-width:1.0;" x1="0" x2="1525" y1="974.9482" y2="974.9482"/><line style="stroke:#000000;stroke-width:1.0;" x1="0" x2="1525" y1="977.9482" y2="977.9482"/><rect fill="#EEEEEE" height="23.3105" style="stroke:#000000;stroke-width:2.0;" width="83" x="721" y="964.293"/><text fill="#000000" font-family="sans-serif" font-size="13" font-weight="bold" lengthAdjust="spacing" textLength="65" x="727" y="980.8613">&#12456;&#12483;&#12472;&#21028;&#23450;</text><polygon fill="#181818" points="953.5,1014.9141,963.5,1018.9141,953.5,1022.9141,957.5,1018.9141" style="stroke:#181818;stroke-width:1.0;"/><line style="stroke:#181818;stroke-width:1.0;" x1="663.5" x2="959.5" y1="1018.9141" y2="1018.9141"/><text fill="#000000" font-family="sans-serif" font-size="13" lengthAdjust="spacing" textLength="93" x="670.5" y="1014.1719">getIsLeftEdge()</text><polygon fill="#181818" points="674.5,1044.2246,664.5,1048.2246,674.5,1052.2246,670.5,1048.2246" style="stroke:#181818;stroke-width:1.0;"/><line style="stroke:#181818;stroke-width:1.0;stroke-dasharray:2.0,2.0;" x1="668.5" x2="964.5" y1="1048.2246" y2="1048.2246"/><text fill="#000000" font-family="sans-serif" font-size="13" lengthAdjust="spacing" textLength="65" x="680.5" y="1043.4824">isLeftEdge</text><path d="M668,1061.2246 L668,1101.2246 L849,1101.2246 L849,1071.2246 L839,1061.2246 L668,1061.2246 " fill="#FEFFDD" style="stroke:#181818;stroke-width:0.5;"/><path d="M839,1061.2246 L839,1071.2246 L849,1071.2246 L839,1061.2246 " fill="#FEFFDD" style="stroke:#181818;stroke-width:0.5;"/><text fill="#000000" font-family="sans-serif" font-size="13" lengthAdjust="spacing" textLength="104" x="674" y="1078.793">&#12456;&#12483;&#12472;&#12469;&#12452;&#12531;&#35336;&#31639;</text><text fill="#000000" font-family="sans-serif" font-size="13" lengthAdjust="spacing" textLength="160" x="674" y="1094.1035">(&#24038;&#12456;&#12483;&#12472;: -1, &#21491;&#12456;&#12483;&#12472;: 1)</text><rect fill="#EEEEEE" height="3" style="stroke:#EEEEEE;stroke-width:1.0;" width="1525" x="0" y="1127.501"/><line style="stroke:#000000;stroke-width:1.0;" x1="0" x2="1525" y1="1127.501" y2="1127.501"/><line style="stroke:#000000;stroke-width:1.0;" x1="0" x2="1525" y1="1130.501" y2="1130.501"/><rect fill="#EEEEEE" height="23.3105" style="stroke:#000000;stroke-width:2.0;" width="96" x="714.5" y="1116.8457"/><text fill="#000000" font-family="sans-serif" font-size="13" font-weight="bold" lengthAdjust="spacing" textLength="78" x="720.5" y="1133.4141">&#36895;&#24230;&#21046;&#24481;&#28310;&#20633;</text><polygon fill="#181818" points="1338,1167.4668,1348,1171.4668,1338,1175.4668,1342,1171.4668" style="stroke:#181818;stroke-width:1.0;"/><line style="stroke:#181818;stroke-width:1.0;" x1="663.5" x2="1344" y1="1171.4668" y2="1171.4668"/><text fill="#000000" font-family="sans-serif" font-size="13" lengthAdjust="spacing" textLength="254" x="670.5" y="1166.7246">new SpeedCalculator(robot, targetSpeed)</text><rect fill="#EEEEEE" height="3" style="stroke:#EEEEEE;stroke-width:1.0;" width="1525" x="0" y="1200.1221"/><line style="stroke:#000000;stroke-width:1.0;" x1="0" x2="1525" y1="1200.1221" y2="1200.1221"/><line style="stroke:#000000;stroke-width:1.0;" x1="0" x2="1525" y1="1203.1221" y2="1203.1221"/><rect fill="#EEEEEE" height="23.3105" style="stroke:#000000;stroke-width:2.0;" width="174" x="675.5" y="1189.4668"/><text fill="#000000" font-family="sans-serif" font-size="13" font-weight="bold" lengthAdjust="spacing" textLength="156" x="681.5" y="1206.0352">&#12521;&#12452;&#12531;&#12488;&#12524;&#12540;&#12473;&#21046;&#24481;&#12523;&#12540;&#12503;</text><path d="M569.5,1229.7773 L643.5,1229.7773 L643.5,1237.0879 L633.5,1247.0879 L569.5,1247.0879 L569.5,1229.7773 " fill="#EEEEEE" style="stroke:#000000;stroke-width:1.5;"/><rect fill="none" height="1266.0664" style="stroke:#000000;stroke-width:1.5;" width="935.5" x="569.5" y="1229.7773"/><text fill="#000000" font-family="sans-serif" font-size="13" font-weight="bold" lengthAdjust="spacing" textLength="29" x="584.5" y="1243.3457">loop</text><text fill="#000000" font-family="sans-serif" font-size="11" font-weight="bold" lengthAdjust="spacing" textLength="107" x="658.5" y="1242.4121">[&#32153;&#32154;&#26465;&#20214;&#12434;&#28288;&#12383;&#12377;&#38291;]</text><rect fill="#EEEEEE" height="3" style="stroke:#EEEEEE;stroke-width:1.0;" width="1525" x="0" y="1267.7432"/><line style="stroke:#000000;stroke-width:1.0;" x1="0" x2="1525" y1="1267.7432" y2="1267.7432"/><line style="stroke:#000000;stroke-width:1.0;" x1="0" x2="1525" y1="1270.7432" y2="1270.7432"/><rect fill="#EEEEEE" height="23.3105" style="stroke:#000000;stroke-width:2.0;" width="96" x="714.5" y="1257.0879"/><text fill="#000000" font-family="sans-serif" font-size="13" font-weight="bold" lengthAdjust="spacing" textLength="78" x="720.5" y="1273.6563">&#32153;&#32154;&#26465;&#20214;&#21028;&#23450;</text><line style="stroke:#181818;stroke-width:1.0;" x1="663.5" x2="705.5" y1="1311.709" y2="1311.709"/><line style="stroke:#181818;stroke-width:1.0;" x1="705.5" x2="705.5" y1="1311.709" y2="1324.709"/><line style="stroke:#181818;stroke-width:1.0;" x1="664.5" x2="705.5" y1="1324.709" y2="1324.709"/><polygon fill="#181818" points="674.5,1320.709,664.5,1324.709,674.5,1328.709,670.5,1324.709" style="stroke:#181818;stroke-width:1.0;"/><text fill="#000000" font-family="sans-serif" font-size="13" lengthAdjust="spacing" textLength="186" x="670.5" y="1306.9668">isMetContinuationCondition()</text><polygon fill="#181818" points="953.5,1350.0195,963.5,1354.0195,953.5,1358.0195,957.5,1354.0195" style="stroke:#181818;stroke-width:1.0;"/><line style="stroke:#181818;stroke-width:1.0;" x1="663.5" x2="959.5" y1="1354.0195" y2="1354.0195"/><text fill="#000000" font-family="sans-serif" font-size="13" lengthAdjust="spacing" textLength="181" x="670.5" y="1349.2773">getMotorControllerInstance()</text><polygon fill="#181818" points="674.5,1379.3301,664.5,1383.3301,674.5,1387.3301,670.5,1383.3301" style="stroke:#181818;stroke-width:1.0;"/><line style="stroke:#181818;stroke-width:1.0;stroke-dasharray:2.0,2.0;" x1="668.5" x2="964.5" y1="1383.3301" y2="1383.3301"/><text fill="#000000" font-family="sans-serif" font-size="13" lengthAdjust="spacing" textLength="109" x="680.5" y="1378.5879">MotorController&amp;</text><polygon fill="#181818" points="1053.5,1408.6406,1063.5,1412.6406,1053.5,1416.6406,1057.5,1412.6406" style="stroke:#181818;stroke-width:1.0;"/><line style="stroke:#181818;stroke-width:1.0;" x1="663.5" x2="1059.5" y1="1412.6406" y2="1412.6406"/><text fill="#000000" font-family="sans-serif" font-size="13" lengthAdjust="spacing" textLength="136" x="670.5" y="1407.8984">getRightMotorCount()</text><polygon fill="#181818" points="674.5,1437.9512,664.5,1441.9512,674.5,1445.9512,670.5,1441.9512" style="stroke:#181818;stroke-width:1.0;"/><line style="stroke:#181818;stroke-width:1.0;stroke-dasharray:2.0,2.0;" x1="668.5" x2="1064.5" y1="1441.9512" y2="1441.9512"/><text fill="#000000" font-family="sans-serif" font-size="13" lengthAdjust="spacing" textLength="116" x="680.5" y="1437.209">currentRightCount</text><polygon fill="#181818" points="1053.5,1467.2617,1063.5,1471.2617,1053.5,1475.2617,1057.5,1471.2617" style="stroke:#181818;stroke-width:1.0;"/><line style="stroke:#181818;stroke-width:1.0;" x1="663.5" x2="1059.5" y1="1471.2617" y2="1471.2617"/><text fill="#000000" font-family="sans-serif" font-size="13" lengthAdjust="spacing" textLength="127" x="670.5" y="1466.5195">getLeftMotorCount()</text><polygon fill="#181818" points="674.5,1496.5723,664.5,1500.5723,674.5,1504.5723,670.5,1500.5723" style="stroke:#181818;stroke-width:1.0;"/><line style="stroke:#181818;stroke-width:1.0;stroke-dasharray:2.0,2.0;" x1="668.5" x2="1064.5" y1="1500.5723" y2="1500.5723"/><text fill="#000000" font-family="sans-serif" font-size="13" lengthAdjust="spacing" textLength="107" x="680.5" y="1495.8301">currentLeftCount</text><polygon fill="#181818" points="1449.5,1525.8828,1459.5,1529.8828,1449.5,1533.8828,1453.5,1529.8828" style="stroke:#181818;stroke-width:1.0;"/><line style="stroke:#181818;stroke-width:1.0;" x1="663.5" x2="1455.5" y1="1529.8828" y2="1529.8828"/><text fill="#000000" font-family="sans-serif" font-size="13" lengthAdjust="spacing" textLength="343" x="670.5" y="1525.1406">calculateMileage(currentRightCount, currentLeftCount)</text><polygon fill="#181818" points="674.5,1555.1934,664.5,1559.1934,674.5,1563.1934,670.5,1559.1934" style="stroke:#181818;stroke-width:1.0;"/><line style="stroke:#181818;stroke-width:1.0;stroke-dasharray:2.0,2.0;" x1="668.5" x2="1460.5" y1="1559.1934" y2="1559.1934"/><text fill="#000000" font-family="sans-serif" font-size="13" lengthAdjust="spacing" textLength="100" x="680.5" y="1554.4512">currentDistance</text><path d="M668,1572.1934 L668,1627.1934 L1031,1627.1934 L1031,1582.1934 L1021,1572.1934 L668,1572.1934 " fill="#FEFFDD" style="stroke:#181818;stroke-width:0.5;"/><path d="M1021,1572.1934 L1021,1582.1934 L1031,1582.1934 L1021,1572.1934 " fill="#FEFFDD" style="stroke:#181818;stroke-width:0.5;"/><text fill="#000000" font-family="sans-serif" font-size="13" lengthAdjust="spacing" textLength="108" x="674" y="1589.7617">&#36208;&#34892;&#36317;&#38626;&#12481;&#12455;&#12483;&#12463;:</text><text fill="#000000" font-family="sans-serif" font-size="13" lengthAdjust="spacing" textLength="342" x="674" y="1605.0723">abs(currentDistance - initDistance) &gt;= targetDistance</text><text fill="#000000" font-family="sans-serif" font-size="13" lengthAdjust="spacing" textLength="142" x="674" y="1620.3828">&#12394;&#12425; false &#12434;&#36820;&#12375;&#12390;&#32066;&#20102;</text><path d="M579.5,1640.125 L641.5,1640.125 L641.5,1647.4355 L631.5,1657.4355 L579.5,1657.4355 L579.5,1640.125 " fill="#EEEEEE" style="stroke:#000000;stroke-width:1.5;"/><rect fill="none" height="848.7188" style="stroke:#000000;stroke-width:1.5;" width="848.5" x="579.5" y="1640.125"/><text fill="#000000" font-family="sans-serif" font-size="13" font-weight="bold" lengthAdjust="spacing" textLength="17" x="594.5" y="1653.6934">alt</text><text fill="#000000" font-family="sans-serif" font-size="11" font-weight="bold" lengthAdjust="spacing" textLength="85" x="656.5" y="1652.7598">[&#30446;&#27161;&#36317;&#38626;&#12395;&#21040;&#36948;]</text><path d="M615,1662.4355 L615,1687.4355 L701,1687.4355 L701,1672.4355 L691,1662.4355 L615,1662.4355 " fill="#FEFFDD" style="stroke:#181818;stroke-width:0.5;"/><path d="M691,1662.4355 L691,1672.4355 L701,1672.4355 L691,1662.4355 " fill="#FEFFDD" style="stroke:#181818;stroke-width:0.5;"/><text fill="#000000" font-family="sans-serif" font-size="13" lengthAdjust="spacing" textLength="65" x="621" y="1680.0039">&#12523;&#12540;&#12503;&#32066;&#20102;</text><line style="stroke:#000000;stroke-width:1.0;stroke-dasharray:2.0,2.0;" x1="579.5" x2="1428" y1="1693.7461" y2="1693.7461"/><text fill="#000000" font-family="sans-serif" font-size="11" font-weight="bold" lengthAdjust="spacing" textLength="96" x="584.5" y="1704.3809">[&#32153;&#32154;&#26465;&#20214;&#12434;&#28288;&#12383;&#12377;]</text><rect fill="#EEEEEE" height="3" style="stroke:#EEEEEE;stroke-width:1.0;" width="1525" x="0" y="1728.3564"/><line style="stroke:#000000;stroke-width:1.0;" x1="0" x2="1525" y1="1728.3564" y2="1728.3564"/><line style="stroke:#000000;stroke-width:1.0;" x1="0" x2="1525" y1="1731.3564" y2="1731.3564"/><rect fill="#EEEEEE" height="23.3105" style="stroke:#000000;stroke-width:2.0;" width="96" x="714.5" y="1717.7012"/><text fill="#000000" font-family="sans-serif" font-size="13" font-weight="bold" lengthAdjust="spacing" textLength="78" x="720.5" y="1734.2695">&#22522;&#26412;&#36895;&#24230;&#35336;&#31639;</text><polygon fill="#181818" points="1338,1768.3223,1348,1772.3223,1338,1776.3223,1342,1772.3223" style="stroke:#181818;stroke-width:1.0;"/><line style="stroke:#181818;stroke-width:1.0;" x1="663.5" x2="1344" y1="1772.3223" y2="1772.3223"/><text fill="#000000" font-family="sans-serif" font-size="13" lengthAdjust="spacing" textLength="171" x="670.5" y="1767.5801">calculateRightMotorPower()</text><polygon fill="#181818" points="674.5,1797.6328,664.5,1801.6328,674.5,1805.6328,670.5,1801.6328" style="stroke:#181818;stroke-width:1.0;"/><line style="stroke:#181818;stroke-width:1.0;stroke-dasharray:2.0,2.0;" x1="668.5" x2="1349" y1="1801.6328" y2="1801.6328"/><text fill="#000000" font-family="sans-serif" font-size="13" lengthAdjust="spacing" textLength="99" x="680.5" y="1796.8906">baseRightPower</text><polygon fill="#181818" points="1338,1826.9434,1348,1830.9434,1338,1834.9434,1342,1830.9434" style="stroke:#181818;stroke-width:1.0;"/><line style="stroke:#181818;stroke-width:1.0;" x1="663.5" x2="1344" y1="1830.9434" y2="1830.9434"/><text fill="#000000" font-family="sans-serif" font-size="13" lengthAdjust="spacing" textLength="162" x="670.5" y="1826.2012">calculateLeftMotorPower()</text><polygon fill="#181818" points="674.5,1856.2539,664.5,1860.2539,674.5,1864.2539,670.5,1860.2539" style="stroke:#181818;stroke-width:1.0;"/><line style="stroke:#181818;stroke-width:1.0;stroke-dasharray:2.0,2.0;" x1="668.5" x2="1349" y1="1860.2539" y2="1860.2539"/><text fill="#000000" font-family="sans-serif" font-size="13" lengthAdjust="spacing" textLength="90" x="680.5" y="1855.5117">baseLeftPower</text><rect fill="#EEEEEE" height="3" style="stroke:#EEEEEE;stroke-width:1.0;" width="1525" x="0" y="1888.9092"/><line style="stroke:#000000;stroke-width:1.0;" x1="0" x2="1525" y1="1888.9092" y2="1888.9092"/><line style="stroke:#000000;stroke-width:1.0;" x1="0" x2="1525" y1="1891.9092" y2="1891.9092"/><rect fill="#EEEEEE" height="23.3105" style="stroke:#000000;stroke-width:2.0;" width="92" x="716.5" y="1878.2539"/><text fill="#000000" font-family="sans-serif" font-size="13" font-weight="bold" lengthAdjust="spacing" textLength="74" x="722.5" y="1894.8223">PID&#21046;&#24481;&#35336;&#31639;</text><polygon fill="#181818" points="953.5,1928.875,963.5,1932.875,953.5,1936.875,957.5,1932.875" style="stroke:#181818;stroke-width:1.0;"/><line style="stroke:#181818;stroke-width:1.0;" x1="663.5" x2="959.5" y1="1932.875" y2="1932.875"/><text fill="#000000" font-family="sans-serif" font-size="13" lengthAdjust="spacing" textLength="157" x="670.5" y="1928.1328">getColorSensorInstance()</text><polygon fill="#181818" points="674.5,1958.1855,664.5,1962.1855,674.5,1966.1855,670.5,1962.1855" style="stroke:#181818;stroke-width:1.0;"/><line style="stroke:#181818;stroke-width:1.0;stroke-dasharray:2.0,2.0;" x1="668.5" x2="964.5" y1="1962.1855" y2="1962.1855"/><text fill="#000000" font-family="sans-serif" font-size="13" lengthAdjust="spacing" textLength="85" x="680.5" y="1957.4434">ColorSensor&amp;</text><polygon fill="#181818" points="1175.5,1987.4961,1185.5,1991.4961,1175.5,1995.4961,1179.5,1991.4961" style="stroke:#181818;stroke-width:1.0;"/><line style="stroke:#181818;stroke-width:1.0;" x1="663.5" x2="1181.5" y1="1991.4961" y2="1991.4961"/><text fill="#000000" font-family="sans-serif" font-size="13" lengthAdjust="spacing" textLength="91" x="670.5" y="1986.7539">getReflection()</text><polygon fill="#181818" points="674.5,2016.8066,664.5,2020.8066,674.5,2024.8066,670.5,2020.8066" style="stroke:#181818;stroke-width:1.0;"/><line style="stroke:#181818;stroke-width:1.0;stroke-dasharray:2.0,2.0;" x1="668.5" x2="1186.5" y1="2020.8066" y2="2020.8066"/><text fill="#000000" font-family="sans-serif" font-size="13" lengthAdjust="spacing" textLength="60" x="680.5" y="2016.0645">reflection</text><polygon fill="#181818" points="1247.5,2046.1172,1257.5,2050.1172,1247.5,2054.1172,1251.5,2050.1172" style="stroke:#181818;stroke-width:1.0;"/><line style="stroke:#181818;stroke-width:1.0;" x1="663.5" x2="1253.5" y1="2050.1172" y2="2050.1172"/><text fill="#000000" font-family="sans-serif" font-size="13" lengthAdjust="spacing" textLength="143" x="670.5" y="2045.375">calculatePid(reflection)</text><polygon fill="#181818" points="674.5,2075.4277,664.5,2079.4277,674.5,2083.4277,670.5,2079.4277" style="stroke:#181818;stroke-width:1.0;"/><line style="stroke:#181818;stroke-width:1.0;stroke-dasharray:2.0,2.0;" x1="668.5" x2="1258.5" y1="2079.4277" y2="2079.4277"/><text fill="#000000" font-family="sans-serif" font-size="13" lengthAdjust="spacing" textLength="80" x="680.5" y="2074.6855">turningValue</text><path d="M668,2092.4277 L668,2117.4277 L941,2117.4277 L941,2102.4277 L931,2092.4277 L668,2092.4277 " fill="#FEFFDD" style="stroke:#181818;stroke-width:0.5;"/><path d="M931,2092.4277 L931,2102.4277 L941,2102.4277 L931,2092.4277 " fill="#FEFFDD" style="stroke:#181818;stroke-width:0.5;"/><text fill="#000000" font-family="sans-serif" font-size="13" lengthAdjust="spacing" textLength="252" x="674" y="2109.9961">turningPower = turningValue * edgeSign</text><rect fill="#EEEEEE" height="3" style="stroke:#EEEEEE;stroke-width:1.0;" width="1525" x="0" y="2143.3936"/><line style="stroke:#000000;stroke-width:1.0;" x1="0" x2="1525" y1="2143.3936" y2="2143.3936"/><line style="stroke:#000000;stroke-width:1.0;" x1="0" x2="1525" y1="2146.3936" y2="2146.3936"/><rect fill="#EEEEEE" height="23.3105" style="stroke:#000000;stroke-width:2.0;" width="122" x="701.5" y="2132.7383"/><text fill="#000000" font-family="sans-serif" font-size="13" font-weight="bold" lengthAdjust="spacing" textLength="104" x="707.5" y="2149.3066">&#12514;&#12540;&#12479;&#12540;&#20986;&#21147;&#35336;&#31639;</text><path d="M668,2171.0488 L668,2211.0488 L954,2211.0488 L954,2181.0488 L944,2171.0488 L668,2171.0488 " fill="#FEFFDD" style="stroke:#181818;stroke-width:0.5;"/><path d="M944,2171.0488 L944,2181.0488 L954,2181.0488 L944,2171.0488 " fill="#FEFFDD" style="stroke:#181818;stroke-width:0.5;"/><text fill="#000000" font-family="sans-serif" font-size="13" lengthAdjust="spacing" textLength="265" x="674" y="2188.6172">&#21069;&#36914;&#26178;: max(basePower &#177; turningPower, 0)</text><text fill="#000000" font-family="sans-serif" font-size="13" lengthAdjust="spacing" textLength="262" x="674" y="2203.9277">&#24460;&#36914;&#26178;: min(basePower &#177; turningPower, 0)</text><line style="stroke:#181818;stroke-width:1.0;" x1="663.5" x2="705.5" y1="2237.9805" y2="2237.9805"/><line style="stroke:#181818;stroke-width:1.0;" x1="705.5" x2="705.5" y1="2237.9805" y2="2250.9805"/><line style="stroke:#181818;stroke-width:1.0;" x1="664.5" x2="705.5" y1="2250.9805" y2="2250.9805"/><polygon fill="#181818" points="674.5,2246.9805,664.5,2250.9805,674.5,2254.9805,670.5,2250.9805" style="stroke:#181818;stroke-width:1.0;"/><text fill="#000000" font-family="sans-serif" font-size="13" lengthAdjust="spacing" textLength="283" x="670.5" y="2233.2383">rightPower = baseRightPower - turningPower</text><line style="stroke:#181818;stroke-width:1.0;" x1="663.5" x2="705.5" y1="2280.291" y2="2280.291"/><line style="stroke:#181818;stroke-width:1.0;" x1="705.5" x2="705.5" y1="2280.291" y2="2293.291"/><line style="stroke:#181818;stroke-width:1.0;" x1="664.5" x2="705.5" y1="2293.291" y2="2293.291"/><polygon fill="#181818" points="674.5,2289.291,664.5,2293.291,674.5,2297.291,670.5,2293.291" style="stroke:#181818;stroke-width:1.0;"/><text fill="#000000" font-family="sans-serif" font-size="13" lengthAdjust="spacing" textLength="267" x="670.5" y="2275.5488">leftPower = baseLeftPower + turningPower</text><rect fill="#EEEEEE" height="3" style="stroke:#EEEEEE;stroke-width:1.0;" width="1525" x="0" y="2321.9463"/><line style="stroke:#000000;stroke-width:1.0;" x1="0" x2="1525" y1="2321.9463" y2="2321.9463"/><line style="stroke:#000000;stroke-width:1.0;" x1="0" x2="1525" y1="2324.9463" y2="2324.9463"/><rect fill="#EEEEEE" height="23.3105" style="stroke:#000000;stroke-width:2.0;" width="96" x="714.5" y="2311.291"/><text fill="#000000" font-family="sans-serif" font-size="13" font-weight="bold" lengthAdjust="spacing" textLength="78" x="720.5" y="2327.8594">&#12514;&#12540;&#12479;&#12540;&#21046;&#24481;</text><polygon fill="#181818" points="1053.5,2361.9121,1063.5,2365.9121,1053.5,2369.9121,1057.5,2365.9121" style="stroke:#181818;stroke-width:1.0;"/><line style="stroke:#181818;stroke-width:1.0;" x1="663.5" x2="1059.5" y1="2365.9121" y2="2365.9121"/><text fill="#000000" font-family="sans-serif" font-size="13" lengthAdjust="spacing" textLength="201" x="670.5" y="2361.1699">setRightMotorPower(rightPower)</text><polygon fill="#181818" points="1053.5,2391.2227,1063.5,2395.2227,1053.5,2399.2227,1057.5,2395.2227" style="stroke:#181818;stroke-width:1.0;"/><line style="stroke:#181818;stroke-width:1.0;" x1="663.5" x2="1059.5" y1="2395.2227" y2="2395.2227"/><text fill="#000000" font-family="sans-serif" font-size="13" lengthAdjust="spacing" textLength="183" x="670.5" y="2390.4805">setLeftMotorPower(leftPower)</text><rect fill="#EEEEEE" height="3" style="stroke:#EEEEEE;stroke-width:1.0;" width="1525" x="0" y="2423.8779"/><line style="stroke:#000000;stroke-width:1.0;" x1="0" x2="1525" y1="2423.8779" y2="2423.8779"/><line style="stroke:#000000;stroke-width:1.0;" x1="0" x2="1525" y1="2426.8779" y2="2426.8779"/><rect fill="#EEEEEE" height="23.3105" style="stroke:#000000;stroke-width:2.0;" width="44" x="740.5" y="2413.2227"/><text fill="#000000" font-family="sans-serif" font-size="13" font-weight="bold" lengthAdjust="spacing" textLength="26" x="746.5" y="2429.791">&#24453;&#27231;</text><line style="stroke:#181818;stroke-width:1.0;" x1="663.5" x2="705.5" y1="2467.8438" y2="2467.8438"/><line style="stroke:#181818;stroke-width:1.0;" x1="705.5" x2="705.5" y1="2467.8438" y2="2480.8438"/><line style="stroke:#181818;stroke-width:1.0;" x1="664.5" x2="705.5" y1="2480.8438" y2="2480.8438"/><polygon fill="#181818" points="674.5,2476.8438,664.5,2480.8438,674.5,2484.8438,670.5,2480.8438" style="stroke:#181818;stroke-width:1.0;"/><text fill="#000000" font-family="sans-serif" font-size="13" lengthAdjust="spacing" textLength="76" x="670.5" y="2463.1016">sleep(10ms)</text><path d="M758,2455.0332 L758,2480.0332 L892,2480.0332 L892,2465.0332 L882,2455.0332 L758,2455.0332 " fill="#FEFFDD" style="stroke:#181818;stroke-width:0.5;"/><path d="M882,2455.0332 L882,2465.0332 L892,2465.0332 L882,2455.0332 " fill="#FEFFDD" style="stroke:#181818;stroke-width:0.5;"/><text fill="#000000" font-family="sans-serif" font-size="13" lengthAdjust="spacing" textLength="113" x="764" y="2472.6016">10ms&#21608;&#26399;&#12391;&#12398;&#21046;&#24481;</text><rect fill="#EEEEEE" height="3" style="stroke:#EEEEEE;stroke-width:1.0;" width="1525" x="0" y="2523.499"/><line style="stroke:#000000;stroke-width:1.0;" x1="0" x2="1525" y1="2523.499" y2="2523.499"/><line style="stroke:#000000;stroke-width:1.0;" x1="0" x2="1525" y1="2526.499" y2="2526.499"/><rect fill="#EEEEEE" height="23.3105" style="stroke:#000000;stroke-width:2.0;" width="70" x="727.5" y="2512.8438"/><text fill="#000000" font-family="sans-serif" font-size="13" font-weight="bold" lengthAdjust="spacing" textLength="52" x="733.5" y="2529.4121">&#20572;&#27490;&#20966;&#29702;</text><polygon fill="#181818" points="953.5,2563.4648,963.5,2567.4648,953.5,2571.4648,957.5,2567.4648" style="stroke:#181818;stroke-width:1.0;"/><line style="stroke:#181818;stroke-width:1.0;" x1="663.5" x2="959.5" y1="2567.4648" y2="2567.4648"/><text fill="#000000" font-family="sans-serif" font-size="13" lengthAdjust="spacing" textLength="181" x="670.5" y="2562.7227">getMotorControllerInstance()</text><polygon fill="#181818" points="674.5,2592.7754,664.5,2596.7754,674.5,2600.7754,670.5,2596.7754" style="stroke:#181818;stroke-width:1.0;"/><line style="stroke:#181818;stroke-width:1.0;stroke-dasharray:2.0,2.0;" x1="668.5" x2="964.5" y1="2596.7754" y2="2596.7754"/><text fill="#000000" font-family="sans-serif" font-size="13" lengthAdjust="spacing" textLength="109" x="680.5" y="2592.0332">MotorController&amp;</text><polygon fill="#181818" points="1053.5,2625.0859,1063.5,2629.0859,1053.5,2633.0859,1057.5,2629.0859" style="stroke:#181818;stroke-width:1.0;"/><line style="stroke:#181818;stroke-width:1.0;" x1="663.5" x2="1059.5" y1="2629.0859" y2="2629.0859"/><text fill="#000000" font-family="sans-serif" font-size="13" lengthAdjust="spacing" textLength="124" x="670.5" y="2624.3438">brakeWheelsMotor()</text><path d="M1070,2609.7754 L1070,2634.7754 L1234,2634.7754 L1234,2619.7754 L1224,2609.7754 L1070,2609.7754 " fill="#FEFFDD" style="stroke:#181818;stroke-width:0.5;"/><path d="M1224,2609.7754 L1224,2619.7754 L1234,2619.7754 L1224,2609.7754 " fill="#FEFFDD" style="stroke:#181818;stroke-width:0.5;"/><text fill="#000000" font-family="sans-serif" font-size="13" lengthAdjust="spacing" textLength="143" x="1076" y="2627.3438">&#12502;&#12524;&#12540;&#12461;&#12391;&#12514;&#12540;&#12479;&#12540;&#20572;&#27490;</text><rect fill="#EEEEEE" height="3" style="stroke:#EEEEEE;stroke-width:1.0;" width="1525" x="0" y="2667.7412"/><line style="stroke:#000000;stroke-width:1.0;" x1="0" x2="1525" y1="2667.7412" y2="2667.7412"/><line style="stroke:#000000;stroke-width:1.0;" x1="0" x2="1525" y1="2670.7412" y2="2670.7412"/><rect fill="#EEEEEE" height="23.3105" style="stroke:#000000;stroke-width:2.0;" width="70" x="727.5" y="2657.0859"/><text fill="#000000" font-family="sans-serif" font-size="13" font-weight="bold" lengthAdjust="spacing" textLength="52" x="733.5" y="2673.6543">&#20966;&#29702;&#23436;&#20102;</text><path d="M5,2695.3965 L5,2735.3965 L195,2735.3965 L195,2705.3965 L185,2695.3965 L5,2695.3965 " fill="#FEFFDD" style="stroke:#181818;stroke-width:0.5;"/><path d="M185,2695.3965 L185,2705.3965 L195,2705.3965 L185,2695.3965 " fill="#FEFFDD" style="stroke:#181818;stroke-width:0.5;"/><text fill="#000000" font-family="sans-serif" font-size="13" lengthAdjust="spacing" textLength="169" x="11" y="2712.9648">&#36317;&#38626;&#25351;&#23450;&#12521;&#12452;&#12531;&#12488;&#12524;&#12540;&#12473;&#23436;&#20102;</text><text fill="#000000" font-family="sans-serif" font-size="13" lengthAdjust="spacing" textLength="83" x="11" y="2728.2754">&#27425;&#12398;Motion&#12408;</text><!--SRC=[jLVTJzjM57_tNt7LXohPGWUlqOB4mZGX4GarLVUI5vDSKWltEhATTeyutaeOgTPj1KO1PI04T8MqeuDsMKUb_IiN9-I_sFtmnxLZPtcP7nBRvzpV-RZdT-wngPWg13VlzWOx1xtMgjDvWUsNk768xRVORcBx5DiVSEDFPttZ-kzTR6zW-uoyAQ7Kh6AOCYh3UGN1UxfSXcb9gicwgPILcenCS6j6Xt91DaoeVrP21SrKDBGWwmRKRm7P03E5iFOG7DEQdRyNLhkhBMec4x6xi90OqVIyXanTKrNNJY4VribhggON8J8qBiyNm_85fSBUBypDXWN56eILlAoMwwfikekB4V22eaAvobrtxoKfbmDESw-tstPQco2NasOAO6AQHfO523u6Gu6dT1fP1fYoNeMc9_QUcHlUmnUwKdrW8cWO6L1JAb_92afBSjbK7iacPCb36hbXMa1RuaR3k5dGt-dqJhPv1PIGOCKJ3LRQJlV84mKs_QKVzfZSzI1BSuSRvxo8UFoTzir-Qx2vxXolHrAWrr6AL0wvfw_8IfuLiWqf5-_ESisFxiwo8jp7v448d-uWDNxTNNVMdlRszg__kdIQXwJ2gGkkGUQ3OXIWkQ13KZeLXTOfyIWnSImrO1fC0cojO-lGoukNK2vg_8Hj2pUEiMtZncj9abKpv0XHw7LNiDN6rWQsViFMjn8Wb-YL3iswZa3AMJtgFtlIlsXSTv-acLRWMzWf4Yprweh1lXvox7CkxZY__k4yQqfGDM2IJziICqG0UzrDfx7DVQ1vYtfPqo6X04obHGdZPXOGun5ApY7kYwlEzC24XnLHlYr25l8CxowDsjMh8zF5AUG349ON9enPFW-NHgzMYSBmOaxbB2Yxz8VkcrHWB1CiTL6vIW2j8CNVYyWs-YN66yNDnHj25yv8iYat9xyCMkV-Zk362Qkgzq4nnwP-pg3HVbcf9cHRyUL9tlYMSEE2i_dcfDdlR97kxxmxygLPC36L0SuFRuKtKsdVNzu-dEQbSxNFgodYSZ7FEH_fiE4-o8Gy3f_XfFtwIOazj9XDRB-YZ_QMPrRLj1heNsxtBryC5_vWysUcH2__XXWGzSE9ZpA2THDQnGggoxIRY6qbic1SeenBbd494otxSbtN8UBAGVcFoPy4iFaGbSQYqv0RcI4mmMIKOAvgY6EXROmfyH3LX8wTBI5vqKX58C54YCLfC9sB7ASbHBjvOmqioRIzKlP-V8wjBMmTyGu-x1Kz6iGp65kldEQRWVNSr_1zrnv1tQMcLzGHLDRKasex11Xwe6TqkzlRFULavJGN2pn2Lt_dWl9Qq1v3NQW8UXM5gbYK3QxD5FyJsA-qSN2fyZ1iD48o4F2EC3AyW9B2g1X3nnXA2Wjknq7dYvoIS4c5vKX3e5U-A1nZlb8S4fkJ_5pHOIdG3sCIpG2K3XGAgjwNrJfCJbNSwCCNiXo3N0W7V08WEKEAIXMDp3ws3rXN_aX-dTMky_rE_3R4dOfhJmShvxtjHXOybBz9qHtddlppUyYp39XCbv1prVAr5JHQEzdZq2Jcbos9FLp7f2E8c8aGgbUXBe9ViU3JP82HAMILd533j5iROk_d90hYI8zO5M6UxtbwTFku-gxtiftW3qk1eK9OIqrDFZJI2HjEnWOYTNuy8JCGjexfgCgY3BeRgaZUltVoEzPkx-mWTa3zdyRGHLrUXby_WAJNCjNKy5IExKrl2ZcZaOWRn_oLM0WLACuomXFzTX4UwPSS-uvYKJgT5cdvDDRWK9WfPCVuY6SBIwXtkazoop_9iVLU-XS0]--></g></svg>