<?xml version="1.0" encoding="us-ascii" standalone="no"?><svg xmlns="http://www.w3.org/2000/svg" xmlns:xlink="http://www.w3.org/1999/xlink" contentStyleType="text/css" height="1826px" preserveAspectRatio="none" style="width:1796px;height:1826px;background:#FFFFFF;" version="1.1" viewBox="0 0 1796 1826" width="1796px" zoomAndPan="magnify"><defs/><g><text fill="#000000" font-family="sans-serif" font-size="14" font-weight="bold" lengthAdjust="spacing" textLength="191" x="798.5" y="28.5352">&#37197;&#32622;&#12456;&#12522;&#12450;B&#25915;&#30053;&#12471;&#12540;&#12465;&#12531;&#12473;&#22259;</text><text fill="#000000" font-family="sans-serif" font-size="14" font-weight="bold" lengthAdjust="spacing" textLength="306" x="741" y="45.0234">(DoubleLoop&#12456;&#12522;&#12450;&#20869;&#12503;&#12521;&#12524;&#12540;&#12523;&#25774;&#24433;&#12471;&#12473;&#12486;&#12512;)</text><rect fill="#FFFFFF" height="569.2344" style="stroke:#181818;stroke-width:1.0;" width="10" x="616" y="970.4707"/><rect fill="#FFFFFF" height="198.4844" style="stroke:#181818;stroke-width:1.0;" width="10" x="780" y="699.3652"/><rect fill="none" height="307.75" style="stroke:#000000;stroke-width:1.5;" width="896.5" x="535.5" y="1115.7129"/><rect fill="none" height="116.8867" style="stroke:#000000;stroke-width:1.5;" width="205.5" x="545.5" y="1299.5762"/><line style="stroke:#181818;stroke-width:0.5;stroke-dasharray:5.0,5.0;" x1="36" x2="36" y1="135.4648" y2="1745.5684"/><line style="stroke:#181818;stroke-width:0.5;stroke-dasharray:5.0,5.0;" x1="139" x2="139" y1="135.4648" y2="1745.5684"/><line style="stroke:#181818;stroke-width:0.5;stroke-dasharray:5.0,5.0;" x1="268" x2="268" y1="135.4648" y2="1745.5684"/><line style="stroke:#181818;stroke-width:0.5;stroke-dasharray:5.0,5.0;" x1="492.5" x2="492.5" y1="135.4648" y2="1745.5684"/><line style="stroke:#181818;stroke-width:0.5;stroke-dasharray:5.0,5.0;" x1="620.5" x2="620.5" y1="135.4648" y2="1745.5684"/><line style="stroke:#181818;stroke-width:0.5;stroke-dasharray:5.0,5.0;" x1="784.5" x2="784.5" y1="135.4648" y2="1745.5684"/><line style="stroke:#181818;stroke-width:0.5;stroke-dasharray:5.0,5.0;" x1="935.5" x2="935.5" y1="135.4648" y2="1745.5684"/><line style="stroke:#181818;stroke-width:0.5;stroke-dasharray:5.0,5.0;" x1="1113.5" x2="1113.5" y1="135.4648" y2="1745.5684"/><line style="stroke:#181818;stroke-width:0.5;stroke-dasharray:5.0,5.0;" x1="1258.5" x2="1258.5" y1="135.4648" y2="1745.5684"/><line style="stroke:#181818;stroke-width:0.5;stroke-dasharray:5.0,5.0;" x1="1361" x2="1361" y1="135.4648" y2="1745.5684"/><line style="stroke:#181818;stroke-width:0.5;stroke-dasharray:5.0,5.0;" x1="1494" x2="1494" y1="135.4648" y2="1745.5684"/><line style="stroke:#181818;stroke-width:0.5;stroke-dasharray:5.0,5.0;" x1="1611" x2="1611" y1="135.4648" y2="1745.5684"/><line style="stroke:#181818;stroke-width:0.5;stroke-dasharray:5.0,5.0;" x1="1724" x2="1724" y1="135.4648" y2="1745.5684"/><text fill="#000000" font-family="sans-serif" font-size="14" lengthAdjust="spacing" textLength="56" x="5" y="132.5117">&#31478;&#25216;&#38283;&#22987;</text><ellipse cx="36" cy="67.4766" fill="#E2E2F0" rx="8" ry="8" style="stroke:#181818;stroke-width:0.5;"/><path d="M36,75.4766 L36,102.4766 M23,83.4766 L49,83.4766 M36,102.4766 L23,117.4766 M36,102.4766 L49,117.4766 " fill="none" style="stroke:#181818;stroke-width:0.5;"/><text fill="#000000" font-family="sans-serif" font-size="14" lengthAdjust="spacing" textLength="56" x="5" y="1758.1035">&#31478;&#25216;&#38283;&#22987;</text><ellipse cx="36" cy="1769.5566" fill="#E2E2F0" rx="8" ry="8" style="stroke:#181818;stroke-width:0.5;"/><path d="M36,1777.5566 L36,1804.5566 M23,1785.5566 L49,1785.5566 M36,1804.5566 L23,1819.5566 M36,1804.5566 L49,1819.5566 " fill="none" style="stroke:#181818;stroke-width:0.5;"/><rect fill="#E2E2F0" height="30.4883" rx="2.5" ry="2.5" style="stroke:#181818;stroke-width:0.5;" width="124" x="77" y="103.9766"/><text fill="#000000" font-family="sans-serif" font-size="14" lengthAdjust="spacing" textLength="110" x="84" y="124.5117">EtRobocon2025</text><rect fill="#E2E2F0" height="30.4883" rx="2.5" ry="2.5" style="stroke:#181818;stroke-width:0.5;" width="124" x="77" y="1744.5684"/><text fill="#000000" font-family="sans-serif" font-size="14" lengthAdjust="spacing" textLength="110" x="84" y="1765.1035">EtRobocon2025</text><rect fill="#E2E2F0" height="30.4883" rx="2.5" ry="2.5" style="stroke:#181818;stroke-width:0.5;" width="92" x="222" y="103.9766"/><text fill="#000000" font-family="sans-serif" font-size="14" lengthAdjust="spacing" textLength="78" x="229" y="124.5117">AreaMaster</text><rect fill="#E2E2F0" height="30.4883" rx="2.5" ry="2.5" style="stroke:#181818;stroke-width:0.5;" width="92" x="222" y="1744.5684"/><text fill="#000000" font-family="sans-serif" font-size="14" lengthAdjust="spacing" textLength="78" x="229" y="1765.1035">AreaMaster</text><rect fill="#E2E2F0" height="30.4883" rx="2.5" ry="2.5" style="stroke:#181818;stroke-width:0.5;" width="105" x="440.5" y="103.9766"/><text fill="#000000" font-family="sans-serif" font-size="14" lengthAdjust="spacing" textLength="91" x="447.5" y="124.5117">MotionParser</text><rect fill="#E2E2F0" height="30.4883" rx="2.5" ry="2.5" style="stroke:#181818;stroke-width:0.5;" width="105" x="440.5" y="1744.5684"/><text fill="#000000" font-family="sans-serif" font-size="14" lengthAdjust="spacing" textLength="91" x="447.5" y="1765.1035">MotionParser</text><rect fill="#E2E2F0" height="30.4883" rx="2.5" ry="2.5" style="stroke:#181818;stroke-width:0.5;" width="131" x="555.5" y="103.9766"/><text fill="#000000" font-family="sans-serif" font-size="14" lengthAdjust="spacing" textLength="117" x="562.5" y="124.5117">PlaCameraAction</text><rect fill="#E2E2F0" height="30.4883" rx="2.5" ry="2.5" style="stroke:#181818;stroke-width:0.5;" width="131" x="555.5" y="1744.5684"/><text fill="#000000" font-family="sans-serif" font-size="14" lengthAdjust="spacing" textLength="117" x="562.5" y="1765.1035">PlaCameraAction</text><rect fill="#E2E2F0" height="30.4883" rx="2.5" ry="2.5" style="stroke:#181818;stroke-width:0.5;" width="161" x="704.5" y="103.9766"/><text fill="#000000" font-family="sans-serif" font-size="14" lengthAdjust="spacing" textLength="147" x="711.5" y="124.5117">MiniFigCameraAction</text><rect fill="#E2E2F0" height="30.4883" rx="2.5" ry="2.5" style="stroke:#181818;stroke-width:0.5;" width="161" x="704.5" y="1744.5684"/><text fill="#000000" font-family="sans-serif" font-size="14" lengthAdjust="spacing" textLength="147" x="711.5" y="1765.1035">MiniFigCameraAction</text><rect fill="#E2E2F0" height="30.4883" rx="2.5" ry="2.5" style="stroke:#181818;stroke-width:0.5;" width="120" x="875.5" y="103.9766"/><text fill="#000000" font-family="sans-serif" font-size="14" lengthAdjust="spacing" textLength="106" x="882.5" y="124.5117">MotionDetector</text><rect fill="#E2E2F0" height="30.4883" rx="2.5" ry="2.5" style="stroke:#181818;stroke-width:0.5;" width="120" x="875.5" y="1744.5684"/><text fill="#000000" font-family="sans-serif" font-size="14" lengthAdjust="spacing" textLength="106" x="882.5" y="1765.1035">MotionDetector</text><rect fill="#E2E2F0" height="30.4883" rx="2.5" ry="2.5" style="stroke:#181818;stroke-width:0.5;" width="216" x="1005.5" y="103.9766"/><text fill="#000000" font-family="sans-serif" font-size="14" lengthAdjust="spacing" textLength="202" x="1012.5" y="124.5117">BackgroundDirectionDetector</text><rect fill="#E2E2F0" height="30.4883" rx="2.5" ry="2.5" style="stroke:#181818;stroke-width:0.5;" width="216" x="1005.5" y="1744.5684"/><text fill="#000000" font-family="sans-serif" font-size="14" lengthAdjust="spacing" textLength="202" x="1012.5" y="1765.1035">BackgroundDirectionDetector</text><rect fill="#E2E2F0" height="30.4883" rx="2.5" ry="2.5" style="stroke:#181818;stroke-width:0.5;" width="55" x="1231.5" y="103.9766"/><text fill="#000000" font-family="sans-serif" font-size="14" lengthAdjust="spacing" textLength="41" x="1238.5" y="124.5117">Robot</text><rect fill="#E2E2F0" height="30.4883" rx="2.5" ry="2.5" style="stroke:#181818;stroke-width:0.5;" width="55" x="1231.5" y="1744.5684"/><text fill="#000000" font-family="sans-serif" font-size="14" lengthAdjust="spacing" textLength="41" x="1238.5" y="1765.1035">Robot</text><rect fill="#E2E2F0" height="30.4883" rx="2.5" ry="2.5" style="stroke:#181818;stroke-width:0.5;" width="122" x="1300" y="103.9766"/><text fill="#000000" font-family="sans-serif" font-size="14" lengthAdjust="spacing" textLength="108" x="1307" y="124.5117">CameraCapture</text><rect fill="#E2E2F0" height="30.4883" rx="2.5" ry="2.5" style="stroke:#181818;stroke-width:0.5;" width="122" x="1300" y="1744.5684"/><text fill="#000000" font-family="sans-serif" font-size="14" lengthAdjust="spacing" textLength="108" x="1307" y="1765.1035">CameraCapture</text><rect fill="#E2E2F0" height="30.4883" rx="2.5" ry="2.5" style="stroke:#181818;stroke-width:0.5;" width="125" x="1432" y="103.9766"/><text fill="#000000" font-family="sans-serif" font-size="14" lengthAdjust="spacing" textLength="111" x="1439" y="124.5117">MotorController</text><rect fill="#E2E2F0" height="30.4883" rx="2.5" ry="2.5" style="stroke:#181818;stroke-width:0.5;" width="125" x="1432" y="1744.5684"/><text fill="#000000" font-family="sans-serif" font-size="14" lengthAdjust="spacing" textLength="111" x="1439" y="1765.1035">MotorController</text><rect fill="#E2E2F0" height="30.4883" rx="2.5" ry="2.5" style="stroke:#181818;stroke-width:0.5;" width="88" x="1567" y="103.9766"/><text fill="#000000" font-family="sans-serif" font-size="14" lengthAdjust="spacing" textLength="74" x="1574" y="124.5117">FrameSave</text><rect fill="#E2E2F0" height="30.4883" rx="2.5" ry="2.5" style="stroke:#181818;stroke-width:0.5;" width="88" x="1567" y="1744.5684"/><text fill="#000000" font-family="sans-serif" font-size="14" lengthAdjust="spacing" textLength="74" x="1574" y="1765.1035">FrameSave</text><rect fill="#E2E2F0" height="30.4883" rx="2.5" ry="2.5" style="stroke:#181818;stroke-width:0.5;" width="119" x="1665" y="103.9766"/><text fill="#000000" font-family="sans-serif" font-size="14" lengthAdjust="spacing" textLength="105" x="1672" y="124.5117">ImageUploader</text><rect fill="#E2E2F0" height="30.4883" rx="2.5" ry="2.5" style="stroke:#181818;stroke-width:0.5;" width="119" x="1665" y="1744.5684"/><text fill="#000000" font-family="sans-serif" font-size="14" lengthAdjust="spacing" textLength="105" x="1672" y="1765.1035">ImageUploader</text><rect fill="#FFFFFF" height="569.2344" style="stroke:#181818;stroke-width:1.0;" width="10" x="616" y="970.4707"/><rect fill="#FFFFFF" height="198.4844" style="stroke:#181818;stroke-width:1.0;" width="10" x="780" y="699.3652"/><rect fill="#EEEEEE" height="3" style="stroke:#EEEEEE;stroke-width:1.0;" width="1789" x="0" y="166.1201"/><line style="stroke:#000000;stroke-width:1.0;" x1="0" x2="1789" y1="166.1201" y2="166.1201"/><line style="stroke:#000000;stroke-width:1.0;" x1="0" x2="1789" y1="169.1201" y2="169.1201"/><rect fill="#EEEEEE" height="23.3105" style="stroke:#000000;stroke-width:2.0;" width="109" x="840" y="155.4648"/><text fill="#000000" font-family="sans-serif" font-size="13" font-weight="bold" lengthAdjust="spacing" textLength="91" x="846" y="172.0332">&#12471;&#12473;&#12486;&#12512;&#21021;&#26399;&#21270;</text><polygon fill="#181818" points="127,206.0859,137,210.0859,127,214.0859,131,210.0859" style="stroke:#181818;stroke-width:1.0;"/><line style="stroke:#181818;stroke-width:1.0;" x1="36" x2="133" y1="210.0859" y2="210.0859"/><text fill="#000000" font-family="sans-serif" font-size="13" lengthAdjust="spacing" textLength="78" x="43" y="205.3438">&#12471;&#12473;&#12486;&#12512;&#38283;&#22987;</text><polygon fill="#181818" points="1247,235.3965,1257,239.3965,1247,243.3965,1251,239.3965" style="stroke:#181818;stroke-width:1.0;"/><line style="stroke:#181818;stroke-width:1.0;" x1="139" x2="1253" y1="239.3965" y2="239.3965"/><text fill="#000000" font-family="sans-serif" font-size="13" lengthAdjust="spacing" textLength="91" x="146" y="234.6543">&#12525;&#12508;&#12483;&#12488;&#21021;&#26399;&#21270;</text><polygon fill="#181818" points="1349,264.707,1359,268.707,1349,272.707,1353,268.707" style="stroke:#181818;stroke-width:1.0;"/><line style="stroke:#181818;stroke-width:1.0;" x1="1259" x2="1355" y1="268.707" y2="268.707"/><text fill="#000000" font-family="sans-serif" font-size="13" lengthAdjust="spacing" textLength="78" x="1266" y="263.9648">&#12459;&#12513;&#12521;&#21021;&#26399;&#21270;</text><polygon fill="#181818" points="1482.5,294.0176,1492.5,298.0176,1482.5,302.0176,1486.5,298.0176" style="stroke:#181818;stroke-width:1.0;"/><line style="stroke:#181818;stroke-width:1.0;" x1="1259" x2="1488.5" y1="298.0176" y2="298.0176"/><text fill="#000000" font-family="sans-serif" font-size="13" lengthAdjust="spacing" textLength="91" x="1266" y="293.2754">&#12514;&#12540;&#12479;&#12540;&#21021;&#26399;&#21270;</text><rect fill="#EEEEEE" height="3" style="stroke:#EEEEEE;stroke-width:1.0;" width="1789" x="0" y="326.6729"/><line style="stroke:#000000;stroke-width:1.0;" x1="0" x2="1789" y1="326.6729" y2="326.6729"/><line style="stroke:#000000;stroke-width:1.0;" x1="0" x2="1789" y1="329.6729" y2="329.6729"/><rect fill="#EEEEEE" height="23.3105" style="stroke:#000000;stroke-width:2.0;" width="164" x="812.5" y="316.0176"/><text fill="#000000" font-family="sans-serif" font-size="13" font-weight="bold" lengthAdjust="spacing" textLength="146" x="818.5" y="332.5859">DoubleLoop&#12456;&#12522;&#12450;&#36914;&#20837;</text><polygon fill="#181818" points="256,366.6387,266,370.6387,256,374.6387,260,370.6387" style="stroke:#181818;stroke-width:1.0;"/><line style="stroke:#181818;stroke-width:1.0;" x1="139" x2="262" y1="370.6387" y2="370.6387"/><text fill="#000000" font-family="sans-serif" font-size="13" lengthAdjust="spacing" textLength="105" x="146" y="365.8965">run(DoubleLoop)</text><line style="stroke:#181818;stroke-width:1.0;" x1="268" x2="310" y1="415.2598" y2="415.2598"/><line style="stroke:#181818;stroke-width:1.0;" x1="310" x2="310" y1="415.2598" y2="428.2598"/><line style="stroke:#181818;stroke-width:1.0;" x1="269" x2="310" y1="428.2598" y2="428.2598"/><polygon fill="#181818" points="279,424.2598,269,428.2598,279,432.2598,275,428.2598" style="stroke:#181818;stroke-width:1.0;"/><text fill="#000000" font-family="sans-serif" font-size="13" lengthAdjust="spacing" textLength="130" x="275" y="395.207">&#12467;&#12510;&#12531;&#12489;&#12501;&#12449;&#12452;&#12523;&#35501;&#36796;</text><text fill="#000000" font-family="sans-serif" font-size="13" lengthAdjust="spacing" textLength="173" x="275" y="410.5176">(DoubleLoopLeft/Right.csv)</text><polygon fill="#181818" points="481,453.5703,491,457.5703,481,461.5703,485,457.5703" style="stroke:#181818;stroke-width:1.0;"/><line style="stroke:#181818;stroke-width:1.0;" x1="268" x2="487" y1="457.5703" y2="457.5703"/><text fill="#000000" font-family="sans-serif" font-size="13" lengthAdjust="spacing" textLength="201" x="275" y="452.8281">createMotions(&#12467;&#12510;&#12531;&#12489;&#12501;&#12449;&#12452;&#12523;)</text><polygon fill="#181818" points="279,482.8809,269,486.8809,279,490.8809,275,486.8809" style="stroke:#181818;stroke-width:1.0;"/><line style="stroke:#181818;stroke-width:1.0;stroke-dasharray:2.0,2.0;" x1="273" x2="492" y1="486.8809" y2="486.8809"/><text fill="#000000" font-family="sans-serif" font-size="13" lengthAdjust="spacing" textLength="135" x="285" y="482.1387">Motion&#12458;&#12502;&#12472;&#12455;&#12463;&#12488;&#32676;</text><rect fill="#EEEEEE" height="3" style="stroke:#EEEEEE;stroke-width:1.0;" width="1789" x="0" y="515.5361"/><line style="stroke:#000000;stroke-width:1.0;" x1="0" x2="1789" y1="515.5361" y2="515.5361"/><line style="stroke:#000000;stroke-width:1.0;" x1="0" x2="1789" y1="518.5361" y2="518.5361"/><rect fill="#EEEEEE" height="23.3105" style="stroke:#000000;stroke-width:2.0;" width="190" x="799.5" y="504.8809"/><text fill="#000000" font-family="sans-serif" font-size="13" font-weight="bold" lengthAdjust="spacing" textLength="172" x="805.5" y="521.4492">DoubleLoop&#12456;&#12522;&#12450;&#21205;&#20316;&#23455;&#34892;</text><path d="M113,543.1914 L113,629.1914 L423,629.1914 L423,553.1914 L413,543.1914 L113,543.1914 " fill="#FEFFDD" style="stroke:#181818;stroke-width:0.5;"/><path d="M413,543.1914 L413,553.1914 L423,553.1914 L413,543.1914 " fill="#FEFFDD" style="stroke:#181818;stroke-width:0.5;"/><text fill="#000000" font-family="sans-serif" font-size="13" lengthAdjust="spacing" textLength="289" x="119" y="560.7598">DoubleLoop&#12456;&#12522;&#12450;&#20869;&#12391;&#35079;&#25968;&#12398;Motion&#12434;&#38918;&#27425;&#23455;&#34892;</text><text fill="#000000" font-family="sans-serif" font-size="13" lengthAdjust="spacing" textLength="130" x="119" y="576.0703">&#12539;&#12521;&#12452;&#12531;&#12488;&#12524;&#12540;&#12473;&#21205;&#20316;</text><text fill="#000000" font-family="sans-serif" font-size="13" lengthAdjust="spacing" textLength="259" x="119" y="591.3809">&#12539;&#37197;&#32622;&#12456;&#12522;&#12450;A&#25915;&#30053; (MiniFigCameraAction)</text><text fill="#000000" font-family="sans-serif" font-size="13" lengthAdjust="spacing" textLength="229" x="119" y="606.6914">&#12539;&#37197;&#32622;&#12456;&#12522;&#12450;B&#25915;&#30053; (PlaCameraAction)</text><text fill="#000000" font-family="sans-serif" font-size="13" lengthAdjust="spacing" textLength="117" x="119" y="622.002">&#12539;&#12381;&#12398;&#20182;&#12398;&#36208;&#34892;&#21205;&#20316;</text><rect fill="#EEEEEE" height="3" style="stroke:#EEEEEE;stroke-width:1.0;" width="1789" x="0" y="655.3994"/><line style="stroke:#000000;stroke-width:1.0;" x1="0" x2="1789" y1="655.3994" y2="655.3994"/><line style="stroke:#000000;stroke-width:1.0;" x1="0" x2="1789" y1="658.3994" y2="658.3994"/><rect fill="#EEEEEE" height="23.3105" style="stroke:#000000;stroke-width:2.0;" width="224" x="782.5" y="644.7441"/><text fill="#000000" font-family="sans-serif" font-size="13" font-weight="bold" lengthAdjust="spacing" textLength="206" x="788.5" y="661.3125">&#37197;&#32622;&#12456;&#12522;&#12450;A&#25915;&#30053; (&#12511;&#12491;&#12501;&#12451;&#12464;&#25774;&#24433;)</text><polygon fill="#181818" points="768,695.3652,778,699.3652,768,703.3652,772,699.3652" style="stroke:#181818;stroke-width:1.0;"/><line style="stroke:#181818;stroke-width:1.0;" x1="268" x2="774" y1="699.3652" y2="699.3652"/><text fill="#000000" font-family="sans-serif" font-size="13" lengthAdjust="spacing" textLength="29" x="275" y="694.623">run()</text><path d="M696,712.3652 L696,783.3652 L873,783.3652 L873,722.3652 L863,712.3652 L696,712.3652 " fill="#FEFFDD" style="stroke:#181818;stroke-width:0.5;"/><path d="M863,712.3652 L863,722.3652 L873,722.3652 L863,712.3652 " fill="#FEFFDD" style="stroke:#181818;stroke-width:0.5;"/><text fill="#000000" font-family="sans-serif" font-size="13" lengthAdjust="spacing" textLength="156" x="702" y="729.9336">&#12511;&#12491;&#12501;&#12451;&#12464;&#25774;&#24433;&#12471;&#12540;&#12465;&#12531;&#12473;</text><text fill="#000000" font-family="sans-serif" font-size="13" lengthAdjust="spacing" textLength="65" x="702" y="745.2441">&#12539;&#20301;&#32622;&#35519;&#25972;</text><text fill="#000000" font-family="sans-serif" font-size="13" lengthAdjust="spacing" textLength="65" x="702" y="760.5547">&#12539;&#26041;&#21521;&#26908;&#20986;</text><text fill="#000000" font-family="sans-serif" font-size="13" lengthAdjust="spacing" textLength="130" x="702" y="775.8652">&#12539;&#25774;&#24433;&#12539;&#12450;&#12483;&#12503;&#12525;&#12540;&#12489;</text><polygon fill="#181818" points="1247,805.918,1257,809.918,1247,813.918,1251,809.918" style="stroke:#181818;stroke-width:1.0;"/><line style="stroke:#181818;stroke-width:1.0;" x1="790" x2="1253" y1="809.918" y2="809.918"/><text fill="#000000" font-family="sans-serif" font-size="13" lengthAdjust="spacing" textLength="130" x="797" y="805.1758">&#25774;&#24433;&#20301;&#32622;&#12408;&#31227;&#21205;&#12539;&#35519;&#25972;</text><polygon fill="#181818" points="1349,835.2285,1359,839.2285,1349,843.2285,1353,839.2285" style="stroke:#181818;stroke-width:1.0;"/><line style="stroke:#181818;stroke-width:1.0;" x1="790" x2="1355" y1="839.2285" y2="839.2285"/><text fill="#000000" font-family="sans-serif" font-size="13" lengthAdjust="spacing" textLength="66" x="797" y="834.4863">getFrame()</text><polygon fill="#181818" points="1599,864.5391,1609,868.5391,1599,872.5391,1603,868.5391" style="stroke:#181818;stroke-width:1.0;"/><line style="stroke:#181818;stroke-width:1.0;" x1="790" x2="1605" y1="868.5391" y2="868.5391"/><text fill="#000000" font-family="sans-serif" font-size="13" lengthAdjust="spacing" textLength="182" x="797" y="863.7969">save(&#12501;&#12524;&#12540;&#12512;, "minifig.JPEG")</text><polygon fill="#181818" points="1712.5,893.8496,1722.5,897.8496,1712.5,901.8496,1716.5,897.8496" style="stroke:#181818;stroke-width:1.0;"/><line style="stroke:#181818;stroke-width:1.0;" x1="785" x2="1718.5" y1="897.8496" y2="897.8496"/><text fill="#000000" font-family="sans-serif" font-size="13" lengthAdjust="spacing" textLength="137" x="792" y="893.1074">upload("minifig.JPEG")</text><rect fill="#EEEEEE" height="3" style="stroke:#EEEEEE;stroke-width:1.0;" width="1789" x="0" y="926.5049"/><line style="stroke:#000000;stroke-width:1.0;" x1="0" x2="1789" y1="926.5049" y2="926.5049"/><line style="stroke:#000000;stroke-width:1.0;" x1="0" x2="1789" y1="929.5049" y2="929.5049"/><rect fill="#EEEEEE" height="23.3105" style="stroke:#000000;stroke-width:2.0;" width="222" x="783.5" y="915.8496"/><text fill="#000000" font-family="sans-serif" font-size="13" font-weight="bold" lengthAdjust="spacing" textLength="204" x="789.5" y="932.418">&#37197;&#32622;&#12456;&#12522;&#12450;B&#25915;&#30053; (&#12503;&#12521;&#12524;&#12540;&#12523;&#25774;&#24433;)</text><polygon fill="#181818" points="604,966.4707,614,970.4707,604,974.4707,608,970.4707" style="stroke:#181818;stroke-width:1.0;"/><line style="stroke:#181818;stroke-width:1.0;" x1="268" x2="610" y1="970.4707" y2="970.4707"/><text fill="#000000" font-family="sans-serif" font-size="13" lengthAdjust="spacing" textLength="29" x="275" y="965.7285">run()</text><line style="stroke:#181818;stroke-width:1.0;" x1="626" x2="668" y1="999.7813" y2="999.7813"/><line style="stroke:#181818;stroke-width:1.0;" x1="668" x2="668" y1="999.7813" y2="1012.7813"/><line style="stroke:#181818;stroke-width:1.0;" x1="627" x2="668" y1="1012.7813" y2="1012.7813"/><polygon fill="#181818" points="637,1008.7813,627,1012.7813,637,1016.7813,633,1012.7813" style="stroke:#181818;stroke-width:1.0;"/><text fill="#000000" font-family="sans-serif" font-size="13" lengthAdjust="spacing" textLength="140" x="633" y="995.0391">getBackgroundFrame()</text><polygon fill="#181818" points="1349,1038.0918,1359,1042.0918,1349,1046.0918,1353,1042.0918" style="stroke:#181818;stroke-width:1.0;"/><line style="stroke:#181818;stroke-width:1.0;" x1="626" x2="1355" y1="1042.0918" y2="1042.0918"/><text fill="#000000" font-family="sans-serif" font-size="13" lengthAdjust="spacing" textLength="66" x="633" y="1037.3496">getFrame()</text><polygon fill="#181818" points="637,1067.4023,627,1071.4023,637,1075.4023,633,1071.4023" style="stroke:#181818;stroke-width:1.0;"/><line style="stroke:#181818;stroke-width:1.0;stroke-dasharray:2.0,2.0;" x1="631" x2="1360" y1="1071.4023" y2="1071.4023"/><text fill="#000000" font-family="sans-serif" font-size="13" lengthAdjust="spacing" textLength="78" x="643" y="1066.6602">&#32972;&#26223;&#12501;&#12524;&#12540;&#12512;</text><polygon fill="#181818" points="923.5,1096.7129,933.5,1100.7129,923.5,1104.7129,927.5,1100.7129" style="stroke:#181818;stroke-width:1.0;"/><line style="stroke:#181818;stroke-width:1.0;" x1="626" x2="929.5" y1="1100.7129" y2="1100.7129"/><text fill="#000000" font-family="sans-serif" font-size="13" lengthAdjust="spacing" textLength="179" x="633" y="1095.9707">setBackground(&#32972;&#26223;&#12501;&#12524;&#12540;&#12512;)</text><path d="M535.5,1115.7129 L609.5,1115.7129 L609.5,1123.0234 L599.5,1133.0234 L535.5,1133.0234 L535.5,1115.7129 " fill="#EEEEEE" style="stroke:#000000;stroke-width:1.5;"/><rect fill="none" height="307.75" style="stroke:#000000;stroke-width:1.5;" width="896.5" x="535.5" y="1115.7129"/><text fill="#000000" font-family="sans-serif" font-size="13" font-weight="bold" lengthAdjust="spacing" textLength="29" x="550.5" y="1129.2813">loop</text><text fill="#000000" font-family="sans-serif" font-size="11" font-weight="bold" lengthAdjust="spacing" textLength="232" x="624.5" y="1128.3477">[&#21205;&#20307;&#26908;&#20986;&#12523;&#12540;&#12503; (MAX_NO_MOTION&#22238;&#12414;&#12391;)]</text><polygon fill="#181818" points="1349,1150.334,1359,1154.334,1349,1158.334,1353,1154.334" style="stroke:#181818;stroke-width:1.0;"/><line style="stroke:#181818;stroke-width:1.0;" x1="626" x2="1355" y1="1154.334" y2="1154.334"/><text fill="#000000" font-family="sans-serif" font-size="13" lengthAdjust="spacing" textLength="66" x="633" y="1149.5918">getFrame()</text><polygon fill="#181818" points="637,1179.6445,627,1183.6445,637,1187.6445,633,1183.6445" style="stroke:#181818;stroke-width:1.0;"/><line style="stroke:#181818;stroke-width:1.0;stroke-dasharray:2.0,2.0;" x1="631" x2="1360" y1="1183.6445" y2="1183.6445"/><text fill="#000000" font-family="sans-serif" font-size="13" lengthAdjust="spacing" textLength="78" x="643" y="1178.9023">&#29694;&#22312;&#12501;&#12524;&#12540;&#12512;</text><polygon fill="#181818" points="923.5,1208.9551,933.5,1212.9551,923.5,1216.9551,927.5,1212.9551" style="stroke:#181818;stroke-width:1.0;"/><line style="stroke:#181818;stroke-width:1.0;" x1="626" x2="929.5" y1="1212.9551" y2="1212.9551"/><text fill="#000000" font-family="sans-serif" font-size="13" lengthAdjust="spacing" textLength="125" x="633" y="1208.2129">detect(&#29694;&#22312;&#12501;&#12524;&#12540;&#12512;)</text><line style="stroke:#181818;stroke-width:1.0;" x1="935.5" x2="977.5" y1="1242.2656" y2="1242.2656"/><line style="stroke:#181818;stroke-width:1.0;" x1="977.5" x2="977.5" y1="1242.2656" y2="1255.2656"/><line style="stroke:#181818;stroke-width:1.0;" x1="936.5" x2="977.5" y1="1255.2656" y2="1255.2656"/><polygon fill="#181818" points="946.5,1251.2656,936.5,1255.2656,946.5,1259.2656,942.5,1255.2656" style="stroke:#181818;stroke-width:1.0;"/><text fill="#000000" font-family="sans-serif" font-size="13" lengthAdjust="spacing" textLength="133" x="942.5" y="1237.5234">compareTwoFrames()</text><polygon fill="#181818" points="637,1280.5762,627,1284.5762,637,1288.5762,633,1284.5762" style="stroke:#181818;stroke-width:1.0;"/><line style="stroke:#181818;stroke-width:1.0;stroke-dasharray:2.0,2.0;" x1="631" x2="934.5" y1="1284.5762" y2="1284.5762"/><text fill="#000000" font-family="sans-serif" font-size="13" lengthAdjust="spacing" textLength="52" x="643" y="1279.834">&#26908;&#20986;&#32080;&#26524;</text><path d="M545.5,1299.5762 L607.5,1299.5762 L607.5,1306.8867 L597.5,1316.8867 L545.5,1316.8867 L545.5,1299.5762 " fill="#EEEEEE" style="stroke:#000000;stroke-width:1.5;"/><rect fill="none" height="116.8867" style="stroke:#000000;stroke-width:1.5;" width="205.5" x="545.5" y="1299.5762"/><text fill="#000000" font-family="sans-serif" font-size="13" font-weight="bold" lengthAdjust="spacing" textLength="17" x="560.5" y="1313.1445">alt</text><text fill="#000000" font-family="sans-serif" font-size="11" font-weight="bold" lengthAdjust="spacing" textLength="74" x="622.5" y="1312.2109">[&#21205;&#20307;&#26908;&#20986;&#12354;&#12426;]</text><line style="stroke:#181818;stroke-width:1.0;" x1="626" x2="668" y1="1338.1973" y2="1338.1973"/><line style="stroke:#181818;stroke-width:1.0;" x1="668" x2="668" y1="1338.1973" y2="1351.1973"/><line style="stroke:#181818;stroke-width:1.0;" x1="627" x2="668" y1="1351.1973" y2="1351.1973"/><polygon fill="#181818" points="637,1347.1973,627,1351.1973,637,1355.1973,633,1351.1973" style="stroke:#181818;stroke-width:1.0;"/><text fill="#000000" font-family="sans-serif" font-size="13" lengthAdjust="spacing" textLength="99" x="633" y="1333.4551">break (&#26908;&#20986;&#25104;&#21151;)</text><line style="stroke:#000000;stroke-width:1.0;stroke-dasharray:2.0,2.0;" x1="545.5" x2="751" y1="1360.1973" y2="1360.1973"/><text fill="#000000" font-family="sans-serif" font-size="11" font-weight="bold" lengthAdjust="spacing" textLength="74" x="550.5" y="1370.832">[&#21205;&#20307;&#26908;&#20986;&#12394;&#12375;]</text><line style="stroke:#181818;stroke-width:1.0;" x1="626" x2="668" y1="1395.4629" y2="1395.4629"/><line style="stroke:#181818;stroke-width:1.0;" x1="668" x2="668" y1="1395.4629" y2="1408.4629"/><line style="stroke:#181818;stroke-width:1.0;" x1="627" x2="668" y1="1408.4629" y2="1408.4629"/><polygon fill="#181818" points="637,1404.4629,627,1408.4629,637,1412.4629,633,1408.4629" style="stroke:#181818;stroke-width:1.0;"/><text fill="#000000" font-family="sans-serif" font-size="13" lengthAdjust="spacing" textLength="106" x="633" y="1390.7207">continue (&#20877;&#35430;&#34892;)</text><polygon fill="#181818" points="1349,1447.7734,1359,1451.7734,1349,1455.7734,1353,1451.7734" style="stroke:#181818;stroke-width:1.0;"/><line style="stroke:#181818;stroke-width:1.0;" x1="626" x2="1355" y1="1451.7734" y2="1451.7734"/><text fill="#000000" font-family="sans-serif" font-size="13" lengthAdjust="spacing" textLength="66" x="633" y="1447.0313">getFrame()</text><polygon fill="#181818" points="637,1477.084,627,1481.084,637,1485.084,633,1481.084" style="stroke:#181818;stroke-width:1.0;"/><line style="stroke:#181818;stroke-width:1.0;stroke-dasharray:2.0,2.0;" x1="631" x2="1360" y1="1481.084" y2="1481.084"/><text fill="#000000" font-family="sans-serif" font-size="13" lengthAdjust="spacing" textLength="78" x="643" y="1476.3418">&#25774;&#24433;&#12501;&#12524;&#12540;&#12512;</text><polygon fill="#181818" points="1599,1506.3945,1609,1510.3945,1599,1514.3945,1603,1510.3945" style="stroke:#181818;stroke-width:1.0;"/><line style="stroke:#181818;stroke-width:1.0;" x1="626" x2="1605" y1="1510.3945" y2="1510.3945"/><text fill="#000000" font-family="sans-serif" font-size="13" lengthAdjust="spacing" textLength="226" x="633" y="1505.6523">save(&#25774;&#24433;&#12501;&#12524;&#12540;&#12512;, "bestframe.JPEG")</text><polygon fill="#181818" points="1712.5,1535.7051,1722.5,1539.7051,1712.5,1543.7051,1716.5,1539.7051" style="stroke:#181818;stroke-width:1.0;"/><line style="stroke:#181818;stroke-width:1.0;" x1="621" x2="1718.5" y1="1539.7051" y2="1539.7051"/><text fill="#000000" font-family="sans-serif" font-size="13" lengthAdjust="spacing" textLength="155" x="628" y="1534.9629">upload("bestframe.JPEG")</text><path d="M110,1552.7051 L110,1592.7051 L426,1592.7051 L426,1562.7051 L416,1552.7051 L110,1552.7051 " fill="#FEFFDD" style="stroke:#181818;stroke-width:0.5;"/><path d="M416,1552.7051 L416,1562.7051 L426,1562.7051 L416,1552.7051 " fill="#FEFFDD" style="stroke:#181818;stroke-width:0.5;"/><text fill="#000000" font-family="sans-serif" font-size="13" lengthAdjust="spacing" textLength="295" x="116" y="1570.2734">&#39080;&#26223;&#25774;&#24433; (BackgroundCameraAction) &#12399;&#23455;&#35013;&#20104;&#23450;</text><text fill="#000000" font-family="sans-serif" font-size="13" lengthAdjust="spacing" textLength="271" x="116" y="1585.584">&#29694;&#22312;&#12399;DoubleLoop&#12456;&#12522;&#12450;&#20869;&#12398;&#20182;&#12398;&#21205;&#20316;&#12391;&#20195;&#26367;</text><rect fill="#EEEEEE" height="3" style="stroke:#EEEEEE;stroke-width:1.0;" width="1789" x="0" y="1618.9814"/><line style="stroke:#000000;stroke-width:1.0;" x1="0" x2="1789" y1="1618.9814" y2="1618.9814"/><line style="stroke:#000000;stroke-width:1.0;" x1="0" x2="1789" y1="1621.9814" y2="1621.9814"/><rect fill="#EEEEEE" height="23.3105" style="stroke:#000000;stroke-width:2.0;" width="268" x="760.5" y="1608.3262"/><text fill="#000000" font-family="sans-serif" font-size="13" font-weight="bold" lengthAdjust="spacing" textLength="250" x="766.5" y="1624.8945">DoubleLoop&#12456;&#12522;&#12450;&#23436;&#20102;&#12539;&#27425;&#12456;&#12522;&#12450;&#12408;&#31227;&#21205;</text><path d="M145,1646.6367 L145,1671.6367 L390,1671.6367 L390,1656.6367 L380,1646.6367 L145,1646.6367 " fill="#FEFFDD" style="stroke:#181818;stroke-width:0.5;"/><path d="M380,1646.6367 L380,1656.6367 L390,1656.6367 L380,1646.6367 " fill="#FEFFDD" style="stroke:#181818;stroke-width:0.5;"/><text fill="#000000" font-family="sans-serif" font-size="13" lengthAdjust="spacing" textLength="224" x="151" y="1664.2051">DoubleLoop&#12456;&#12522;&#12450;&#20869;&#12398;&#20840;Motion&#23436;&#20102;</text><polygon fill="#181818" points="1247,1694.2578,1257,1698.2578,1247,1702.2578,1251,1698.2578" style="stroke:#181818;stroke-width:1.0;"/><line style="stroke:#181818;stroke-width:1.0;" x1="268" x2="1253" y1="1698.2578" y2="1698.2578"/><text fill="#000000" font-family="sans-serif" font-size="13" lengthAdjust="spacing" textLength="168" x="275" y="1693.5156">&#27425;&#12456;&#12522;&#12450;(SmartCarry)&#12408;&#31227;&#21205;</text><polygon fill="#181818" points="1482.5,1723.5684,1492.5,1727.5684,1482.5,1731.5684,1486.5,1727.5684" style="stroke:#181818;stroke-width:1.0;"/><line style="stroke:#181818;stroke-width:1.0;" x1="1259" x2="1488.5" y1="1727.5684" y2="1727.5684"/><text fill="#000000" font-family="sans-serif" font-size="13" lengthAdjust="spacing" textLength="156" x="1266" y="1722.8262">&#12521;&#12452;&#12531;&#12488;&#12524;&#12540;&#12473;&#21205;&#20316;&#12391;&#31227;&#21205;</text><!--SRC=[bLLTJzjM6BxthpZYof7MRggq6oGcXQHCJ7MnIf5wWLIPSCYi9ZPoJfXsr_WeQGfKOzq0RQH0W0uQQA1ZtGefy6DEx8H_iVDX9tRiI1iILdJUvpplv_CUfACS1BVbLvsh9h6F26uGUs_S_RNLMNzBx7y8_api3mIV4_l2sJgVDUIqMPpBmGUckTY3EvKomPi4loFuX5t0n-xhfdFrWTstBmYk4BoRa2GjWqmBZ7IE_tQNdzzkh3Y7AoD0Au1ff5b8MgGVFQClQWO28_VH8tFEp9Z6lQ_kVSr1YgOROKpIWfgY5H2qE22fXCsAYNJJK3Mhu04KDGnGSrfAoqDBIsOOacFKL7A0HJVq2JqR0IeH87UNXWYoB0Kc7OQCQvbdMSii6lDftOAP27uyFN21rG1n4_yLDegGKjeYAbgGWyH992pJIfa6iinSpYy4Eml39YnwTrfR4aGJqs7hP5xBmfd5dAdDUnIJCv8qDWQ23NQgRzpQZhEw0SR69DvISESRthRH44uqNc861k2PKGH-Jt2DO4nmjSSaSID3YTGOqJ71TJffCHYU5cFQuqDxGxzz58isPd9ld__fbD-oYFruaieei8h1CKz8ISMt4FkSu6qc1_oIu7LYrubzGEUzstZVlVuSKiS3k82-VAHdlqTtCuKbdqHHHq663Yw2Oc0AyZ3AXAIeu8xdLu29tI1uWzYVY7r8x5DQgixrmR3Kd9NrzbNDQUvqwwiiGSD449XBqEA4GrHSEkmUl73NpqYfwRjyVRjRSK_gWcZM8BZ5XCv2f15NFSNJvS3TSVl0CacAPGBa62qbuYwC-nS652h0fFI6HjTkRT1lz-CP3KguvdKOvfhW7O9NU7dtYNqcrbE2bSLhIoefsfvWMqfVeltX4kyNZIDYQGQs90-oVSNYw3PktFM_-86xSU6i_UmUr9mNb-90tANvs7jyx3Uv1EZoV2bHNm5f2AHW9ALFdSCMJPXU5Em-s5T85Y8kPfg9PvcO7WK5AcsPnUqjwDqlm4YUjcD1pzxzJht_xKWFFJap2efSwl8WOXw6QXDJx_5-lMEUWq2zrPXwizqhgI8ARgUfz5UcdvGwD5rnn2N3htVngllRQJ1f_xAIfXK9aijHB7slSbGTW0_NBw9nD1DktAIpd7pozE7KKsNgyUJKGsThcvIkgNWI4g1_mqDari4mEpzTExMZK9W14XRgF7yav2XG42ff7vWnytHlmyS_cDnXGUu3V6yYaSx7DNUxnetye-LGED6IJUnbRWh4mWdcwF9w1cI1SwjhplAEy09p1JX0qY2bpLWI-h0ZtIX283kLLzrtVr0HUoJ6lCJ-_qURVI55szmR_2Y4ZlySBA05nkcFjneLG0GJa00Vr_1IlTqxebCal06vFrwX9GP8wPGjq_ro-xBgD7-VDRp6baw7BMLlsuazHyUitTftjsw6BlxcQlkombRCIRrts5iS__qfQ3hb8_4824PFklvM2f3BqtdwtASqo_enqNCKyp0FVJPeJjwbVm40]--></g></svg>