<?xml version="1.0" encoding="us-ascii" standalone="no"?><svg xmlns="http://www.w3.org/2000/svg" xmlns:xlink="http://www.w3.org/1999/xlink" contentStyleType="text/css" height="1965px" preserveAspectRatio="none" style="width:1516px;height:1965px;background:#FFFFFF;" version="1.1" viewBox="0 0 1516 1965" width="1516px" zoomAndPan="magnify"><defs/><g><text fill="#000000" font-family="sans-serif" font-size="14" font-weight="bold" lengthAdjust="spacing" textLength="261" x="623.75" y="28.5352">&#37197;&#32622;&#12456;&#12522;&#12450;B&#25915;&#30053;&#12471;&#12540;&#12465;&#12531;&#12473;&#22259;&#65288;&#31777;&#26131;&#29256;&#65289;</text><text fill="#000000" font-family="sans-serif" font-size="14" font-weight="bold" lengthAdjust="spacing" textLength="206" x="651.25" y="45.0234">(&#39080;&#26223;&#12539;&#12503;&#12521;&#12524;&#12540;&#12523;&#25774;&#24433;&#12471;&#12473;&#12486;&#12512;)</text><rect fill="#FFFFFF" height="1590.5059" style="stroke:#181818;stroke-width:1.0;" width="10" x="319.5" y="268.707"/><rect fill="#FFFFFF" height="1373.6426" style="stroke:#181818;stroke-width:1.0;" width="10" x="699.5" y="399.9492"/><rect fill="#FFFFFF" height="535.2793" style="stroke:#181818;stroke-width:1.0;" width="10" x="877.5" y="849.2969"/><rect fill="#FFFFFF" height="71.6211" style="stroke:#181818;stroke-width:1.0;" width="10" x="877.5" y="1471.1523"/><rect fill="#FFFFFF" height="32.3105" style="stroke:#181818;stroke-width:1.0;" width="10" x="877.5" y="1587.0391"/><rect fill="none" height="928.6055" style="stroke:#000000;stroke-width:1.5;" width="1449.5" x="30" y="810.6758"/><rect fill="none" height="680.4316" style="stroke:#000000;stroke-width:1.5;" width="1429.5" x="40" y="949.918"/><rect fill="none" height="83.9316" style="stroke:#000000;stroke-width:1.5;" width="869" x="60" y="1062.1602"/><rect fill="none" height="17.3105" style="stroke:#000000;stroke-width:1.5;" width="89" x="70" y="1121.7813"/><rect fill="none" height="232.4844" style="stroke:#000000;stroke-width:1.5;" width="1409.5" x="50" y="1160.0918"/><rect fill="none" height="83.9316" style="stroke:#000000;stroke-width:1.5;" width="869" x="60" y="1272.334"/><rect fill="none" height="17.3105" style="stroke:#000000;stroke-width:1.5;" width="89" x="70" y="1331.9551"/><line style="stroke:#181818;stroke-width:0.5;stroke-dasharray:5.0,5.0;" x1="91" x2="91" y1="135.4648" y2="1884.2129"/><line style="stroke:#181818;stroke-width:0.5;stroke-dasharray:5.0,5.0;" x1="193" x2="193" y1="135.4648" y2="1884.2129"/><line style="stroke:#181818;stroke-width:0.5;stroke-dasharray:5.0,5.0;" x1="324.5" x2="324.5" y1="135.4648" y2="1884.2129"/><line style="stroke:#181818;stroke-width:0.5;stroke-dasharray:5.0,5.0;" x1="554.5" x2="554.5" y1="135.4648" y2="1884.2129"/><line style="stroke:#181818;stroke-width:0.5;stroke-dasharray:5.0,5.0;" x1="704.5" x2="704.5" y1="135.4648" y2="1884.2129"/><line style="stroke:#181818;stroke-width:0.5;stroke-dasharray:5.0,5.0;" x1="882.5" x2="882.5" y1="135.4648" y2="1884.2129"/><line style="stroke:#181818;stroke-width:0.5;stroke-dasharray:5.0,5.0;" x1="1023.5" x2="1023.5" y1="135.4648" y2="1884.2129"/><line style="stroke:#181818;stroke-width:0.5;stroke-dasharray:5.0,5.0;" x1="1131.5" x2="1131.5" y1="135.4648" y2="1884.2129"/><line style="stroke:#181818;stroke-width:0.5;stroke-dasharray:5.0,5.0;" x1="1226.5" x2="1226.5" y1="135.4648" y2="1884.2129"/><line style="stroke:#181818;stroke-width:0.5;stroke-dasharray:5.0,5.0;" x1="1320.5" x2="1320.5" y1="135.4648" y2="1884.2129"/><line style="stroke:#181818;stroke-width:0.5;stroke-dasharray:5.0,5.0;" x1="1414.5" x2="1414.5" y1="135.4648" y2="1884.2129"/><text fill="#000000" font-family="sans-serif" font-size="14" lengthAdjust="spacing" textLength="56" x="60" y="132.5117">&#31478;&#25216;&#38283;&#22987;</text><ellipse cx="91" cy="67.4766" fill="#E2E2F0" rx="8" ry="8" style="stroke:#181818;stroke-width:0.5;"/><path d="M91,75.4766 L91,102.4766 M78,83.4766 L104,83.4766 M91,102.4766 L78,117.4766 M91,102.4766 L104,117.4766 " fill="none" style="stroke:#181818;stroke-width:0.5;"/><text fill="#000000" font-family="sans-serif" font-size="14" lengthAdjust="spacing" textLength="56" x="60" y="1896.748">&#31478;&#25216;&#38283;&#22987;</text><ellipse cx="91" cy="1908.2012" fill="#E2E2F0" rx="8" ry="8" style="stroke:#181818;stroke-width:0.5;"/><path d="M91,1916.2012 L91,1943.2012 M78,1924.2012 L104,1924.2012 M91,1943.2012 L78,1958.2012 M91,1943.2012 L104,1958.2012 " fill="none" style="stroke:#181818;stroke-width:0.5;"/><rect fill="#E2E2F0" height="30.4883" rx="2.5" ry="2.5" style="stroke:#181818;stroke-width:0.5;" width="123" x="132" y="103.9766"/><text fill="#000000" font-family="sans-serif" font-size="14" lengthAdjust="spacing" textLength="109" x="139" y="124.5117">ET&#12525;&#12508;&#12467;&#12531;2025</text><rect fill="#E2E2F0" height="30.4883" rx="2.5" ry="2.5" style="stroke:#181818;stroke-width:0.5;" width="123" x="132" y="1883.2129"/><text fill="#000000" font-family="sans-serif" font-size="14" lengthAdjust="spacing" textLength="109" x="139" y="1903.748">ET&#12525;&#12508;&#12467;&#12531;2025</text><rect fill="#E2E2F0" height="30.4883" rx="2.5" ry="2.5" style="stroke:#181818;stroke-width:0.5;" width="98" x="275.5" y="103.9766"/><text fill="#000000" font-family="sans-serif" font-size="14" lengthAdjust="spacing" textLength="84" x="282.5" y="124.5117">&#25915;&#30053;&#12471;&#12473;&#12486;&#12512;</text><rect fill="#E2E2F0" height="30.4883" rx="2.5" ry="2.5" style="stroke:#181818;stroke-width:0.5;" width="98" x="275.5" y="1883.2129"/><text fill="#000000" font-family="sans-serif" font-size="14" lengthAdjust="spacing" textLength="84" x="282.5" y="1903.748">&#25915;&#30053;&#12471;&#12473;&#12486;&#12512;</text><rect fill="#E2E2F0" height="30.4883" rx="2.5" ry="2.5" style="stroke:#181818;stroke-width:0.5;" width="98" x="505.5" y="103.9766"/><text fill="#000000" font-family="sans-serif" font-size="14" lengthAdjust="spacing" textLength="84" x="512.5" y="124.5117">&#12467;&#12510;&#12531;&#12489;&#35299;&#26512;</text><rect fill="#E2E2F0" height="30.4883" rx="2.5" ry="2.5" style="stroke:#181818;stroke-width:0.5;" width="98" x="505.5" y="1883.2129"/><text fill="#000000" font-family="sans-serif" font-size="14" lengthAdjust="spacing" textLength="84" x="512.5" y="1903.748">&#12467;&#12510;&#12531;&#12489;&#35299;&#26512;</text><rect fill="#E2E2F0" height="30.4883" rx="2.5" ry="2.5" style="stroke:#181818;stroke-width:0.5;" width="182" x="613.5" y="103.9766"/><text fill="#000000" font-family="sans-serif" font-size="14" lengthAdjust="spacing" textLength="168" x="620.5" y="124.5117">&#39080;&#26223;&#12503;&#12521;&#12524;&#12540;&#12523;&#12459;&#12513;&#12521;&#21205;&#20316;</text><rect fill="#E2E2F0" height="30.4883" rx="2.5" ry="2.5" style="stroke:#181818;stroke-width:0.5;" width="182" x="613.5" y="1883.2129"/><text fill="#000000" font-family="sans-serif" font-size="14" lengthAdjust="spacing" textLength="168" x="620.5" y="1903.748">&#39080;&#26223;&#12503;&#12521;&#12524;&#12540;&#12523;&#12459;&#12513;&#12521;&#21205;&#20316;</text><rect fill="#E2E2F0" height="30.4883" rx="2.5" ry="2.5" style="stroke:#181818;stroke-width:0.5;" width="154" x="805.5" y="103.9766"/><text fill="#000000" font-family="sans-serif" font-size="14" lengthAdjust="spacing" textLength="140" x="812.5" y="124.5117">&#12503;&#12521;&#12524;&#12540;&#12523;&#12459;&#12513;&#12521;&#21205;&#20316;</text><rect fill="#E2E2F0" height="30.4883" rx="2.5" ry="2.5" style="stroke:#181818;stroke-width:0.5;" width="154" x="805.5" y="1883.2129"/><text fill="#000000" font-family="sans-serif" font-size="14" lengthAdjust="spacing" textLength="140" x="812.5" y="1903.748">&#12503;&#12521;&#12524;&#12540;&#12523;&#12459;&#12513;&#12521;&#21205;&#20316;</text><rect fill="#E2E2F0" height="30.4883" rx="2.5" ry="2.5" style="stroke:#181818;stroke-width:0.5;" width="98" x="974.5" y="103.9766"/><text fill="#000000" font-family="sans-serif" font-size="14" lengthAdjust="spacing" textLength="84" x="981.5" y="124.5117">&#35282;&#24230;&#25351;&#23450;&#22238;&#38957;</text><rect fill="#E2E2F0" height="30.4883" rx="2.5" ry="2.5" style="stroke:#181818;stroke-width:0.5;" width="98" x="974.5" y="1883.2129"/><text fill="#000000" font-family="sans-serif" font-size="14" lengthAdjust="spacing" textLength="84" x="981.5" y="1903.748">&#35282;&#24230;&#25351;&#23450;&#22238;&#38957;</text><rect fill="#E2E2F0" height="30.4883" rx="2.5" ry="2.5" style="stroke:#181818;stroke-width:0.5;" width="98" x="1082.5" y="103.9766"/><text fill="#000000" font-family="sans-serif" font-size="14" lengthAdjust="spacing" textLength="84" x="1089.5" y="124.5117">&#39080;&#26223;&#26041;&#21521;&#26908;&#20986;</text><rect fill="#E2E2F0" height="30.4883" rx="2.5" ry="2.5" style="stroke:#181818;stroke-width:0.5;" width="98" x="1082.5" y="1883.2129"/><text fill="#000000" font-family="sans-serif" font-size="14" lengthAdjust="spacing" textLength="84" x="1089.5" y="1903.748">&#39080;&#26223;&#26041;&#21521;&#26908;&#20986;</text><rect fill="#E2E2F0" height="30.4883" rx="2.5" ry="2.5" style="stroke:#181818;stroke-width:0.5;" width="70" x="1191.5" y="103.9766"/><text fill="#000000" font-family="sans-serif" font-size="14" lengthAdjust="spacing" textLength="56" x="1198.5" y="124.5117">&#21205;&#20307;&#26908;&#20986;</text><rect fill="#E2E2F0" height="30.4883" rx="2.5" ry="2.5" style="stroke:#181818;stroke-width:0.5;" width="70" x="1191.5" y="1883.2129"/><text fill="#000000" font-family="sans-serif" font-size="14" lengthAdjust="spacing" textLength="56" x="1198.5" y="1903.748">&#21205;&#20307;&#26908;&#20986;</text><rect fill="#E2E2F0" height="30.4883" rx="2.5" ry="2.5" style="stroke:#181818;stroke-width:0.5;" width="98" x="1271.5" y="103.9766"/><text fill="#000000" font-family="sans-serif" font-size="14" lengthAdjust="spacing" textLength="84" x="1278.5" y="124.5117">&#12501;&#12524;&#12540;&#12512;&#20445;&#23384;</text><rect fill="#E2E2F0" height="30.4883" rx="2.5" ry="2.5" style="stroke:#181818;stroke-width:0.5;" width="98" x="1271.5" y="1883.2129"/><text fill="#000000" font-family="sans-serif" font-size="14" lengthAdjust="spacing" textLength="84" x="1278.5" y="1903.748">&#12501;&#12524;&#12540;&#12512;&#20445;&#23384;</text><rect fill="#E2E2F0" height="30.4883" rx="2.5" ry="2.5" style="stroke:#181818;stroke-width:0.5;" width="70" x="1379.5" y="103.9766"/><text fill="#000000" font-family="sans-serif" font-size="14" lengthAdjust="spacing" textLength="56" x="1386.5" y="124.5117">&#12525;&#12508;&#12483;&#12488;</text><rect fill="#E2E2F0" height="30.4883" rx="2.5" ry="2.5" style="stroke:#181818;stroke-width:0.5;" width="70" x="1379.5" y="1883.2129"/><text fill="#000000" font-family="sans-serif" font-size="14" lengthAdjust="spacing" textLength="56" x="1386.5" y="1903.748">&#12525;&#12508;&#12483;&#12488;</text><rect fill="#FFFFFF" height="1590.5059" style="stroke:#181818;stroke-width:1.0;" width="10" x="319.5" y="268.707"/><rect fill="#FFFFFF" height="1373.6426" style="stroke:#181818;stroke-width:1.0;" width="10" x="699.5" y="399.9492"/><rect fill="#FFFFFF" height="535.2793" style="stroke:#181818;stroke-width:1.0;" width="10" x="877.5" y="849.2969"/><rect fill="#FFFFFF" height="71.6211" style="stroke:#181818;stroke-width:1.0;" width="10" x="877.5" y="1471.1523"/><rect fill="#FFFFFF" height="32.3105" style="stroke:#181818;stroke-width:1.0;" width="10" x="877.5" y="1587.0391"/><rect fill="#EEEEEE" height="3" style="stroke:#EEEEEE;stroke-width:1.0;" width="1509.5" x="0" y="166.1201"/><line style="stroke:#000000;stroke-width:1.0;" x1="0" x2="1509.5" y1="166.1201" y2="166.1201"/><line style="stroke:#000000;stroke-width:1.0;" x1="0" x2="1509.5" y1="169.1201" y2="169.1201"/><rect fill="#EEEEEE" height="23.3105" style="stroke:#000000;stroke-width:2.0;" width="96" x="706.75" y="155.4648"/><text fill="#000000" font-family="sans-serif" font-size="13" font-weight="bold" lengthAdjust="spacing" textLength="78" x="712.75" y="172.0332">&#12471;&#12473;&#12486;&#12512;&#38283;&#22987;</text><polygon fill="#181818" points="181.5,206.0859,191.5,210.0859,181.5,214.0859,185.5,210.0859" style="stroke:#181818;stroke-width:1.0;"/><line style="stroke:#181818;stroke-width:1.0;" x1="91" x2="187.5" y1="210.0859" y2="210.0859"/><text fill="#000000" font-family="sans-serif" font-size="13" lengthAdjust="spacing" textLength="78" x="98" y="205.3438">&#12471;&#12473;&#12486;&#12512;&#38283;&#22987;</text><polygon fill="#181818" points="1402.5,235.3965,1412.5,239.3965,1402.5,243.3965,1406.5,239.3965" style="stroke:#181818;stroke-width:1.0;"/><line style="stroke:#181818;stroke-width:1.0;" x1="193.5" x2="1408.5" y1="239.3965" y2="239.3965"/><text fill="#000000" font-family="sans-serif" font-size="13" lengthAdjust="spacing" textLength="91" x="200.5" y="234.6543">&#12525;&#12508;&#12483;&#12488;&#21021;&#26399;&#21270;</text><polygon fill="#181818" points="307.5,264.707,317.5,268.707,307.5,272.707,311.5,268.707" style="stroke:#181818;stroke-width:1.0;"/><line style="stroke:#181818;stroke-width:1.0;" x1="193.5" x2="313.5" y1="268.707" y2="268.707"/><text fill="#000000" font-family="sans-serif" font-size="13" lengthAdjust="spacing" textLength="107" x="200.5" y="263.9648">run(&#12480;&#12502;&#12523;&#12523;&#12540;&#12503;)</text><polygon fill="#181818" points="542.5,294.0176,552.5,298.0176,542.5,302.0176,546.5,298.0176" style="stroke:#181818;stroke-width:1.0;"/><line style="stroke:#181818;stroke-width:1.0;" x1="329.5" x2="548.5" y1="298.0176" y2="298.0176"/><text fill="#000000" font-family="sans-serif" font-size="13" lengthAdjust="spacing" textLength="201" x="336.5" y="293.2754">createMotions(&#12467;&#12510;&#12531;&#12489;&#12501;&#12449;&#12452;&#12523;)</text><polygon fill="#181818" points="340.5,323.3281,330.5,327.3281,340.5,331.3281,336.5,327.3281" style="stroke:#181818;stroke-width:1.0;"/><line style="stroke:#181818;stroke-width:1.0;stroke-dasharray:2.0,2.0;" x1="334.5" x2="553.5" y1="327.3281" y2="327.3281"/><text fill="#000000" font-family="sans-serif" font-size="13" lengthAdjust="spacing" textLength="117" x="346.5" y="322.5859">&#21205;&#20316;&#12458;&#12502;&#12472;&#12455;&#12463;&#12488;&#32676;</text><rect fill="#EEEEEE" height="3" style="stroke:#EEEEEE;stroke-width:1.0;" width="1509.5" x="0" y="355.9834"/><line style="stroke:#000000;stroke-width:1.0;" x1="0" x2="1509.5" y1="355.9834" y2="355.9834"/><line style="stroke:#000000;stroke-width:1.0;" x1="0" x2="1509.5" y1="358.9834" y2="358.9834"/><rect fill="#EEEEEE" height="23.3105" style="stroke:#000000;stroke-width:2.0;" width="117" x="696.25" y="345.3281"/><text fill="#000000" font-family="sans-serif" font-size="13" font-weight="bold" lengthAdjust="spacing" textLength="99" x="702.25" y="361.8965">&#37197;&#32622;&#12456;&#12522;&#12450;B&#25915;&#30053;</text><polygon fill="#181818" points="687.5,395.9492,697.5,399.9492,687.5,403.9492,691.5,399.9492" style="stroke:#181818;stroke-width:1.0;"/><line style="stroke:#181818;stroke-width:1.0;" x1="329.5" x2="693.5" y1="399.9492" y2="399.9492"/><text fill="#000000" font-family="sans-serif" font-size="13" lengthAdjust="spacing" textLength="29" x="336.5" y="395.207">run()</text><line style="stroke:#181818;stroke-width:1.0;" x1="709.5" x2="751.5" y1="453.5703" y2="453.5703"/><line style="stroke:#181818;stroke-width:1.0;" x1="751.5" x2="751.5" y1="453.5703" y2="466.5703"/><line style="stroke:#181818;stroke-width:1.0;" x1="710.5" x2="751.5" y1="466.5703" y2="466.5703"/><polygon fill="#181818" points="720.5,462.5703,710.5,466.5703,720.5,470.5703,716.5,466.5703" style="stroke:#181818;stroke-width:1.0;"/><text fill="#000000" font-family="sans-serif" font-size="13" lengthAdjust="spacing" textLength="78" x="716.5" y="448.8281">&#20107;&#21069;&#26465;&#20214;&#21028;&#23450;</text><path d="M806,440.7598 L806,465.7598 L957,465.7598 L957,450.7598 L947,440.7598 L806,440.7598 " fill="#FEFFDD" style="stroke:#181818;stroke-width:0.5;"/><path d="M947,440.7598 L947,450.7598 L957,450.7598 L947,440.7598 " fill="#FEFFDD" style="stroke:#181818;stroke-width:0.5;"/><text fill="#000000" font-family="sans-serif" font-size="13" lengthAdjust="spacing" textLength="130" x="812" y="458.3281">&#25774;&#24433;&#12364;&#24517;&#35201;&#12363;&#12481;&#12455;&#12483;&#12463;</text><rect fill="#EEEEEE" height="3" style="stroke:#EEEEEE;stroke-width:1.0;" width="1509.5" x="0" y="495.2256"/><line style="stroke:#000000;stroke-width:1.0;" x1="0" x2="1509.5" y1="495.2256" y2="495.2256"/><line style="stroke:#000000;stroke-width:1.0;" x1="0" x2="1509.5" y1="498.2256" y2="498.2256"/><rect fill="#EEEEEE" height="23.3105" style="stroke:#000000;stroke-width:2.0;" width="70" x="719.75" y="484.5703"/><text fill="#000000" font-family="sans-serif" font-size="13" font-weight="bold" lengthAdjust="spacing" textLength="52" x="725.75" y="501.1387">&#25774;&#24433;&#28310;&#20633;</text><polygon fill="#181818" points="1011.5,535.1914,1021.5,539.1914,1011.5,543.1914,1015.5,539.1914" style="stroke:#181818;stroke-width:1.0;"/><line style="stroke:#181818;stroke-width:1.0;" x1="709.5" x2="1017.5" y1="539.1914" y2="539.1914"/><text fill="#000000" font-family="sans-serif" font-size="13" lengthAdjust="spacing" textLength="132" x="716.5" y="534.4492">run() [&#39080;&#26223;&#26041;&#21521;&#12408;&#22238;&#38957;]</text><polygon fill="#181818" points="1402.5,564.502,1412.5,568.502,1402.5,572.502,1406.5,568.502" style="stroke:#181818;stroke-width:1.0;"/><line style="stroke:#181818;stroke-width:1.0;" x1="1023.5" x2="1408.5" y1="568.502" y2="568.502"/><text fill="#000000" font-family="sans-serif" font-size="13" lengthAdjust="spacing" textLength="78" x="1030.5" y="563.7598">&#12514;&#12540;&#12479;&#12540;&#21046;&#24481;</text><rect fill="#EEEEEE" height="3" style="stroke:#EEEEEE;stroke-width:1.0;" width="1509.5" x="0" y="597.1572"/><line style="stroke:#000000;stroke-width:1.0;" x1="0" x2="1509.5" y1="597.1572" y2="597.1572"/><line style="stroke:#000000;stroke-width:1.0;" x1="0" x2="1509.5" y1="600.1572" y2="600.1572"/><rect fill="#EEEEEE" height="23.3105" style="stroke:#000000;stroke-width:2.0;" width="70" x="719.75" y="586.502"/><text fill="#000000" font-family="sans-serif" font-size="13" font-weight="bold" lengthAdjust="spacing" textLength="52" x="725.75" y="603.0703">&#39080;&#26223;&#21028;&#23450;</text><polygon fill="#181818" points="1402.5,637.123,1412.5,641.123,1402.5,645.123,1406.5,641.123" style="stroke:#181818;stroke-width:1.0;"/><line style="stroke:#181818;stroke-width:1.0;" x1="709.5" x2="1408.5" y1="641.123" y2="641.123"/><text fill="#000000" font-family="sans-serif" font-size="13" lengthAdjust="spacing" textLength="177" x="716.5" y="636.3809">getFrame() [5&#22238;&#12501;&#12524;&#12540;&#12512;&#21462;&#24471;]</text><polygon fill="#181818" points="720.5,666.4336,710.5,670.4336,720.5,674.4336,716.5,670.4336" style="stroke:#181818;stroke-width:1.0;"/><line style="stroke:#181818;stroke-width:1.0;stroke-dasharray:2.0,2.0;" x1="714.5" x2="1413.5" y1="670.4336" y2="670.4336"/><text fill="#000000" font-family="sans-serif" font-size="13" lengthAdjust="spacing" textLength="65" x="726.5" y="665.6914">&#12459;&#12513;&#12521;&#30011;&#20687;</text><polygon fill="#181818" points="1119.5,720.0547,1129.5,724.0547,1119.5,728.0547,1123.5,724.0547" style="stroke:#181818;stroke-width:1.0;"/><line style="stroke:#181818;stroke-width:1.0;" x1="709.5" x2="1125.5" y1="724.0547" y2="724.0547"/><text fill="#000000" font-family="sans-serif" font-size="13" lengthAdjust="spacing" textLength="83" x="716.5" y="719.3125">detect(frame)</text><line style="stroke:#181818;stroke-width:1.0;" x1="1131.5" x2="1173.5" y1="753.3652" y2="753.3652"/><line style="stroke:#181818;stroke-width:1.0;" x1="1173.5" x2="1173.5" y1="753.3652" y2="766.3652"/><line style="stroke:#181818;stroke-width:1.0;" x1="1132.5" x2="1173.5" y1="766.3652" y2="766.3652"/><polygon fill="#181818" points="1142.5,762.3652,1132.5,766.3652,1142.5,770.3652,1138.5,766.3652" style="stroke:#181818;stroke-width:1.0;"/><text fill="#000000" font-family="sans-serif" font-size="13" lengthAdjust="spacing" textLength="81" x="1138.5" y="748.623">CNN&#25512;&#35542;&#20966;&#29702;</text><polygon fill="#181818" points="1402.5,791.6758,1412.5,795.6758,1402.5,799.6758,1406.5,795.6758" style="stroke:#181818;stroke-width:1.0;"/><line style="stroke:#181818;stroke-width:1.0;stroke-dasharray:2.0,2.0;" x1="1131.5" x2="1408.5" y1="795.6758" y2="795.6758"/><text fill="#000000" font-family="sans-serif" font-size="13" lengthAdjust="spacing" textLength="130" x="1138.5" y="790.9336">&#39080;&#26223;&#26041;&#21521;&#21028;&#23450;&#32080;&#26524;&#26356;&#26032;</text><path d="M30,810.6758 L92,810.6758 L92,817.9863 L82,827.9863 L30,827.9863 L30,810.6758 " fill="#EEEEEE" style="stroke:#000000;stroke-width:1.5;"/><rect fill="none" height="928.6055" style="stroke:#000000;stroke-width:1.5;" width="1449.5" x="30" y="810.6758"/><text fill="#000000" font-family="sans-serif" font-size="13" font-weight="bold" lengthAdjust="spacing" textLength="17" x="45" y="824.2441">alt</text><text fill="#000000" font-family="sans-serif" font-size="11" font-weight="bold" lengthAdjust="spacing" textLength="120" x="107" y="823.3105">[&#26908;&#20986;&#25104;&#21151; &amp;&amp; &#27491;&#38754;&#21521;&#12365;]</text><polygon fill="#181818" points="865.5,845.2969,875.5,849.2969,865.5,853.2969,869.5,849.2969" style="stroke:#181818;stroke-width:1.0;"/><line style="stroke:#181818;stroke-width:1.0;" x1="709.5" x2="871.5" y1="849.2969" y2="849.2969"/><text fill="#000000" font-family="sans-serif" font-size="13" lengthAdjust="spacing" textLength="132" x="716.5" y="844.5547">run() [&#12503;&#12521;&#12524;&#12540;&#12523;&#25774;&#24433;]</text><line style="stroke:#181818;stroke-width:1.0;" x1="887.5" x2="929.5" y1="878.6074" y2="878.6074"/><line style="stroke:#181818;stroke-width:1.0;" x1="929.5" x2="929.5" y1="878.6074" y2="891.6074"/><line style="stroke:#181818;stroke-width:1.0;" x1="888.5" x2="929.5" y1="891.6074" y2="891.6074"/><polygon fill="#181818" points="898.5,887.6074,888.5,891.6074,898.5,895.6074,894.5,891.6074" style="stroke:#181818;stroke-width:1.0;"/><text fill="#000000" font-family="sans-serif" font-size="13" lengthAdjust="spacing" textLength="104" x="894.5" y="873.8652">&#32972;&#26223;&#12501;&#12524;&#12540;&#12512;&#21462;&#24471;</text><rect fill="#EEEEEE" height="3" style="stroke:#EEEEEE;stroke-width:1.0;" width="1509.5" x="0" y="920.2627"/><line style="stroke:#000000;stroke-width:1.0;" x1="0" x2="1509.5" y1="920.2627" y2="920.2627"/><line style="stroke:#000000;stroke-width:1.0;" x1="0" x2="1509.5" y1="923.2627" y2="923.2627"/><rect fill="#EEEEEE" height="23.3105" style="stroke:#000000;stroke-width:2.0;" width="109" x="700.25" y="909.6074"/><text fill="#000000" font-family="sans-serif" font-size="13" font-weight="bold" lengthAdjust="spacing" textLength="91" x="706.25" y="926.1758">&#21205;&#20307;&#26908;&#20986;&#12539;&#25774;&#24433;</text><path d="M40,949.918 L114,949.918 L114,957.2285 L104,967.2285 L40,967.2285 L40,949.918 " fill="#EEEEEE" style="stroke:#000000;stroke-width:1.5;"/><rect fill="none" height="680.4316" style="stroke:#000000;stroke-width:1.5;" width="1429.5" x="40" y="949.918"/><text fill="#000000" font-family="sans-serif" font-size="13" font-weight="bold" lengthAdjust="spacing" textLength="29" x="55" y="963.4863">loop</text><text fill="#000000" font-family="sans-serif" font-size="11" font-weight="bold" lengthAdjust="spacing" textLength="74" x="129" y="962.5527">[&#21205;&#20307;&#26908;&#20986;&#24453;&#12385;]</text><polygon fill="#181818" points="1402.5,984.5391,1412.5,988.5391,1402.5,992.5391,1406.5,988.5391" style="stroke:#181818;stroke-width:1.0;"/><line style="stroke:#181818;stroke-width:1.0;" x1="887.5" x2="1408.5" y1="988.5391" y2="988.5391"/><text fill="#000000" font-family="sans-serif" font-size="13" lengthAdjust="spacing" textLength="66" x="894.5" y="983.7969">getFrame()</text><polygon fill="#181818" points="1214.5,1013.8496,1224.5,1017.8496,1214.5,1021.8496,1218.5,1017.8496" style="stroke:#181818;stroke-width:1.0;"/><line style="stroke:#181818;stroke-width:1.0;" x1="887.5" x2="1220.5" y1="1017.8496" y2="1017.8496"/><text fill="#000000" font-family="sans-serif" font-size="13" lengthAdjust="spacing" textLength="83" x="894.5" y="1013.1074">detect(frame)</text><polygon fill="#181818" points="898.5,1043.1602,888.5,1047.1602,898.5,1051.1602,894.5,1047.1602" style="stroke:#181818;stroke-width:1.0;"/><line style="stroke:#181818;stroke-width:1.0;stroke-dasharray:2.0,2.0;" x1="892.5" x2="1225.5" y1="1047.1602" y2="1047.1602"/><text fill="#000000" font-family="sans-serif" font-size="13" lengthAdjust="spacing" textLength="78" x="904.5" y="1042.418">&#21205;&#20307;&#26908;&#20986;&#32080;&#26524;</text><path d="M60,1062.1602 L122,1062.1602 L122,1069.4707 L112,1079.4707 L60,1079.4707 L60,1062.1602 " fill="#EEEEEE" style="stroke:#000000;stroke-width:1.5;"/><rect fill="none" height="83.9316" style="stroke:#000000;stroke-width:1.5;" width="869" x="60" y="1062.1602"/><text fill="#000000" font-family="sans-serif" font-size="13" font-weight="bold" lengthAdjust="spacing" textLength="17" x="75" y="1075.7285">alt</text><text fill="#000000" font-family="sans-serif" font-size="11" font-weight="bold" lengthAdjust="spacing" textLength="52" x="137" y="1074.7949">[&#21205;&#20307;&#26908;&#20986;]</text><path d="M846,1084.4707 L846,1109.4707 L919,1109.4707 L919,1094.4707 L909,1084.4707 L846,1084.4707 " fill="#FEFFDD" style="stroke:#181818;stroke-width:0.5;"/><path d="M909,1084.4707 L909,1094.4707 L919,1094.4707 L909,1084.4707 " fill="#FEFFDD" style="stroke:#181818;stroke-width:0.5;"/><text fill="#000000" font-family="sans-serif" font-size="13" lengthAdjust="spacing" textLength="52" x="852" y="1102.0391">&#25774;&#24433;&#38283;&#22987;</text><path d="M70,1121.7813 L154,1121.7813 L154,1129.0918 L144,1139.0918 L70,1139.0918 L70,1121.7813 " fill="#EEEEEE" style="stroke:#000000;stroke-width:1.5;"/><rect fill="none" height="17.3105" style="stroke:#000000;stroke-width:1.5;" width="89" x="70" y="1121.7813"/><text fill="#000000" font-family="sans-serif" font-size="13" font-weight="bold" lengthAdjust="spacing" textLength="39" x="85" y="1135.3496">break</text><path d="M50,1160.0918 L124,1160.0918 L124,1167.4023 L114,1177.4023 L50,1177.4023 L50,1160.0918 " fill="#EEEEEE" style="stroke:#000000;stroke-width:1.5;"/><rect fill="none" height="232.4844" style="stroke:#000000;stroke-width:1.5;" width="1409.5" x="50" y="1160.0918"/><text fill="#000000" font-family="sans-serif" font-size="13" font-weight="bold" lengthAdjust="spacing" textLength="29" x="65" y="1173.6602">loop</text><text fill="#000000" font-family="sans-serif" font-size="11" font-weight="bold" lengthAdjust="spacing" textLength="74" x="139" y="1172.7266">[&#21205;&#20307;&#36864;&#20986;&#26908;&#20986;]</text><polygon fill="#181818" points="1402.5,1194.7129,1412.5,1198.7129,1402.5,1202.7129,1406.5,1198.7129" style="stroke:#181818;stroke-width:1.0;"/><line style="stroke:#181818;stroke-width:1.0;" x1="887.5" x2="1408.5" y1="1198.7129" y2="1198.7129"/><text fill="#000000" font-family="sans-serif" font-size="13" lengthAdjust="spacing" textLength="66" x="894.5" y="1193.9707">getFrame()</text><polygon fill="#181818" points="1214.5,1224.0234,1224.5,1228.0234,1214.5,1232.0234,1218.5,1228.0234" style="stroke:#181818;stroke-width:1.0;"/><line style="stroke:#181818;stroke-width:1.0;" x1="887.5" x2="1220.5" y1="1228.0234" y2="1228.0234"/><text fill="#000000" font-family="sans-serif" font-size="13" lengthAdjust="spacing" textLength="83" x="894.5" y="1223.2813">detect(frame)</text><polygon fill="#181818" points="898.5,1253.334,888.5,1257.334,898.5,1261.334,894.5,1257.334" style="stroke:#181818;stroke-width:1.0;"/><line style="stroke:#181818;stroke-width:1.0;stroke-dasharray:2.0,2.0;" x1="892.5" x2="1225.5" y1="1257.334" y2="1257.334"/><text fill="#000000" font-family="sans-serif" font-size="13" lengthAdjust="spacing" textLength="78" x="904.5" y="1252.5918">&#21205;&#20307;&#26908;&#20986;&#32080;&#26524;</text><path d="M60,1272.334 L122,1272.334 L122,1279.6445 L112,1289.6445 L60,1289.6445 L60,1272.334 " fill="#EEEEEE" style="stroke:#000000;stroke-width:1.5;"/><rect fill="none" height="83.9316" style="stroke:#000000;stroke-width:1.5;" width="869" x="60" y="1272.334"/><text fill="#000000" font-family="sans-serif" font-size="13" font-weight="bold" lengthAdjust="spacing" textLength="17" x="75" y="1285.9023">alt</text><text fill="#000000" font-family="sans-serif" font-size="11" font-weight="bold" lengthAdjust="spacing" textLength="96" x="137" y="1284.9688">[&#21205;&#20307;&#26410;&#26908;&#20986;&#12364;&#32153;&#32154;]</text><path d="M846,1294.6445 L846,1319.6445 L919,1319.6445 L919,1304.6445 L909,1294.6445 L846,1294.6445 " fill="#FEFFDD" style="stroke:#181818;stroke-width:0.5;"/><path d="M909,1294.6445 L909,1304.6445 L919,1304.6445 L909,1294.6445 " fill="#FEFFDD" style="stroke:#181818;stroke-width:0.5;"/><text fill="#000000" font-family="sans-serif" font-size="13" lengthAdjust="spacing" textLength="52" x="852" y="1312.2129">&#25774;&#24433;&#32066;&#20102;</text><path d="M70,1331.9551 L154,1331.9551 L154,1339.2656 L144,1349.2656 L70,1349.2656 L70,1331.9551 " fill="#EEEEEE" style="stroke:#000000;stroke-width:1.5;"/><rect fill="none" height="17.3105" style="stroke:#000000;stroke-width:1.5;" width="89" x="70" y="1331.9551"/><text fill="#000000" font-family="sans-serif" font-size="13" font-weight="bold" lengthAdjust="spacing" textLength="39" x="85" y="1345.5234">break</text><polygon fill="#181818" points="1308.5,1380.5762,1318.5,1384.5762,1308.5,1388.5762,1312.5,1384.5762" style="stroke:#181818;stroke-width:1.0;"/><line style="stroke:#181818;stroke-width:1.0;" x1="882.5" x2="1314.5" y1="1384.5762" y2="1384.5762"/><text fill="#000000" font-family="sans-serif" font-size="13" lengthAdjust="spacing" textLength="109" x="889.5" y="1379.834">save("bestframe")</text><line style="stroke:#000000;stroke-width:1.0;stroke-dasharray:2.0,2.0;" x1="40" x2="1469.5" y1="1400.5762" y2="1400.5762"/><text fill="#000000" font-family="sans-serif" font-size="11" font-weight="bold" lengthAdjust="spacing" textLength="171" x="45" y="1411.2109">[position != 0 &amp;&amp; &#21069;&#22238;&#26908;&#20986;&#25104;&#21151;]</text><path d="M648,1419.5313 L648,1444.5313 L760,1444.5313 L760,1429.5313 L750,1419.5313 L648,1419.5313 " fill="#FEFFDD" style="stroke:#181818;stroke-width:0.5;"/><path d="M750,1419.5313 L750,1429.5313 L760,1429.5313 L750,1419.5313 " fill="#FEFFDD" style="stroke:#181818;stroke-width:0.5;"/><text fill="#000000" font-family="sans-serif" font-size="13" lengthAdjust="spacing" textLength="91" x="654" y="1437.0996">&#30906;&#23455;&#12395;&#27491;&#38754;&#26041;&#21521;</text><polygon fill="#181818" points="865.5,1467.1523,875.5,1471.1523,865.5,1475.1523,869.5,1471.1523" style="stroke:#181818;stroke-width:1.0;"/><line style="stroke:#181818;stroke-width:1.0;" x1="709.5" x2="871.5" y1="1471.1523" y2="1471.1523"/><text fill="#000000" font-family="sans-serif" font-size="13" lengthAdjust="spacing" textLength="132" x="716.5" y="1466.4102">run() [&#12503;&#12521;&#12524;&#12540;&#12523;&#25774;&#24433;]</text><line style="stroke:#181818;stroke-width:1.0;" x1="887.5" x2="929.5" y1="1500.4629" y2="1500.4629"/><line style="stroke:#181818;stroke-width:1.0;" x1="929.5" x2="929.5" y1="1500.4629" y2="1513.4629"/><line style="stroke:#181818;stroke-width:1.0;" x1="888.5" x2="929.5" y1="1513.4629" y2="1513.4629"/><polygon fill="#181818" points="898.5,1509.4629,888.5,1513.4629,898.5,1517.4629,894.5,1513.4629" style="stroke:#181818;stroke-width:1.0;"/><text fill="#000000" font-family="sans-serif" font-size="13" lengthAdjust="spacing" textLength="117" x="894.5" y="1495.7207">&#21205;&#20307;&#26908;&#20986;&#12539;&#25774;&#24433;&#20966;&#29702;</text><polygon fill="#181818" points="1308.5,1538.7734,1318.5,1542.7734,1308.5,1546.7734,1312.5,1542.7734" style="stroke:#181818;stroke-width:1.0;"/><line style="stroke:#181818;stroke-width:1.0;" x1="882.5" x2="1314.5" y1="1542.7734" y2="1542.7734"/><text fill="#000000" font-family="sans-serif" font-size="13" lengthAdjust="spacing" textLength="109" x="889.5" y="1538.0313">save("bestframe")</text><line style="stroke:#000000;stroke-width:1.0;stroke-dasharray:2.0,2.0;" x1="40" x2="1469.5" y1="1551.7734" y2="1551.7734"/><text fill="#000000" font-family="sans-serif" font-size="11" font-weight="bold" lengthAdjust="spacing" textLength="74" x="45" y="1562.4082">[&#21069;&#22238;&#26908;&#20986;&#22833;&#25943;]</text><polygon fill="#181818" points="865.5,1583.0391,875.5,1587.0391,865.5,1591.0391,869.5,1587.0391" style="stroke:#181818;stroke-width:1.0;"/><line style="stroke:#181818;stroke-width:1.0;" x1="709.5" x2="871.5" y1="1587.0391" y2="1587.0391"/><text fill="#000000" font-family="sans-serif" font-size="13" lengthAdjust="spacing" textLength="106" x="716.5" y="1582.2969">run() [&#21028;&#23450;&#29992;&#25774;&#24433;]</text><polygon fill="#181818" points="1308.5,1615.3496,1318.5,1619.3496,1308.5,1623.3496,1312.5,1619.3496" style="stroke:#181818;stroke-width:1.0;"/><line style="stroke:#181818;stroke-width:1.0;" x1="882.5" x2="1314.5" y1="1619.3496" y2="1619.3496"/><text fill="#000000" font-family="sans-serif" font-size="13" lengthAdjust="spacing" textLength="186" x="889.5" y="1614.6074">save("bestframe_" + position)</text><path d="M1325,1600.0391 L1325,1625.0391 L1411,1625.0391 L1411,1610.0391 L1401,1600.0391 L1325,1600.0391 " fill="#FEFFDD" style="stroke:#181818;stroke-width:0.5;"/><path d="M1401,1600.0391 L1401,1610.0391 L1411,1610.0391 L1401,1600.0391 " fill="#FEFFDD" style="stroke:#181818;stroke-width:0.5;"/><text fill="#000000" font-family="sans-serif" font-size="13" lengthAdjust="spacing" textLength="65" x="1331" y="1617.6074">&#20301;&#32622;&#21029;&#20445;&#23384;</text><rect fill="#EEEEEE" height="3" style="stroke:#EEEEEE;stroke-width:1.0;" width="1509.5" x="0" y="1658.0049"/><line style="stroke:#000000;stroke-width:1.0;" x1="0" x2="1509.5" y1="1658.0049" y2="1658.0049"/><line style="stroke:#000000;stroke-width:1.0;" x1="0" x2="1509.5" y1="1661.0049" y2="1661.0049"/><rect fill="#EEEEEE" height="23.3105" style="stroke:#000000;stroke-width:2.0;" width="83" x="713.25" y="1647.3496"/><text fill="#000000" font-family="sans-serif" font-size="13" font-weight="bold" lengthAdjust="spacing" textLength="65" x="719.25" y="1663.918">&#20803;&#20301;&#32622;&#24489;&#24112;</text><polygon fill="#181818" points="1011.5,1697.9707,1021.5,1701.9707,1011.5,1705.9707,1015.5,1701.9707" style="stroke:#181818;stroke-width:1.0;"/><line style="stroke:#181818;stroke-width:1.0;" x1="709.5" x2="1017.5" y1="1701.9707" y2="1701.9707"/><text fill="#000000" font-family="sans-serif" font-size="13" lengthAdjust="spacing" textLength="119" x="716.5" y="1697.2285">run() [&#20803;&#26041;&#21521;&#12408;&#22238;&#38957;]</text><polygon fill="#181818" points="1402.5,1727.2813,1412.5,1731.2813,1402.5,1735.2813,1406.5,1731.2813" style="stroke:#181818;stroke-width:1.0;"/><line style="stroke:#181818;stroke-width:1.0;" x1="1023.5" x2="1408.5" y1="1731.2813" y2="1731.2813"/><text fill="#000000" font-family="sans-serif" font-size="13" lengthAdjust="spacing" textLength="78" x="1030.5" y="1726.5391">&#12514;&#12540;&#12479;&#12540;&#21046;&#24481;</text><line style="stroke:#181818;stroke-width:1.0;" x1="709.5" x2="751.5" y1="1772.5918" y2="1772.5918"/><line style="stroke:#181818;stroke-width:1.0;" x1="751.5" x2="751.5" y1="1772.5918" y2="1785.5918"/><line style="stroke:#181818;stroke-width:1.0;" x1="704.5" x2="751.5" y1="1785.5918" y2="1785.5918"/><polygon fill="#181818" points="714.5,1781.5918,704.5,1785.5918,714.5,1789.5918,710.5,1785.5918" style="stroke:#181818;stroke-width:1.0;"/><text fill="#000000" font-family="sans-serif" font-size="13" lengthAdjust="spacing" textLength="130" x="716.5" y="1767.8496">&#30011;&#20687;&#12450;&#12483;&#12503;&#12525;&#12540;&#12489;&#20966;&#29702;</text><rect fill="#EEEEEE" height="3" style="stroke:#EEEEEE;stroke-width:1.0;" width="1509.5" x="0" y="1809.2471"/><line style="stroke:#000000;stroke-width:1.0;" x1="0" x2="1509.5" y1="1809.2471" y2="1809.2471"/><line style="stroke:#000000;stroke-width:1.0;" x1="0" x2="1509.5" y1="1812.2471" y2="1812.2471"/><rect fill="#EEEEEE" height="23.3105" style="stroke:#000000;stroke-width:2.0;" width="109" x="700.25" y="1798.5918"/><text fill="#000000" font-family="sans-serif" font-size="13" font-weight="bold" lengthAdjust="spacing" textLength="91" x="706.25" y="1815.1602">&#12456;&#12522;&#12450;&#25915;&#30053;&#32153;&#32154;</text><line style="stroke:#181818;stroke-width:1.0;" x1="329.5" x2="371.5" y1="1858.2129" y2="1858.2129"/><line style="stroke:#181818;stroke-width:1.0;" x1="371.5" x2="371.5" y1="1858.2129" y2="1871.2129"/><line style="stroke:#181818;stroke-width:1.0;" x1="324.5" x2="371.5" y1="1871.2129" y2="1871.2129"/><polygon fill="#181818" points="334.5,1867.2129,324.5,1871.2129,334.5,1875.2129,330.5,1871.2129" style="stroke:#181818;stroke-width:1.0;"/><text fill="#000000" font-family="sans-serif" font-size="13" lengthAdjust="spacing" textLength="117" x="336.5" y="1853.4707">&#20182;&#12398;&#21205;&#20316;&#12434;&#32153;&#32154;&#23455;&#34892;</text><!--SRC=[pLPRRnf757xVNp7b8SAg8wLkyu949HBgDo9azosDAcnlKrINjM3hP- -ER2y1DyIn8Oxn1K9inzJ4bXjgWur_p32xy9I_qBaioomikKcLkaA8opVdVESxbpbgN9sNGNTvpRgk8Vq8mMEab- -P6qrhypNI_q7m2kbd29uZ_H9ldx-_CgpJaldYkPKstb-bVqhuk-KZS-ijWaq42mY-GV0lUWHMpVKQlZwZ5lHB15SGt1-JfDYigYI1pwhMpITBtNm67sPy89O2qseigKeBv2q-6r-89LJW- -5714yGB2Bzd7YVk3Dnbo4ZiNZ23UnJxJbYm5343MDsTcaWCDqvV6NkvhYzg1lM2ySL2zAh29R8BpYpsRukieFtxeS677pyJ7JmJETm7JSEpEmghht4sxlT_HFEVSgBb9c_nBbdPgM8LnkSGZZinZ5NpmL493p8SRD7SBzziuDFNZ3OvFGWZ2aF8O860qmfCuegIS4W47Nc2GJ1eCJo1sv_pz8Jy019z0yAO9O8Gl20ZHspk8UpUGSKYWH0ye-47y4b1FDKJFeYf0jZj8JYYp5LfWcMGX7cD1e0iqcP_1XHrBYIIFd5PDEOzHBIAyJ8c1I9Wjks1vuOf1zJ7_e5qW-HJZ9lMAqA2zMx9sYut2sf04vJ84MhGffNb0Nm7T8gIAlnDcXVKrF0lw2aufGX288xuz-CJun_EoO1yh0tSjOnssvaS7hDt2crctLiL4XvC4X28JwIySU_4Wdj1jEo-6QvSw0XBOEWHeCWekfl-sP991ngDl9OtwBy1M-XAJi6y52iCgHTy7fynC2XALVkocmgt91tRDHng-HonirmqWFER0EFPNKo6VjTfaxl4ZTYLUAdUTmgSAyCpjB5D74wojfeOlYqxpGshuA-iaHQu2SrHGnpSKLjm-40c9DLULRr_q8f28Xms47SV_30_FEeKytZrGChj-B6zECG1UFnMkzovcxHtFxRp9ywfvmFb2TlJjF8uITxuDOjO9wywkwKcU9h3b1W77MA33pqdB2FNAUSGgIZHlmZAfZhm2oRSOEgkmwulX1HnTb2fZrttijlxs6LBo9nQnbf9HT6O3DK3wE0aP5fwpqHdXaMdqY0PsG8JbCXmeO0JhSfYtAIc-KXs_FC2pz3Pj1lG__8YJdfGzz72TXTMgALuatl_oHWyTYk2YrhrRUi-ijF5zDwfxSRA_-Lc7RiazC1a8ejodxVZ9nIMVW-T_npicVVYCRP1ta-9VSdpLTqqf0M9eEQp1gniQNXeDa4iyeDNDj3MfLtFPySqfTtl2ThiTCzctPWg7sIIYCKwgiYYe0hP-PcuKDnsTDou-Xp8l9W-BCFVEqavADinTkJtyZOUCtN84dCT-ycmylGXhNUu8lJqJSd0NxvjKczIkBTpwytid6mzQZ0LYMI_RITDo4ujcsmfSpUKVYAmhkmlwZGPQVTp9DjfBVoh7C8ASPEAIjQ94lLlm00]--></g></svg>