<?xml version="1.0" encoding="us-ascii" standalone="no"?><svg xmlns="http://www.w3.org/2000/svg" xmlns:xlink="http://www.w3.org/1999/xlink" contentStyleType="text/css" height="2503px" preserveAspectRatio="none" style="width:2087px;height:2503px;background:#FFFFFF;" version="1.1" viewBox="0 0 2087 2503" width="2087px" zoomAndPan="magnify"><defs/><g><text fill="#000000" font-family="sans-serif" font-size="14" font-weight="bold" lengthAdjust="spacing" textLength="192" x="943.5" y="28.5352">&#37197;&#32622;&#12456;&#12522;&#12450;A&#25915;&#30053;&#12471;&#12540;&#12465;&#12531;&#12473;&#22259;</text><text fill="#000000" font-family="sans-serif" font-size="14" font-weight="bold" lengthAdjust="spacing" textLength="306" x="886.5" y="45.0234">(DoubleLoop&#12456;&#12522;&#12450;&#20869;&#12511;&#12491;&#12501;&#12451;&#12464;&#25774;&#24433;&#12471;&#12473;&#12486;&#12512;)</text><rect fill="#FFFFFF" height="1529.5293" style="stroke:#181818;stroke-width:1.0;" width="10" x="631" y="599.123"/><rect fill="none" height="1672.082" style="stroke:#000000;stroke-width:1.5;" width="1788.5" x="174" y="560.502"/><rect fill="none" height="1441.5977" style="stroke:#000000;stroke-width:1.5;" width="1437.5" x="515" y="680.0547"/><rect fill="none" height="75.9316" style="stroke:#000000;stroke-width:1.5;" width="646.5" x="545.5" y="1021.1602"/><rect fill="none" height="493.2578" style="stroke:#000000;stroke-width:1.5;" width="1417.5" x="525" y="1111.0918"/><rect fill="none" height="52.6211" style="stroke:#000000;stroke-width:1.5;" width="1387" x="545.5" y="1379.5762"/><rect fill="none" height="89.9316" style="stroke:#000000;stroke-width:1.5;" width="303" x="184" y="2135.6523"/><line style="stroke:#181818;stroke-width:0.5;stroke-dasharray:5.0,5.0;" x1="36" x2="36" y1="135.4648" y2="2422.1367"/><line style="stroke:#181818;stroke-width:0.5;stroke-dasharray:5.0,5.0;" x1="139" x2="139" y1="135.4648" y2="2422.1367"/><line style="stroke:#181818;stroke-width:0.5;stroke-dasharray:5.0,5.0;" x1="268" x2="268" y1="135.4648" y2="2422.1367"/><line style="stroke:#181818;stroke-width:0.5;stroke-dasharray:5.0,5.0;" x1="492.5" x2="492.5" y1="135.4648" y2="2422.1367"/><line style="stroke:#181818;stroke-width:0.5;stroke-dasharray:5.0,5.0;" x1="635.5" x2="635.5" y1="135.4648" y2="2422.1367"/><line style="stroke:#181818;stroke-width:0.5;stroke-dasharray:5.0,5.0;" x1="826" x2="826" y1="135.4648" y2="2422.1367"/><line style="stroke:#181818;stroke-width:0.5;stroke-dasharray:5.0,5.0;" x1="1018.5" x2="1018.5" y1="135.4648" y2="2422.1367"/><line style="stroke:#181818;stroke-width:0.5;stroke-dasharray:5.0,5.0;" x1="1121" x2="1121" y1="135.4648" y2="2422.1367"/><line style="stroke:#181818;stroke-width:0.5;stroke-dasharray:5.0,5.0;" x1="1254" x2="1254" y1="135.4648" y2="2422.1367"/><line style="stroke:#181818;stroke-width:0.5;stroke-dasharray:5.0,5.0;" x1="1528.5" x2="1528.5" y1="135.4648" y2="2422.1367"/><line style="stroke:#181818;stroke-width:0.5;stroke-dasharray:5.0,5.0;" x1="1657.5" x2="1657.5" y1="135.4648" y2="2422.1367"/><line style="stroke:#181818;stroke-width:0.5;stroke-dasharray:5.0,5.0;" x1="1774.5" x2="1774.5" y1="135.4648" y2="2422.1367"/><line style="stroke:#181818;stroke-width:0.5;stroke-dasharray:5.0,5.0;" x1="1887.5" x2="1887.5" y1="135.4648" y2="2422.1367"/><text fill="#000000" font-family="sans-serif" font-size="14" lengthAdjust="spacing" textLength="56" x="5" y="132.5117">&#31478;&#25216;&#38283;&#22987;</text><ellipse cx="36" cy="67.4766" fill="#E2E2F0" rx="8" ry="8" style="stroke:#181818;stroke-width:0.5;"/><path d="M36,75.4766 L36,102.4766 M23,83.4766 L49,83.4766 M36,102.4766 L23,117.4766 M36,102.4766 L49,117.4766 " fill="none" style="stroke:#181818;stroke-width:0.5;"/><text fill="#000000" font-family="sans-serif" font-size="14" lengthAdjust="spacing" textLength="56" x="5" y="2434.6719">&#31478;&#25216;&#38283;&#22987;</text><ellipse cx="36" cy="2446.125" fill="#E2E2F0" rx="8" ry="8" style="stroke:#181818;stroke-width:0.5;"/><path d="M36,2454.125 L36,2481.125 M23,2462.125 L49,2462.125 M36,2481.125 L23,2496.125 M36,2481.125 L49,2496.125 " fill="none" style="stroke:#181818;stroke-width:0.5;"/><rect fill="#E2E2F0" height="30.4883" rx="2.5" ry="2.5" style="stroke:#181818;stroke-width:0.5;" width="124" x="77" y="103.9766"/><text fill="#000000" font-family="sans-serif" font-size="14" lengthAdjust="spacing" textLength="110" x="84" y="124.5117">EtRobocon2025</text><rect fill="#E2E2F0" height="30.4883" rx="2.5" ry="2.5" style="stroke:#181818;stroke-width:0.5;" width="124" x="77" y="2421.1367"/><text fill="#000000" font-family="sans-serif" font-size="14" lengthAdjust="spacing" textLength="110" x="84" y="2441.6719">EtRobocon2025</text><rect fill="#E2E2F0" height="30.4883" rx="2.5" ry="2.5" style="stroke:#181818;stroke-width:0.5;" width="92" x="222" y="103.9766"/><text fill="#000000" font-family="sans-serif" font-size="14" lengthAdjust="spacing" textLength="78" x="229" y="124.5117">AreaMaster</text><rect fill="#E2E2F0" height="30.4883" rx="2.5" ry="2.5" style="stroke:#181818;stroke-width:0.5;" width="92" x="222" y="2421.1367"/><text fill="#000000" font-family="sans-serif" font-size="14" lengthAdjust="spacing" textLength="78" x="229" y="2441.6719">AreaMaster</text><rect fill="#E2E2F0" height="30.4883" rx="2.5" ry="2.5" style="stroke:#181818;stroke-width:0.5;" width="105" x="440.5" y="103.9766"/><text fill="#000000" font-family="sans-serif" font-size="14" lengthAdjust="spacing" textLength="91" x="447.5" y="124.5117">MotionParser</text><rect fill="#E2E2F0" height="30.4883" rx="2.5" ry="2.5" style="stroke:#181818;stroke-width:0.5;" width="105" x="440.5" y="2421.1367"/><text fill="#000000" font-family="sans-serif" font-size="14" lengthAdjust="spacing" textLength="91" x="447.5" y="2441.6719">MotionParser</text><rect fill="#E2E2F0" height="30.4883" rx="2.5" ry="2.5" style="stroke:#181818;stroke-width:0.5;" width="161" x="555.5" y="103.9766"/><text fill="#000000" font-family="sans-serif" font-size="14" lengthAdjust="spacing" textLength="147" x="562.5" y="124.5117">MiniFigCameraAction</text><rect fill="#E2E2F0" height="30.4883" rx="2.5" ry="2.5" style="stroke:#181818;stroke-width:0.5;" width="161" x="555.5" y="2421.1367"/><text fill="#000000" font-family="sans-serif" font-size="14" lengthAdjust="spacing" textLength="147" x="562.5" y="2441.6719">MiniFigCameraAction</text><rect fill="#E2E2F0" height="30.4883" rx="2.5" ry="2.5" style="stroke:#181818;stroke-width:0.5;" width="184" x="734" y="103.9766"/><text fill="#000000" font-family="sans-serif" font-size="14" lengthAdjust="spacing" textLength="170" x="741" y="124.5117">MiniFigDirectionDetector</text><rect fill="#E2E2F0" height="30.4883" rx="2.5" ry="2.5" style="stroke:#181818;stroke-width:0.5;" width="184" x="734" y="2421.1367"/><text fill="#000000" font-family="sans-serif" font-size="14" lengthAdjust="spacing" textLength="170" x="741" y="2441.6719">MiniFigDirectionDetector</text><rect fill="#E2E2F0" height="30.4883" rx="2.5" ry="2.5" style="stroke:#181818;stroke-width:0.5;" width="55" x="991.5" y="103.9766"/><text fill="#000000" font-family="sans-serif" font-size="14" lengthAdjust="spacing" textLength="41" x="998.5" y="124.5117">Robot</text><rect fill="#E2E2F0" height="30.4883" rx="2.5" ry="2.5" style="stroke:#181818;stroke-width:0.5;" width="55" x="991.5" y="2421.1367"/><text fill="#000000" font-family="sans-serif" font-size="14" lengthAdjust="spacing" textLength="41" x="998.5" y="2441.6719">Robot</text><rect fill="#E2E2F0" height="30.4883" rx="2.5" ry="2.5" style="stroke:#181818;stroke-width:0.5;" width="122" x="1060" y="103.9766"/><text fill="#000000" font-family="sans-serif" font-size="14" lengthAdjust="spacing" textLength="108" x="1067" y="124.5117">CameraCapture</text><rect fill="#E2E2F0" height="30.4883" rx="2.5" ry="2.5" style="stroke:#181818;stroke-width:0.5;" width="122" x="1060" y="2421.1367"/><text fill="#000000" font-family="sans-serif" font-size="14" lengthAdjust="spacing" textLength="108" x="1067" y="2441.6719">CameraCapture</text><rect fill="#E2E2F0" height="30.4883" rx="2.5" ry="2.5" style="stroke:#181818;stroke-width:0.5;" width="125" x="1192" y="103.9766"/><text fill="#000000" font-family="sans-serif" font-size="14" lengthAdjust="spacing" textLength="111" x="1199" y="124.5117">MotorController</text><rect fill="#E2E2F0" height="30.4883" rx="2.5" ry="2.5" style="stroke:#181818;stroke-width:0.5;" width="125" x="1192" y="2421.1367"/><text fill="#000000" font-family="sans-serif" font-size="14" lengthAdjust="spacing" textLength="111" x="1199" y="2441.6719">MotorController</text><rect fill="#E2E2F0" height="30.4883" rx="2.5" ry="2.5" style="stroke:#181818;stroke-width:0.5;" width="112" x="1472.5" y="103.9766"/><text fill="#000000" font-family="sans-serif" font-size="14" lengthAdjust="spacing" textLength="98" x="1479.5" y="124.5117">AngleRotation</text><rect fill="#E2E2F0" height="30.4883" rx="2.5" ry="2.5" style="stroke:#181818;stroke-width:0.5;" width="112" x="1472.5" y="2421.1367"/><text fill="#000000" font-family="sans-serif" font-size="14" lengthAdjust="spacing" textLength="98" x="1479.5" y="2441.6719">AngleRotation</text><rect fill="#E2E2F0" height="30.4883" rx="2.5" ry="2.5" style="stroke:#181818;stroke-width:0.5;" width="126" x="1594.5" y="103.9766"/><text fill="#000000" font-family="sans-serif" font-size="14" lengthAdjust="spacing" textLength="112" x="1601.5" y="124.5117">DistanceStraight</text><rect fill="#E2E2F0" height="30.4883" rx="2.5" ry="2.5" style="stroke:#181818;stroke-width:0.5;" width="126" x="1594.5" y="2421.1367"/><text fill="#000000" font-family="sans-serif" font-size="14" lengthAdjust="spacing" textLength="112" x="1601.5" y="2441.6719">DistanceStraight</text><rect fill="#E2E2F0" height="30.4883" rx="2.5" ry="2.5" style="stroke:#181818;stroke-width:0.5;" width="88" x="1730.5" y="103.9766"/><text fill="#000000" font-family="sans-serif" font-size="14" lengthAdjust="spacing" textLength="74" x="1737.5" y="124.5117">FrameSave</text><rect fill="#E2E2F0" height="30.4883" rx="2.5" ry="2.5" style="stroke:#181818;stroke-width:0.5;" width="88" x="1730.5" y="2421.1367"/><text fill="#000000" font-family="sans-serif" font-size="14" lengthAdjust="spacing" textLength="74" x="1737.5" y="2441.6719">FrameSave</text><rect fill="#E2E2F0" height="30.4883" rx="2.5" ry="2.5" style="stroke:#181818;stroke-width:0.5;" width="119" x="1828.5" y="103.9766"/><text fill="#000000" font-family="sans-serif" font-size="14" lengthAdjust="spacing" textLength="105" x="1835.5" y="124.5117">ImageUploader</text><rect fill="#E2E2F0" height="30.4883" rx="2.5" ry="2.5" style="stroke:#181818;stroke-width:0.5;" width="119" x="1828.5" y="2421.1367"/><text fill="#000000" font-family="sans-serif" font-size="14" lengthAdjust="spacing" textLength="105" x="1835.5" y="2441.6719">ImageUploader</text><rect fill="#FFFFFF" height="1529.5293" style="stroke:#181818;stroke-width:1.0;" width="10" x="631" y="599.123"/><rect fill="#EEEEEE" height="3" style="stroke:#EEEEEE;stroke-width:1.0;" width="2080" x="0" y="166.1201"/><line style="stroke:#000000;stroke-width:1.0;" x1="0" x2="2080" y1="166.1201" y2="166.1201"/><line style="stroke:#000000;stroke-width:1.0;" x1="0" x2="2080" y1="169.1201" y2="169.1201"/><rect fill="#EEEEEE" height="23.3105" style="stroke:#000000;stroke-width:2.0;" width="109" x="985.5" y="155.4648"/><text fill="#000000" font-family="sans-serif" font-size="13" font-weight="bold" lengthAdjust="spacing" textLength="91" x="991.5" y="172.0332">&#12471;&#12473;&#12486;&#12512;&#21021;&#26399;&#21270;</text><polygon fill="#181818" points="127,206.0859,137,210.0859,127,214.0859,131,210.0859" style="stroke:#181818;stroke-width:1.0;"/><line style="stroke:#181818;stroke-width:1.0;" x1="36" x2="133" y1="210.0859" y2="210.0859"/><text fill="#000000" font-family="sans-serif" font-size="13" lengthAdjust="spacing" textLength="78" x="43" y="205.3438">&#12471;&#12473;&#12486;&#12512;&#38283;&#22987;</text><polygon fill="#181818" points="1007,235.3965,1017,239.3965,1007,243.3965,1011,239.3965" style="stroke:#181818;stroke-width:1.0;"/><line style="stroke:#181818;stroke-width:1.0;" x1="139" x2="1013" y1="239.3965" y2="239.3965"/><text fill="#000000" font-family="sans-serif" font-size="13" lengthAdjust="spacing" textLength="91" x="146" y="234.6543">&#12525;&#12508;&#12483;&#12488;&#21021;&#26399;&#21270;</text><polygon fill="#181818" points="1109,264.707,1119,268.707,1109,272.707,1113,268.707" style="stroke:#181818;stroke-width:1.0;"/><line style="stroke:#181818;stroke-width:1.0;" x1="1019" x2="1115" y1="268.707" y2="268.707"/><text fill="#000000" font-family="sans-serif" font-size="13" lengthAdjust="spacing" textLength="78" x="1026" y="263.9648">&#12459;&#12513;&#12521;&#21021;&#26399;&#21270;</text><polygon fill="#181818" points="1242.5,294.0176,1252.5,298.0176,1242.5,302.0176,1246.5,298.0176" style="stroke:#181818;stroke-width:1.0;"/><line style="stroke:#181818;stroke-width:1.0;" x1="1019" x2="1248.5" y1="298.0176" y2="298.0176"/><text fill="#000000" font-family="sans-serif" font-size="13" lengthAdjust="spacing" textLength="91" x="1026" y="293.2754">&#12514;&#12540;&#12479;&#12540;&#21021;&#26399;&#21270;</text><rect fill="#EEEEEE" height="3" style="stroke:#EEEEEE;stroke-width:1.0;" width="2080" x="0" y="326.6729"/><line style="stroke:#000000;stroke-width:1.0;" x1="0" x2="2080" y1="326.6729" y2="326.6729"/><line style="stroke:#000000;stroke-width:1.0;" x1="0" x2="2080" y1="329.6729" y2="329.6729"/><rect fill="#EEEEEE" height="23.3105" style="stroke:#000000;stroke-width:2.0;" width="164" x="958" y="316.0176"/><text fill="#000000" font-family="sans-serif" font-size="13" font-weight="bold" lengthAdjust="spacing" textLength="146" x="964" y="332.5859">DoubleLoop&#12456;&#12522;&#12450;&#36914;&#20837;</text><polygon fill="#181818" points="256,366.6387,266,370.6387,256,374.6387,260,370.6387" style="stroke:#181818;stroke-width:1.0;"/><line style="stroke:#181818;stroke-width:1.0;" x1="139" x2="262" y1="370.6387" y2="370.6387"/><text fill="#000000" font-family="sans-serif" font-size="13" lengthAdjust="spacing" textLength="105" x="146" y="365.8965">run(DoubleLoop)</text><line style="stroke:#181818;stroke-width:1.0;" x1="268" x2="310" y1="415.2598" y2="415.2598"/><line style="stroke:#181818;stroke-width:1.0;" x1="310" x2="310" y1="415.2598" y2="428.2598"/><line style="stroke:#181818;stroke-width:1.0;" x1="269" x2="310" y1="428.2598" y2="428.2598"/><polygon fill="#181818" points="279,424.2598,269,428.2598,279,432.2598,275,428.2598" style="stroke:#181818;stroke-width:1.0;"/><text fill="#000000" font-family="sans-serif" font-size="13" lengthAdjust="spacing" textLength="130" x="275" y="395.207">&#12467;&#12510;&#12531;&#12489;&#12501;&#12449;&#12452;&#12523;&#35501;&#36796;</text><text fill="#000000" font-family="sans-serif" font-size="13" lengthAdjust="spacing" textLength="173" x="275" y="410.5176">(DoubleLoopLeft/Right.csv)</text><polygon fill="#181818" points="481,453.5703,491,457.5703,481,461.5703,485,457.5703" style="stroke:#181818;stroke-width:1.0;"/><line style="stroke:#181818;stroke-width:1.0;" x1="268" x2="487" y1="457.5703" y2="457.5703"/><text fill="#000000" font-family="sans-serif" font-size="13" lengthAdjust="spacing" textLength="201" x="275" y="452.8281">createMotions(&#12467;&#12510;&#12531;&#12489;&#12501;&#12449;&#12452;&#12523;)</text><polygon fill="#181818" points="279,498.1914,269,502.1914,279,506.1914,275,502.1914" style="stroke:#181818;stroke-width:1.0;"/><line style="stroke:#181818;stroke-width:1.0;stroke-dasharray:2.0,2.0;" x1="273" x2="492" y1="502.1914" y2="502.1914"/><text fill="#000000" font-family="sans-serif" font-size="13" lengthAdjust="spacing" textLength="135" x="285" y="482.1387">Motion&#12458;&#12502;&#12472;&#12455;&#12463;&#12488;&#32676;</text><text fill="#000000" font-family="sans-serif" font-size="13" lengthAdjust="spacing" textLength="168" x="285" y="497.4492">(MiniFigCameraAction&#21547;&#12416;)</text><rect fill="#EEEEEE" height="3" style="stroke:#EEEEEE;stroke-width:1.0;" width="2080" x="0" y="530.8467"/><line style="stroke:#000000;stroke-width:1.0;" x1="0" x2="2080" y1="530.8467" y2="530.8467"/><line style="stroke:#000000;stroke-width:1.0;" x1="0" x2="2080" y1="533.8467" y2="533.8467"/><rect fill="#EEEEEE" height="23.3105" style="stroke:#000000;stroke-width:2.0;" width="224" x="928" y="520.1914"/><text fill="#000000" font-family="sans-serif" font-size="13" font-weight="bold" lengthAdjust="spacing" textLength="206" x="934" y="536.7598">&#37197;&#32622;&#12456;&#12522;&#12450;A&#25915;&#30053; (&#12511;&#12491;&#12501;&#12451;&#12464;&#25774;&#24433;)</text><path d="M174,560.502 L248,560.502 L248,567.8125 L238,577.8125 L174,577.8125 L174,560.502 " fill="#EEEEEE" style="stroke:#000000;stroke-width:1.5;"/><rect fill="none" height="1672.082" style="stroke:#000000;stroke-width:1.5;" width="1788.5" x="174" y="560.502"/><text fill="#000000" font-family="sans-serif" font-size="13" font-weight="bold" lengthAdjust="spacing" textLength="29" x="189" y="574.0703">loop</text><text fill="#000000" font-family="sans-serif" font-size="11" font-weight="bold" lengthAdjust="spacing" textLength="205" x="263" y="573.1367">[4&#22238;&#12398;&#25774;&#24433;&#20301;&#32622; (position = 0, 1, 2, 3)]</text><polygon fill="#181818" points="619,595.123,629,599.123,619,603.123,623,599.123" style="stroke:#181818;stroke-width:1.0;"/><line style="stroke:#181818;stroke-width:1.0;" x1="268" x2="625" y1="599.123" y2="599.123"/><text fill="#000000" font-family="sans-serif" font-size="13" lengthAdjust="spacing" textLength="29" x="275" y="594.3809">run()</text><line style="stroke:#181818;stroke-width:1.0;" x1="641" x2="683" y1="640.2441" y2="640.2441"/><line style="stroke:#181818;stroke-width:1.0;" x1="683" x2="683" y1="640.2441" y2="653.2441"/><line style="stroke:#181818;stroke-width:1.0;" x1="642" x2="683" y1="653.2441" y2="653.2441"/><polygon fill="#181818" points="652,649.2441,642,653.2441,652,657.2441,648,653.2441" style="stroke:#181818;stroke-width:1.0;"/><text fill="#000000" font-family="sans-serif" font-size="13" lengthAdjust="spacing" textLength="123" x="648" y="635.502">isMetPreCondition()</text><path d="M783,612.123 L783,667.123 L999,667.123 L999,622.123 L989,612.123 L783,612.123 " fill="#FEFFDD" style="stroke:#181818;stroke-width:0.5;"/><path d="M989,612.123 L989,622.123 L999,622.123 L989,612.123 " fill="#FEFFDD" style="stroke:#181818;stroke-width:0.5;"/><text fill="#000000" font-family="sans-serif" font-size="13" lengthAdjust="spacing" textLength="112" x="789" y="629.6914">position != 0 &#12363;&#12388;</text><text fill="#000000" font-family="sans-serif" font-size="13" lengthAdjust="spacing" textLength="108" x="789" y="645.002">&#21069;&#22238;&#26908;&#20986;&#28168;&#12415; &#12363;&#12388;</text><text fill="#000000" font-family="sans-serif" font-size="13" lengthAdjust="spacing" textLength="195" x="789" y="660.3125">&#26041;&#21521;&#12364;&#19968;&#33268;&#12375;&#12394;&#12356;&#22580;&#21512;&#12399;&#12473;&#12461;&#12483;&#12503;</text><path d="M515,680.0547 L577,680.0547 L577,687.3652 L567,697.3652 L515,697.3652 L515,680.0547 " fill="#EEEEEE" style="stroke:#000000;stroke-width:1.5;"/><rect fill="none" height="1441.5977" style="stroke:#000000;stroke-width:1.5;" width="1437.5" x="515" y="680.0547"/><text fill="#000000" font-family="sans-serif" font-size="13" font-weight="bold" lengthAdjust="spacing" textLength="17" x="530" y="693.623">alt</text><text fill="#000000" font-family="sans-serif" font-size="11" font-weight="bold" lengthAdjust="spacing" textLength="96" x="592" y="692.6895">[&#20107;&#21069;&#26465;&#20214;&#12434;&#28288;&#12383;&#12377;]</text><rect fill="#EEEEEE" height="3" style="stroke:#EEEEEE;stroke-width:1.0;" width="2080" x="0" y="718.0205"/><line style="stroke:#000000;stroke-width:1.0;" x1="0" x2="2080" y1="718.0205" y2="718.0205"/><line style="stroke:#000000;stroke-width:1.0;" x1="0" x2="2080" y1="721.0205" y2="721.0205"/><rect fill="#EEEEEE" height="23.3105" style="stroke:#000000;stroke-width:2.0;" width="70" x="1005" y="707.3652"/><text fill="#000000" font-family="sans-serif" font-size="13" font-weight="bold" lengthAdjust="spacing" textLength="52" x="1011" y="723.9336">&#25774;&#24433;&#28310;&#20633;</text><polygon fill="#181818" points="1516.5,757.9863,1526.5,761.9863,1516.5,765.9863,1520.5,761.9863" style="stroke:#181818;stroke-width:1.0;"/><line style="stroke:#181818;stroke-width:1.0;" x1="641" x2="1522.5" y1="761.9863" y2="761.9863"/><text fill="#000000" font-family="sans-serif" font-size="13" lengthAdjust="spacing" textLength="305" x="648" y="757.2441">new AngleRotation(preTargetAngle, isClockwise)</text><polygon fill="#181818" points="1516.5,787.2969,1526.5,791.2969,1516.5,795.2969,1520.5,791.2969" style="stroke:#181818;stroke-width:1.0;"/><line style="stroke:#181818;stroke-width:1.0;" x1="641" x2="1522.5" y1="791.2969" y2="791.2969"/><text fill="#000000" font-family="sans-serif" font-size="13" lengthAdjust="spacing" textLength="29" x="648" y="786.5547">run()</text><polygon fill="#181818" points="1265.5,819.6074,1255.5,823.6074,1265.5,827.6074,1261.5,823.6074" style="stroke:#181818;stroke-width:1.0;"/><line style="stroke:#181818;stroke-width:1.0;" x1="1259.5" x2="1527.5" y1="823.6074" y2="823.6074"/><text fill="#000000" font-family="sans-serif" font-size="13" lengthAdjust="spacing" textLength="250" x="1271.5" y="818.8652">setLeftMotorPower/setRightMotorPower</text><path d="M1533,804.2969 L1533,829.2969 L1697,829.2969 L1697,814.2969 L1687,804.2969 L1533,804.2969 " fill="#FEFFDD" style="stroke:#181818;stroke-width:0.5;"/><path d="M1687,804.2969 L1687,814.2969 L1697,814.2969 L1687,804.2969 " fill="#FEFFDD" style="stroke:#181818;stroke-width:0.5;"/><text fill="#000000" font-family="sans-serif" font-size="13" lengthAdjust="spacing" textLength="143" x="1539" y="821.8652">&#12511;&#12491;&#12501;&#12451;&#12464;&#12395;&#21521;&#12369;&#12390;&#22238;&#38957;</text><line style="stroke:#181818;stroke-width:1.0;" x1="641" x2="683" y1="855.918" y2="855.918"/><line style="stroke:#181818;stroke-width:1.0;" x1="683" x2="683" y1="855.918" y2="868.918"/><line style="stroke:#181818;stroke-width:1.0;" x1="642" x2="683" y1="868.918" y2="868.918"/><polygon fill="#181818" points="652,864.918,642,868.918,652,872.918,648,868.918" style="stroke:#181818;stroke-width:1.0;"/><text fill="#000000" font-family="sans-serif" font-size="13" lengthAdjust="spacing" textLength="166" x="648" y="851.1758">sleep(10ms) [&#21205;&#20316;&#23433;&#23450;&#24453;&#12385;]</text><polygon fill="#181818" points="1645.5,894.2285,1655.5,898.2285,1645.5,902.2285,1649.5,898.2285" style="stroke:#181818;stroke-width:1.0;"/><line style="stroke:#181818;stroke-width:1.0;" x1="641" x2="1651.5" y1="898.2285" y2="898.2285"/><text fill="#000000" font-family="sans-serif" font-size="13" lengthAdjust="spacing" textLength="349" x="648" y="893.4863">new DistanceStraight(-backSpeed, backTargetDistance)</text><polygon fill="#181818" points="1645.5,923.5391,1655.5,927.5391,1645.5,931.5391,1649.5,927.5391" style="stroke:#181818;stroke-width:1.0;"/><line style="stroke:#181818;stroke-width:1.0;" x1="641" x2="1651.5" y1="927.5391" y2="927.5391"/><text fill="#000000" font-family="sans-serif" font-size="13" lengthAdjust="spacing" textLength="29" x="648" y="922.7969">run()</text><polygon fill="#181818" points="1265.5,955.8496,1255.5,959.8496,1265.5,963.8496,1261.5,959.8496" style="stroke:#181818;stroke-width:1.0;"/><line style="stroke:#181818;stroke-width:1.0;" x1="1259.5" x2="1656.5" y1="959.8496" y2="959.8496"/><text fill="#000000" font-family="sans-serif" font-size="13" lengthAdjust="spacing" textLength="250" x="1271.5" y="955.1074">setLeftMotorPower/setRightMotorPower</text><path d="M1662,940.5391 L1662,965.5391 L1787,965.5391 L1787,950.5391 L1777,940.5391 L1662,940.5391 " fill="#FEFFDD" style="stroke:#181818;stroke-width:0.5;"/><path d="M1777,940.5391 L1777,950.5391 L1787,950.5391 L1777,940.5391 " fill="#FEFFDD" style="stroke:#181818;stroke-width:0.5;"/><text fill="#000000" font-family="sans-serif" font-size="13" lengthAdjust="spacing" textLength="104" x="1668" y="958.1074">&#25774;&#24433;&#36317;&#38626;&#12414;&#12391;&#24460;&#36864;</text><rect fill="#EEEEEE" height="3" style="stroke:#EEEEEE;stroke-width:1.0;" width="2080" x="0" y="991.5049"/><line style="stroke:#000000;stroke-width:1.0;" x1="0" x2="2080" y1="991.5049" y2="991.5049"/><line style="stroke:#000000;stroke-width:1.0;" x1="0" x2="2080" y1="994.5049" y2="994.5049"/><rect fill="#EEEEEE" height="23.3105" style="stroke:#000000;stroke-width:2.0;" width="109" x="985.5" y="980.8496"/><text fill="#000000" font-family="sans-serif" font-size="13" font-weight="bold" lengthAdjust="spacing" textLength="91" x="991.5" y="997.418">&#25774;&#24433;&#12539;&#26041;&#21521;&#21028;&#23450;</text><path d="M545.5,1021.1602 L619.5,1021.1602 L619.5,1028.4707 L609.5,1038.4707 L545.5,1038.4707 L545.5,1021.1602 " fill="#EEEEEE" style="stroke:#000000;stroke-width:1.5;"/><rect fill="none" height="75.9316" style="stroke:#000000;stroke-width:1.5;" width="646.5" x="545.5" y="1021.1602"/><text fill="#000000" font-family="sans-serif" font-size="13" font-weight="bold" lengthAdjust="spacing" textLength="29" x="560.5" y="1034.7285">loop</text><text fill="#000000" font-family="sans-serif" font-size="11" font-weight="bold" lengthAdjust="spacing" textLength="92" x="634.5" y="1033.7949">[5&#22238;&#12501;&#12524;&#12540;&#12512;&#21462;&#24471;]</text><polygon fill="#181818" points="1109,1055.7813,1119,1059.7813,1109,1063.7813,1113,1059.7813" style="stroke:#181818;stroke-width:1.0;"/><line style="stroke:#181818;stroke-width:1.0;" x1="641" x2="1115" y1="1059.7813" y2="1059.7813"/><text fill="#000000" font-family="sans-serif" font-size="13" lengthAdjust="spacing" textLength="66" x="648" y="1055.0391">getFrame()</text><polygon fill="#181818" points="652,1085.0918,642,1089.0918,652,1093.0918,648,1089.0918" style="stroke:#181818;stroke-width:1.0;"/><line style="stroke:#181818;stroke-width:1.0;stroke-dasharray:2.0,2.0;" x1="646" x2="1120" y1="1089.0918" y2="1089.0918"/><text fill="#000000" font-family="sans-serif" font-size="13" lengthAdjust="spacing" textLength="52" x="658" y="1084.3496">&#12501;&#12524;&#12540;&#12512;</text><path d="M525,1111.0918 L587,1111.0918 L587,1118.4023 L577,1128.4023 L525,1128.4023 L525,1111.0918 " fill="#EEEEEE" style="stroke:#000000;stroke-width:1.5;"/><rect fill="none" height="493.2578" style="stroke:#000000;stroke-width:1.5;" width="1417.5" x="525" y="1111.0918"/><text fill="#000000" font-family="sans-serif" font-size="13" font-weight="bold" lengthAdjust="spacing" textLength="17" x="540" y="1124.6602">alt</text><text fill="#000000" font-family="sans-serif" font-size="11" font-weight="bold" lengthAdjust="spacing" textLength="165" x="602" y="1123.7266">[position == 0 (&#21021;&#22238;&#25774;&#24433;&#20301;&#32622;)]</text><line style="stroke:#181818;stroke-width:1.0;" x1="641" x2="683" y1="1149.7129" y2="1149.7129"/><line style="stroke:#181818;stroke-width:1.0;" x1="683" x2="683" y1="1149.7129" y2="1162.7129"/><line style="stroke:#181818;stroke-width:1.0;" x1="642" x2="683" y1="1162.7129" y2="1162.7129"/><polygon fill="#181818" points="652,1158.7129,642,1162.7129,652,1166.7129,648,1162.7129" style="stroke:#181818;stroke-width:1.0;"/><text fill="#000000" font-family="sans-serif" font-size="13" lengthAdjust="spacing" textLength="141" x="648" y="1144.9707">detectDirection(frame)</text><polygon fill="#181818" points="814,1188.0234,824,1192.0234,814,1196.0234,818,1192.0234" style="stroke:#181818;stroke-width:1.0;"/><line style="stroke:#181818;stroke-width:1.0;" x1="641" x2="820" y1="1192.0234" y2="1192.0234"/><text fill="#000000" font-family="sans-serif" font-size="13" lengthAdjust="spacing" textLength="83" x="648" y="1187.2813">detect(frame)</text><line style="stroke:#181818;stroke-width:1.0;" x1="826" x2="868" y1="1221.334" y2="1221.334"/><line style="stroke:#181818;stroke-width:1.0;" x1="868" x2="868" y1="1221.334" y2="1234.334"/><line style="stroke:#181818;stroke-width:1.0;" x1="827" x2="868" y1="1234.334" y2="1234.334"/><polygon fill="#181818" points="837,1230.334,827,1234.334,837,1238.334,833,1234.334" style="stroke:#181818;stroke-width:1.0;"/><text fill="#000000" font-family="sans-serif" font-size="13" lengthAdjust="spacing" textLength="116" x="833" y="1216.5918">preprocess(&#21069;&#20966;&#29702;)</text><line style="stroke:#181818;stroke-width:1.0;" x1="826" x2="868" y1="1263.6445" y2="1263.6445"/><line style="stroke:#181818;stroke-width:1.0;" x1="868" x2="868" y1="1263.6445" y2="1276.6445"/><line style="stroke:#181818;stroke-width:1.0;" x1="827" x2="868" y1="1276.6445" y2="1276.6445"/><polygon fill="#181818" points="837,1272.6445,827,1276.6445,837,1280.6445,833,1276.6445" style="stroke:#181818;stroke-width:1.0;"/><text fill="#000000" font-family="sans-serif" font-size="13" lengthAdjust="spacing" textLength="140" x="833" y="1258.9023">postprocess(CNN&#25512;&#35542;)</text><polygon fill="#181818" points="1007,1301.9551,1017,1305.9551,1007,1309.9551,1011,1305.9551" style="stroke:#181818;stroke-width:1.0;"/><line style="stroke:#181818;stroke-width:1.0;stroke-dasharray:2.0,2.0;" x1="826" x2="1013" y1="1305.9551" y2="1305.9551"/><text fill="#000000" font-family="sans-serif" font-size="13" lengthAdjust="spacing" textLength="169" x="833" y="1301.2129">MiniFigDirectionResult&#26356;&#26032;</text><polygon fill="#181818" points="1007,1331.2656,1017,1335.2656,1007,1339.2656,1011,1335.2656" style="stroke:#181818;stroke-width:1.0;"/><line style="stroke:#181818;stroke-width:1.0;" x1="641" x2="1013" y1="1335.2656" y2="1335.2656"/><text fill="#000000" font-family="sans-serif" font-size="13" lengthAdjust="spacing" textLength="171" x="648" y="1330.5234">getMiniFigDirectionResult()</text><polygon fill="#181818" points="652,1360.5762,642,1364.5762,652,1368.5762,648,1364.5762" style="stroke:#181818;stroke-width:1.0;"/><line style="stroke:#181818;stroke-width:1.0;stroke-dasharray:2.0,2.0;" x1="646" x2="1018" y1="1364.5762" y2="1364.5762"/><text fill="#000000" font-family="sans-serif" font-size="13" lengthAdjust="spacing" textLength="52" x="658" y="1359.834">&#26908;&#20986;&#32080;&#26524;</text><path d="M545.5,1379.5762 L607.5,1379.5762 L607.5,1386.8867 L597.5,1396.8867 L545.5,1396.8867 L545.5,1379.5762 " fill="#EEEEEE" style="stroke:#000000;stroke-width:1.5;"/><rect fill="none" height="52.6211" style="stroke:#000000;stroke-width:1.5;" width="1387" x="545.5" y="1379.5762"/><text fill="#000000" font-family="sans-serif" font-size="13" font-weight="bold" lengthAdjust="spacing" textLength="17" x="560.5" y="1393.1445">alt</text><text fill="#000000" font-family="sans-serif" font-size="11" font-weight="bold" lengthAdjust="spacing" textLength="163" x="622.5" y="1392.2109">[&#26908;&#20986;&#25104;&#21151; &amp;&amp; &#26041;&#21521; == FRONT]</text><polygon fill="#181818" points="1762.5,1417.1973,1772.5,1421.1973,1762.5,1425.1973,1766.5,1421.1973" style="stroke:#181818;stroke-width:1.0;"/><line style="stroke:#181818;stroke-width:1.0;" x1="641" x2="1768.5" y1="1421.1973" y2="1421.1973"/><text fill="#000000" font-family="sans-serif" font-size="13" lengthAdjust="spacing" textLength="195" x="648" y="1416.4551">save(frame, "upload_front_fig")</text><path d="M1779,1401.8867 L1779,1426.8867 L1917,1426.8867 L1917,1411.8867 L1907,1401.8867 L1779,1401.8867 " fill="#FEFFDD" style="stroke:#181818;stroke-width:0.5;"/><path d="M1907,1401.8867 L1907,1411.8867 L1917,1411.8867 L1907,1401.8867 " fill="#FEFFDD" style="stroke:#181818;stroke-width:0.5;"/><text fill="#000000" font-family="sans-serif" font-size="13" lengthAdjust="spacing" textLength="117" x="1785" y="1419.4551">&#27491;&#38754;&#30011;&#20687;&#12392;&#12375;&#12390;&#20445;&#23384;</text><line style="stroke:#000000;stroke-width:1.0;stroke-dasharray:2.0,2.0;" x1="525" x2="1942.5" y1="1440.1973" y2="1440.1973"/><text fill="#000000" font-family="sans-serif" font-size="11" font-weight="bold" lengthAdjust="spacing" textLength="177" x="530" y="1450.832">[position != 0 &#12363;&#12388; &#21069;&#22238;&#26908;&#20986;&#25104;&#21151;]</text><path d="M535,1459.1523 L535,1484.1523 L737,1484.1523 L737,1469.1523 L727,1459.1523 L535,1459.1523 " fill="#FEFFDD" style="stroke:#181818;stroke-width:0.5;"/><path d="M727,1459.1523 L727,1469.1523 L737,1469.1523 L727,1459.1523 " fill="#FEFFDD" style="stroke:#181818;stroke-width:0.5;"/><text fill="#000000" font-family="sans-serif" font-size="13" lengthAdjust="spacing" textLength="181" x="541" y="1476.7207">2&#22238;&#30446;&#20197;&#38477;&#12399;&#30906;&#23455;&#12395;FRONT&#26041;&#21521;</text><polygon fill="#181818" points="1762.5,1506.7734,1772.5,1510.7734,1762.5,1514.7734,1766.5,1510.7734" style="stroke:#181818;stroke-width:1.0;"/><line style="stroke:#181818;stroke-width:1.0;" x1="641" x2="1768.5" y1="1510.7734" y2="1510.7734"/><text fill="#000000" font-family="sans-serif" font-size="13" lengthAdjust="spacing" textLength="195" x="648" y="1506.0313">save(frame, "upload_front_fig")</text><line style="stroke:#000000;stroke-width:1.0;stroke-dasharray:2.0,2.0;" x1="525" x2="1942.5" y1="1519.7734" y2="1519.7734"/><text fill="#000000" font-family="sans-serif" font-size="11" font-weight="bold" lengthAdjust="spacing" textLength="74" x="530" y="1530.4082">[&#21069;&#22238;&#26908;&#20986;&#22833;&#25943;]</text><path d="M567,1538.7285 L567,1563.7285 L705,1563.7285 L705,1548.7285 L695,1538.7285 L567,1538.7285 " fill="#FEFFDD" style="stroke:#181818;stroke-width:0.5;"/><path d="M695,1538.7285 L695,1548.7285 L705,1548.7285 L695,1538.7285 " fill="#FEFFDD" style="stroke:#181818;stroke-width:0.5;"/><text fill="#000000" font-family="sans-serif" font-size="13" lengthAdjust="spacing" textLength="117" x="573" y="1556.2969">&#20840;&#20301;&#32622;&#12391;&#25774;&#24433;&#12364;&#24517;&#35201;</text><polygon fill="#181818" points="1762.5,1589.3496,1772.5,1593.3496,1762.5,1597.3496,1766.5,1593.3496" style="stroke:#181818;stroke-width:1.0;"/><line style="stroke:#181818;stroke-width:1.0;" x1="641" x2="1768.5" y1="1593.3496" y2="1593.3496"/><text fill="#000000" font-family="sans-serif" font-size="13" lengthAdjust="spacing" textLength="186" x="648" y="1588.6074">save(frame, "Fig_" + position)</text><path d="M1779,1574.0391 L1779,1599.0391 L1904,1599.0391 L1904,1584.0391 L1894,1574.0391 L1779,1574.0391 " fill="#FEFFDD" style="stroke:#181818;stroke-width:0.5;"/><path d="M1894,1574.0391 L1894,1584.0391 L1904,1584.0391 L1894,1574.0391 " fill="#FEFFDD" style="stroke:#181818;stroke-width:0.5;"/><text fill="#000000" font-family="sans-serif" font-size="13" lengthAdjust="spacing" textLength="104" x="1785" y="1591.6074">&#20301;&#32622;&#21029;&#12395;&#30011;&#20687;&#20445;&#23384;</text><rect fill="#EEEEEE" height="3" style="stroke:#EEEEEE;stroke-width:1.0;" width="2080" x="0" y="1632.0049"/><line style="stroke:#000000;stroke-width:1.0;" x1="0" x2="2080" y1="1632.0049" y2="1632.0049"/><line style="stroke:#000000;stroke-width:1.0;" x1="0" x2="2080" y1="1635.0049" y2="1635.0049"/><rect fill="#EEEEEE" height="23.3105" style="stroke:#000000;stroke-width:2.0;" width="83" x="998.5" y="1621.3496"/><text fill="#000000" font-family="sans-serif" font-size="13" font-weight="bold" lengthAdjust="spacing" textLength="65" x="1004.5" y="1637.918">&#25774;&#24433;&#24460;&#31227;&#21205;</text><line style="stroke:#181818;stroke-width:1.0;" x1="641" x2="683" y1="1675.9707" y2="1675.9707"/><line style="stroke:#181818;stroke-width:1.0;" x1="683" x2="683" y1="1675.9707" y2="1688.9707"/><line style="stroke:#181818;stroke-width:1.0;" x1="642" x2="683" y1="1688.9707" y2="1688.9707"/><polygon fill="#181818" points="652,1684.9707,642,1688.9707,652,1692.9707,648,1688.9707" style="stroke:#181818;stroke-width:1.0;"/><text fill="#000000" font-family="sans-serif" font-size="13" lengthAdjust="spacing" textLength="166" x="648" y="1671.2285">sleep(10ms) [&#21205;&#20316;&#23433;&#23450;&#24453;&#12385;]</text><polygon fill="#181818" points="1242.5,1714.2813,1252.5,1718.2813,1242.5,1722.2813,1246.5,1718.2813" style="stroke:#181818;stroke-width:1.0;"/><line style="stroke:#181818;stroke-width:1.0;" x1="641" x2="1248.5" y1="1718.2813" y2="1718.2813"/><text fill="#000000" font-family="sans-serif" font-size="13" lengthAdjust="spacing" textLength="282" x="648" y="1713.5391">setLeftMotorPower(0)/setRightMotorPower(0)</text><polygon fill="#181818" points="1645.5,1743.5918,1655.5,1747.5918,1645.5,1751.5918,1649.5,1747.5918" style="stroke:#181818;stroke-width:1.0;"/><line style="stroke:#181818;stroke-width:1.0;" x1="641" x2="1651.5" y1="1747.5918" y2="1747.5918"/><text fill="#000000" font-family="sans-serif" font-size="13" lengthAdjust="spacing" textLength="377" x="648" y="1742.8496">new DistanceStraight(forwardSpeed, forwardTargetDistance)</text><polygon fill="#181818" points="1645.5,1772.9023,1655.5,1776.9023,1645.5,1780.9023,1649.5,1776.9023" style="stroke:#181818;stroke-width:1.0;"/><line style="stroke:#181818;stroke-width:1.0;" x1="641" x2="1651.5" y1="1776.9023" y2="1776.9023"/><text fill="#000000" font-family="sans-serif" font-size="13" lengthAdjust="spacing" textLength="29" x="648" y="1772.1602">run()</text><polygon fill="#181818" points="1265.5,1805.2129,1255.5,1809.2129,1265.5,1813.2129,1261.5,1809.2129" style="stroke:#181818;stroke-width:1.0;"/><line style="stroke:#181818;stroke-width:1.0;" x1="1259.5" x2="1656.5" y1="1809.2129" y2="1809.2129"/><text fill="#000000" font-family="sans-serif" font-size="13" lengthAdjust="spacing" textLength="250" x="1271.5" y="1804.4707">setLeftMotorPower/setRightMotorPower</text><path d="M1662,1789.9023 L1662,1814.9023 L1787,1814.9023 L1787,1799.9023 L1777,1789.9023 L1662,1789.9023 " fill="#FEFFDD" style="stroke:#181818;stroke-width:0.5;"/><path d="M1777,1789.9023 L1777,1799.9023 L1787,1799.9023 L1777,1789.9023 " fill="#FEFFDD" style="stroke:#181818;stroke-width:0.5;"/><text fill="#000000" font-family="sans-serif" font-size="13" lengthAdjust="spacing" textLength="104" x="1668" y="1807.4707">&#20803;&#12398;&#20301;&#32622;&#12414;&#12391;&#21069;&#36914;</text><line style="stroke:#181818;stroke-width:1.0;" x1="641" x2="683" y1="1841.5234" y2="1841.5234"/><line style="stroke:#181818;stroke-width:1.0;" x1="683" x2="683" y1="1841.5234" y2="1854.5234"/><line style="stroke:#181818;stroke-width:1.0;" x1="642" x2="683" y1="1854.5234" y2="1854.5234"/><polygon fill="#181818" points="652,1850.5234,642,1854.5234,652,1858.5234,648,1854.5234" style="stroke:#181818;stroke-width:1.0;"/><text fill="#000000" font-family="sans-serif" font-size="13" lengthAdjust="spacing" textLength="166" x="648" y="1836.7813">sleep(10ms) [&#21205;&#20316;&#23433;&#23450;&#24453;&#12385;]</text><polygon fill="#181818" points="1242.5,1879.834,1252.5,1883.834,1242.5,1887.834,1246.5,1883.834" style="stroke:#181818;stroke-width:1.0;"/><line style="stroke:#181818;stroke-width:1.0;" x1="641" x2="1248.5" y1="1883.834" y2="1883.834"/><text fill="#000000" font-family="sans-serif" font-size="13" lengthAdjust="spacing" textLength="282" x="648" y="1879.0918">setLeftMotorPower(0)/setRightMotorPower(0)</text><line style="stroke:#181818;stroke-width:1.0;" x1="641" x2="683" y1="1913.1445" y2="1913.1445"/><line style="stroke:#181818;stroke-width:1.0;" x1="683" x2="683" y1="1913.1445" y2="1926.1445"/><line style="stroke:#181818;stroke-width:1.0;" x1="642" x2="683" y1="1926.1445" y2="1926.1445"/><polygon fill="#181818" points="652,1922.1445,642,1926.1445,652,1930.1445,648,1926.1445" style="stroke:#181818;stroke-width:1.0;"/><text fill="#000000" font-family="sans-serif" font-size="13" lengthAdjust="spacing" textLength="166" x="648" y="1908.4023">sleep(10ms) [&#21205;&#20316;&#23433;&#23450;&#24453;&#12385;]</text><rect fill="#EEEEEE" height="3" style="stroke:#EEEEEE;stroke-width:1.0;" width="2080" x="0" y="1954.7998"/><line style="stroke:#000000;stroke-width:1.0;" x1="0" x2="2080" y1="1954.7998" y2="1954.7998"/><line style="stroke:#000000;stroke-width:1.0;" x1="0" x2="2080" y1="1957.7998" y2="1957.7998"/><rect fill="#EEEEEE" height="23.3105" style="stroke:#000000;stroke-width:2.0;" width="70" x="1005" y="1944.1445"/><text fill="#000000" font-family="sans-serif" font-size="13" font-weight="bold" lengthAdjust="spacing" textLength="52" x="1011" y="1960.7129">&#40658;&#32218;&#24489;&#24112;</text><polygon fill="#181818" points="1516.5,1994.7656,1526.5,1998.7656,1516.5,2002.7656,1520.5,1998.7656" style="stroke:#181818;stroke-width:1.0;"/><line style="stroke:#181818;stroke-width:1.0;" x1="641" x2="1522.5" y1="1998.7656" y2="1998.7656"/><text fill="#000000" font-family="sans-serif" font-size="13" lengthAdjust="spacing" textLength="317" x="648" y="1994.0234">new AngleRotation(postTargetAngle, !isClockwise)</text><polygon fill="#181818" points="1516.5,2024.0762,1526.5,2028.0762,1516.5,2032.0762,1520.5,2028.0762" style="stroke:#181818;stroke-width:1.0;"/><line style="stroke:#181818;stroke-width:1.0;" x1="641" x2="1522.5" y1="2028.0762" y2="2028.0762"/><text fill="#000000" font-family="sans-serif" font-size="13" lengthAdjust="spacing" textLength="29" x="648" y="2023.334">run()</text><polygon fill="#181818" points="1265.5,2056.3867,1255.5,2060.3867,1265.5,2064.3867,1261.5,2060.3867" style="stroke:#181818;stroke-width:1.0;"/><line style="stroke:#181818;stroke-width:1.0;" x1="1259.5" x2="1527.5" y1="2060.3867" y2="2060.3867"/><text fill="#000000" font-family="sans-serif" font-size="13" lengthAdjust="spacing" textLength="250" x="1271.5" y="2055.6445">setLeftMotorPower/setRightMotorPower</text><path d="M1533,2041.0762 L1533,2066.0762 L1671,2066.0762 L1671,2051.0762 L1661,2041.0762 L1533,2041.0762 " fill="#FEFFDD" style="stroke:#181818;stroke-width:0.5;"/><path d="M1661,2041.0762 L1661,2051.0762 L1671,2051.0762 L1661,2041.0762 " fill="#FEFFDD" style="stroke:#181818;stroke-width:0.5;"/><text fill="#000000" font-family="sans-serif" font-size="13" lengthAdjust="spacing" textLength="117" x="1539" y="2058.6445">&#20803;&#12398;&#26041;&#21521;&#12408;&#22238;&#38957;&#24489;&#24112;</text><line style="stroke:#000000;stroke-width:1.0;stroke-dasharray:2.0,2.0;" x1="515" x2="1952.5" y1="2072.3867" y2="2072.3867"/><text fill="#000000" font-family="sans-serif" font-size="11" font-weight="bold" lengthAdjust="spacing" textLength="118" x="520" y="2083.0215">[&#20107;&#21069;&#26465;&#20214;&#12434;&#28288;&#12383;&#12373;&#12394;&#12356;]</text><path d="M567,2091.3418 L567,2116.3418 L705,2116.3418 L705,2101.3418 L695,2091.3418 L567,2091.3418 " fill="#FEFFDD" style="stroke:#181818;stroke-width:0.5;"/><path d="M695,2091.3418 L695,2101.3418 L705,2101.3418 L695,2091.3418 " fill="#FEFFDD" style="stroke:#181818;stroke-width:0.5;"/><text fill="#000000" font-family="sans-serif" font-size="13" lengthAdjust="spacing" textLength="117" x="573" y="2108.9102">&#25774;&#24433;&#21205;&#20316;&#12434;&#12473;&#12461;&#12483;&#12503;</text><path d="M184,2135.6523 L246,2135.6523 L246,2142.9629 L236,2152.9629 L184,2152.9629 L184,2135.6523 " fill="#EEEEEE" style="stroke:#000000;stroke-width:1.5;"/><rect fill="none" height="89.9316" style="stroke:#000000;stroke-width:1.5;" width="303" x="184" y="2135.6523"/><text fill="#000000" font-family="sans-serif" font-size="13" font-weight="bold" lengthAdjust="spacing" textLength="17" x="199" y="2149.2207">alt</text><text fill="#000000" font-family="sans-serif" font-size="11" font-weight="bold" lengthAdjust="spacing" textLength="221" x="261" y="2148.2871">[&#27491;&#38754;&#30011;&#20687;&#21462;&#24471;&#23436;&#20102; &#12414;&#12383;&#12399; &#20840;4&#20301;&#32622;&#25774;&#24433;&#23436;&#20102;]</text><path d="M194,2157.9629 L194,2182.9629 L341,2182.9629 L341,2167.9629 L331,2157.9629 L194,2157.9629 " fill="#FEFFDD" style="stroke:#181818;stroke-width:0.5;"/><path d="M331,2157.9629 L331,2167.9629 L341,2167.9629 L331,2157.9629 " fill="#FEFFDD" style="stroke:#181818;stroke-width:0.5;"/><text fill="#000000" font-family="sans-serif" font-size="13" lengthAdjust="spacing" textLength="126" x="200" y="2175.5313">&#37197;&#32622;&#12456;&#12522;&#12450;A&#25915;&#30053;&#23436;&#20102;</text><line style="stroke:#000000;stroke-width:1.0;stroke-dasharray:2.0,2.0;" x1="184" x2="487" y1="2189.2734" y2="2189.2734"/><path d="M199,2195.2734 L199,2220.2734 L337,2220.2734 L337,2205.2734 L327,2195.2734 L199,2195.2734 " fill="#FEFFDD" style="stroke:#181818;stroke-width:0.5;"/><path d="M327,2195.2734 L327,2205.2734 L337,2205.2734 L327,2195.2734 " fill="#FEFFDD" style="stroke:#181818;stroke-width:0.5;"/><text fill="#000000" font-family="sans-serif" font-size="13" lengthAdjust="spacing" textLength="117" x="205" y="2212.8418">&#27425;&#12398;&#25774;&#24433;&#20301;&#32622;&#12408;&#31227;&#21205;</text><rect fill="#EEEEEE" height="3" style="stroke:#EEEEEE;stroke-width:1.0;" width="2080" x="0" y="2260.2393"/><line style="stroke:#000000;stroke-width:1.0;" x1="0" x2="2080" y1="2260.2393" y2="2260.2393"/><line style="stroke:#000000;stroke-width:1.0;" x1="0" x2="2080" y1="2263.2393" y2="2263.2393"/><rect fill="#EEEEEE" height="23.3105" style="stroke:#000000;stroke-width:2.0;" width="122" x="979" y="2249.584"/><text fill="#000000" font-family="sans-serif" font-size="13" font-weight="bold" lengthAdjust="spacing" textLength="104" x="985" y="2266.1523">&#30011;&#20687;&#12450;&#12483;&#12503;&#12525;&#12540;&#12489;</text><polygon fill="#181818" points="1876,2303.2051,1886,2307.2051,1876,2311.2051,1880,2307.2051" style="stroke:#181818;stroke-width:1.0;"/><line style="stroke:#181818;stroke-width:1.0;" x1="636" x2="1882" y1="2307.2051" y2="2307.2051"/><text fill="#000000" font-family="sans-serif" font-size="13" lengthAdjust="spacing" textLength="166" x="643" y="2302.4629">upload("upload_front_fig")</text><path d="M1893,2287.8945 L1893,2312.8945 L2070,2312.8945 L2070,2297.8945 L2060,2287.8945 L1893,2287.8945 " fill="#FEFFDD" style="stroke:#181818;stroke-width:0.5;"/><path d="M2060,2287.8945 L2060,2297.8945 L2070,2297.8945 L2060,2287.8945 " fill="#FEFFDD" style="stroke:#181818;stroke-width:0.5;"/><text fill="#000000" font-family="sans-serif" font-size="13" lengthAdjust="spacing" textLength="156" x="1899" y="2305.4629">&#26368;&#36969;&#12394;&#30011;&#20687;&#12434;&#12450;&#12483;&#12503;&#12525;&#12540;&#12489;</text><rect fill="#EEEEEE" height="3" style="stroke:#EEEEEE;stroke-width:1.0;" width="2080" x="0" y="2338.8604"/><line style="stroke:#000000;stroke-width:1.0;" x1="0" x2="2080" y1="2338.8604" y2="2338.8604"/><line style="stroke:#000000;stroke-width:1.0;" x1="0" x2="2080" y1="2341.8604" y2="2341.8604"/><rect fill="#EEEEEE" height="23.3105" style="stroke:#000000;stroke-width:2.0;" width="164" x="958" y="2328.2051"/><text fill="#000000" font-family="sans-serif" font-size="13" font-weight="bold" lengthAdjust="spacing" textLength="146" x="964" y="2344.7734">DoubleLoop&#12456;&#12522;&#12450;&#32153;&#32154;</text><path d="M190,2366.5156 L190,2406.5156 L346,2406.5156 L346,2376.5156 L336,2366.5156 L190,2366.5156 " fill="#FEFFDD" style="stroke:#181818;stroke-width:0.5;"/><path d="M336,2366.5156 L336,2376.5156 L346,2376.5156 L336,2366.5156 " fill="#FEFFDD" style="stroke:#181818;stroke-width:0.5;"/><text fill="#000000" font-family="sans-serif" font-size="13" lengthAdjust="spacing" textLength="111" x="196" y="2384.084">&#37197;&#32622;&#12456;&#12522;&#12450;B&#25915;&#30053;&#12420;</text><text fill="#000000" font-family="sans-serif" font-size="13" lengthAdjust="spacing" textLength="135" x="196" y="2399.3945">&#20182;&#12398;Motion&#12434;&#32153;&#32154;&#23455;&#34892;</text><!--SRC=[nLXjJnDP5Fu-l-BA1zF9uegiVY5Xaswx92PMIQkVreqPsmixiNQQcG6-TcOiBm8hIwGi2uWWRrAfkhg8LE37tDvf-o_slimCC-sKQ3InWGczzxdtdlESSvvx1btMin0qYxFrumeoTv6rXyoDgFsqMb_OGkO7P7r2vbjalKFcHxpyxcuk4bT6xcVX3KN9Ut0yNaJM6hAcaRM0p1V8V6FFL_3nMxhU_8YiSMGz5mL1IkkA2hhgvGFxSQ5PciOxqrr0qa1AbrHTo9E7d9RpKau7NR_gIUM-abPolJszrnWe8Scv82QgGYaXQJfK6I2Q24ud55rMSeEIgZc0n60BGCx90_9mJ7e8LIcQfcYEYqL3WN5PXGmLXpgahd1qF1v4KyDrDiN-2axoms9INXzH8GFnaJRJ5JMcv7HLoMPTw-bO2m6vuInCAhhacHvD1X5nMTEbN1gcT5MIX__WPiLJGT20Ian8IQFSde6MsUiFfM5u9vzLf8nZoVKxWj3V3_p1nPEhzieQdYc1_dw1XHDS-fc5h2-0uq4Nw0G5C888mjf7rWgoB6HDUZi9R9AYE4DqepAorf7rCWJ3sA4xRR24FINFCnIrDYHhcuL_SN6BMkpQ4qtq0NN4d-AY44suCyXyXwndj1IiAPRewyZSH5QviRVVEFaKg8mRS4Y_dAIC_vZMHjrD4eDz84sILeSyDxL8for58J48BZddSZ0ozv1LGkOXCdUG-PfGLJ_P98U6P36UAoEp83A_mmiRH4BhLQHa25dY0BYAbvyXeyB7QyTq4n39AvfC3m3zeASRNEa6lTtW9r40vEDu68jo1laWANXvbBZBIeeEi0Vvuc5bBG7rGHMIPC-mhPsLEOMiKYc1VS0xzG8v5Y1Z6Xd4SJmrIqoqDrVmn95zE8cCKs_ABdt4StyXOwPsM6XCl4V68ZBsaF48Ft-FvmZoDSr7SvybtEAPNL9M1xMZQRAnlRfUgnuWSzu-AY1Z3HbB3E0XwOTmoycnZqhONABCkLEEWz5a7yZ1CH0eqqXUXRSbTHZgRBYRC13BAka7Ox86nR0TpjXaD2TzsQv1dIOQ-pQeZ47rCXbXMNSsvAtqCzeIV6IK6L_aPvjmsdo-t-wkFsXQ5i9yv4hFGqq4l-7fXThn2gvCuSe_-AI8ZFNVEwwEfpWZhR8KkNHVIZz8vI7CT0Fw9sV8XObX-mHvYQU-1Iyye8qFgytb3MIS86C7dymq2uLpee-iAaytFBb96F2d0QkZQxIE2D7MAofCH2cVbF39eeVnEUNA776SARBFE_hXqqmKM13yctf0cCkqsqhp-gnoQGr5Y3RIul4LjnXc4Ziemsuxx_AB357Zmk7nk0iFHSNZ7efKGLvLqb3J8hIG9xRhS-Fde1LDT-6ncpVjFtSRvL88_EnAQRsoar0RoUhsydkxz2QmBimFPmyIYF1jMYBZN48kNroIwl_DsSzMEXz5W-A8r-GSVhm6Bbu4F95eY0QIjsxU3k1zvWsGxDV8TSqvxWPT8-nslZUaaexXtf0yt2MsBGra-VwBvkf6_MaLMq-GiSlaSRjskeht_mwiyoTJm7wOrM2eAeE0A3E_X3Ohb56eSgPw2RQ-NAbLjvfBiqIMwnj7k4BKjipSvsm8tu20eE5-6_7cMtjXyJmRSN6N5mWH0wVYZHbyMcni6vzb6icUUrtW1uykKUWK5duCdjmY1F3WjCGajBWz8I9ALT-f4ZKEkOc-JBNTHHt4DD8ZXkWf6VrosHzIr359pJZ2xtpxJjgFYnRfTznOC-sVcYKjuZUw2h-QrA-xW6adM9slVo28b_ZmpUTtAqHv0-tAXU_Hh_3Ok6tT8UzHk2T1Lrc1T-ZX5dWJA7GeTAUA69baLLkBw5OVUsHWU6lBLDqdh_osnvMPsj4uO5b537bDHUKgppJdL0O8iOos_-4Tl6y9TRh3MllLUaiJJ-ZZCk4vHN_fcu9p8PWRt6dsKaQQYodsWiJZU_rE7-1Q6mdJtC0bir9e6Yy9vUwsy-qxTtengnyirGzOAtKk4x-u_wHuT3TNgvQ8e-wRqZpVWLmcZVKPuNy0]--></g></svg>