<?xml version="1.0" encoding="us-ascii" standalone="no"?><svg xmlns="http://www.w3.org/2000/svg" xmlns:xlink="http://www.w3.org/1999/xlink" contentStyleType="text/css" height="1446px" preserveAspectRatio="none" style="width:1381px;height:1446px;background:#FFFFFF;" version="1.1" viewBox="0 0 1381 1446" width="1381px" zoomAndPan="magnify"><defs/><g><text fill="#000000" font-family="sans-serif" font-size="14" font-weight="bold" lengthAdjust="spacing" textLength="262" x="555.75" y="28.5352">&#37197;&#32622;&#12456;&#12522;&#12450;A&#25915;&#30053;&#12471;&#12540;&#12465;&#12531;&#12473;&#22259;&#65288;&#31777;&#26131;&#29256;&#65289;</text><text fill="#000000" font-family="sans-serif" font-size="14" font-weight="bold" lengthAdjust="spacing" textLength="164" x="604.75" y="45.0234">(&#12511;&#12491;&#12501;&#12451;&#12464;&#25774;&#24433;&#12471;&#12473;&#12486;&#12512;)</text><rect fill="#FFFFFF" height="1071.5371" style="stroke:#181818;stroke-width:1.0;" width="10" x="264.5" y="268.707"/><rect fill="#FFFFFF" height="854.6738" style="stroke:#181818;stroke-width:1.0;" width="10" x="630.5" y="399.9492"/><rect fill="none" height="805.3633" style="stroke:#000000;stroke-width:1.5;" width="836" x="528.5" y="414.9492"/><rect fill="none" height="308.7051" style="stroke:#000000;stroke-width:1.5;" width="816" x="538.5" y="744.0547"/><rect fill="none" height="46.6211" style="stroke:#000000;stroke-width:1.5;" width="726" x="548.5" y="869.2969"/><line style="stroke:#181818;stroke-width:0.5;stroke-dasharray:5.0,5.0;" x1="36" x2="36" y1="135.4648" y2="1365.2441"/><line style="stroke:#181818;stroke-width:0.5;stroke-dasharray:5.0,5.0;" x1="138" x2="138" y1="135.4648" y2="1365.2441"/><line style="stroke:#181818;stroke-width:0.5;stroke-dasharray:5.0,5.0;" x1="269.5" x2="269.5" y1="135.4648" y2="1365.2441"/><line style="stroke:#181818;stroke-width:0.5;stroke-dasharray:5.0,5.0;" x1="499.5" x2="499.5" y1="135.4648" y2="1365.2441"/><line style="stroke:#181818;stroke-width:0.5;stroke-dasharray:5.0,5.0;" x1="635.5" x2="635.5" y1="135.4648" y2="1365.2441"/><line style="stroke:#181818;stroke-width:0.5;stroke-dasharray:5.0,5.0;" x1="835.5" x2="835.5" y1="135.4648" y2="1365.2441"/><line style="stroke:#181818;stroke-width:0.5;stroke-dasharray:5.0,5.0;" x1="943.5" x2="943.5" y1="135.4648" y2="1365.2441"/><line style="stroke:#181818;stroke-width:0.5;stroke-dasharray:5.0,5.0;" x1="1079.5" x2="1079.5" y1="135.4648" y2="1365.2441"/><line style="stroke:#181818;stroke-width:0.5;stroke-dasharray:5.0,5.0;" x1="1215.5" x2="1215.5" y1="135.4648" y2="1365.2441"/><line style="stroke:#181818;stroke-width:0.5;stroke-dasharray:5.0,5.0;" x1="1309.5" x2="1309.5" y1="135.4648" y2="1365.2441"/><text fill="#000000" font-family="sans-serif" font-size="14" lengthAdjust="spacing" textLength="56" x="5" y="132.5117">&#31478;&#25216;&#38283;&#22987;</text><ellipse cx="36" cy="67.4766" fill="#E2E2F0" rx="8" ry="8" style="stroke:#181818;stroke-width:0.5;"/><path d="M36,75.4766 L36,102.4766 M23,83.4766 L49,83.4766 M36,102.4766 L23,117.4766 M36,102.4766 L49,117.4766 " fill="none" style="stroke:#181818;stroke-width:0.5;"/><text fill="#000000" font-family="sans-serif" font-size="14" lengthAdjust="spacing" textLength="56" x="5" y="1377.7793">&#31478;&#25216;&#38283;&#22987;</text><ellipse cx="36" cy="1389.2324" fill="#E2E2F0" rx="8" ry="8" style="stroke:#181818;stroke-width:0.5;"/><path d="M36,1397.2324 L36,1424.2324 M23,1405.2324 L49,1405.2324 M36,1424.2324 L23,1439.2324 M36,1424.2324 L49,1439.2324 " fill="none" style="stroke:#181818;stroke-width:0.5;"/><rect fill="#E2E2F0" height="30.4883" rx="2.5" ry="2.5" style="stroke:#181818;stroke-width:0.5;" width="123" x="77" y="103.9766"/><text fill="#000000" font-family="sans-serif" font-size="14" lengthAdjust="spacing" textLength="109" x="84" y="124.5117">ET&#12525;&#12508;&#12467;&#12531;2025</text><rect fill="#E2E2F0" height="30.4883" rx="2.5" ry="2.5" style="stroke:#181818;stroke-width:0.5;" width="123" x="77" y="1364.2441"/><text fill="#000000" font-family="sans-serif" font-size="14" lengthAdjust="spacing" textLength="109" x="84" y="1384.7793">ET&#12525;&#12508;&#12467;&#12531;2025</text><rect fill="#E2E2F0" height="30.4883" rx="2.5" ry="2.5" style="stroke:#181818;stroke-width:0.5;" width="98" x="220.5" y="103.9766"/><text fill="#000000" font-family="sans-serif" font-size="14" lengthAdjust="spacing" textLength="84" x="227.5" y="124.5117">&#25915;&#30053;&#12471;&#12473;&#12486;&#12512;</text><rect fill="#E2E2F0" height="30.4883" rx="2.5" ry="2.5" style="stroke:#181818;stroke-width:0.5;" width="98" x="220.5" y="1364.2441"/><text fill="#000000" font-family="sans-serif" font-size="14" lengthAdjust="spacing" textLength="84" x="227.5" y="1384.7793">&#25915;&#30053;&#12471;&#12473;&#12486;&#12512;</text><rect fill="#E2E2F0" height="30.4883" rx="2.5" ry="2.5" style="stroke:#181818;stroke-width:0.5;" width="98" x="450.5" y="103.9766"/><text fill="#000000" font-family="sans-serif" font-size="14" lengthAdjust="spacing" textLength="84" x="457.5" y="124.5117">&#12467;&#12510;&#12531;&#12489;&#35299;&#26512;</text><rect fill="#E2E2F0" height="30.4883" rx="2.5" ry="2.5" style="stroke:#181818;stroke-width:0.5;" width="98" x="450.5" y="1364.2441"/><text fill="#000000" font-family="sans-serif" font-size="14" lengthAdjust="spacing" textLength="84" x="457.5" y="1384.7793">&#12467;&#12510;&#12531;&#12489;&#35299;&#26512;</text><rect fill="#E2E2F0" height="30.4883" rx="2.5" ry="2.5" style="stroke:#181818;stroke-width:0.5;" width="154" x="558.5" y="103.9766"/><text fill="#000000" font-family="sans-serif" font-size="14" lengthAdjust="spacing" textLength="140" x="565.5" y="124.5117">&#12511;&#12491;&#12501;&#12451;&#12464;&#12459;&#12513;&#12521;&#21205;&#20316;</text><rect fill="#E2E2F0" height="30.4883" rx="2.5" ry="2.5" style="stroke:#181818;stroke-width:0.5;" width="154" x="558.5" y="1364.2441"/><text fill="#000000" font-family="sans-serif" font-size="14" lengthAdjust="spacing" textLength="140" x="565.5" y="1384.7793">&#12511;&#12491;&#12501;&#12451;&#12464;&#12459;&#12513;&#12521;&#21205;&#20316;</text><rect fill="#E2E2F0" height="30.4883" rx="2.5" ry="2.5" style="stroke:#181818;stroke-width:0.5;" width="98" x="786.5" y="103.9766"/><text fill="#000000" font-family="sans-serif" font-size="14" lengthAdjust="spacing" textLength="84" x="793.5" y="124.5117">&#35282;&#24230;&#25351;&#23450;&#22238;&#38957;</text><rect fill="#E2E2F0" height="30.4883" rx="2.5" ry="2.5" style="stroke:#181818;stroke-width:0.5;" width="98" x="786.5" y="1364.2441"/><text fill="#000000" font-family="sans-serif" font-size="14" lengthAdjust="spacing" textLength="84" x="793.5" y="1384.7793">&#35282;&#24230;&#25351;&#23450;&#22238;&#38957;</text><rect fill="#E2E2F0" height="30.4883" rx="2.5" ry="2.5" style="stroke:#181818;stroke-width:0.5;" width="98" x="894.5" y="103.9766"/><text fill="#000000" font-family="sans-serif" font-size="14" lengthAdjust="spacing" textLength="84" x="901.5" y="124.5117">&#36317;&#38626;&#25351;&#23450;&#30452;&#36914;</text><rect fill="#E2E2F0" height="30.4883" rx="2.5" ry="2.5" style="stroke:#181818;stroke-width:0.5;" width="98" x="894.5" y="1364.2441"/><text fill="#000000" font-family="sans-serif" font-size="14" lengthAdjust="spacing" textLength="84" x="901.5" y="1384.7793">&#36317;&#38626;&#25351;&#23450;&#30452;&#36914;</text><rect fill="#E2E2F0" height="30.4883" rx="2.5" ry="2.5" style="stroke:#181818;stroke-width:0.5;" width="154" x="1002.5" y="103.9766"/><text fill="#000000" font-family="sans-serif" font-size="14" lengthAdjust="spacing" textLength="140" x="1009.5" y="124.5117">&#12511;&#12491;&#12501;&#12451;&#12464;&#12398;&#21521;&#12365;&#26908;&#20986;</text><rect fill="#E2E2F0" height="30.4883" rx="2.5" ry="2.5" style="stroke:#181818;stroke-width:0.5;" width="154" x="1002.5" y="1364.2441"/><text fill="#000000" font-family="sans-serif" font-size="14" lengthAdjust="spacing" textLength="140" x="1009.5" y="1384.7793">&#12511;&#12491;&#12501;&#12451;&#12464;&#12398;&#21521;&#12365;&#26908;&#20986;</text><rect fill="#E2E2F0" height="30.4883" rx="2.5" ry="2.5" style="stroke:#181818;stroke-width:0.5;" width="98" x="1166.5" y="103.9766"/><text fill="#000000" font-family="sans-serif" font-size="14" lengthAdjust="spacing" textLength="84" x="1173.5" y="124.5117">&#12501;&#12524;&#12540;&#12512;&#20445;&#23384;</text><rect fill="#E2E2F0" height="30.4883" rx="2.5" ry="2.5" style="stroke:#181818;stroke-width:0.5;" width="98" x="1166.5" y="1364.2441"/><text fill="#000000" font-family="sans-serif" font-size="14" lengthAdjust="spacing" textLength="84" x="1173.5" y="1384.7793">&#12501;&#12524;&#12540;&#12512;&#20445;&#23384;</text><rect fill="#E2E2F0" height="30.4883" rx="2.5" ry="2.5" style="stroke:#181818;stroke-width:0.5;" width="70" x="1274.5" y="103.9766"/><text fill="#000000" font-family="sans-serif" font-size="14" lengthAdjust="spacing" textLength="56" x="1281.5" y="124.5117">&#12525;&#12508;&#12483;&#12488;</text><rect fill="#E2E2F0" height="30.4883" rx="2.5" ry="2.5" style="stroke:#181818;stroke-width:0.5;" width="70" x="1274.5" y="1364.2441"/><text fill="#000000" font-family="sans-serif" font-size="14" lengthAdjust="spacing" textLength="56" x="1281.5" y="1384.7793">&#12525;&#12508;&#12483;&#12488;</text><rect fill="#FFFFFF" height="1071.5371" style="stroke:#181818;stroke-width:1.0;" width="10" x="264.5" y="268.707"/><rect fill="#FFFFFF" height="854.6738" style="stroke:#181818;stroke-width:1.0;" width="10" x="630.5" y="399.9492"/><rect fill="#EEEEEE" height="3" style="stroke:#EEEEEE;stroke-width:1.0;" width="1374.5" x="0" y="166.1201"/><line style="stroke:#000000;stroke-width:1.0;" x1="0" x2="1374.5" y1="166.1201" y2="166.1201"/><line style="stroke:#000000;stroke-width:1.0;" x1="0" x2="1374.5" y1="169.1201" y2="169.1201"/><rect fill="#EEEEEE" height="23.3105" style="stroke:#000000;stroke-width:2.0;" width="96" x="639.25" y="155.4648"/><text fill="#000000" font-family="sans-serif" font-size="13" font-weight="bold" lengthAdjust="spacing" textLength="78" x="645.25" y="172.0332">&#12471;&#12473;&#12486;&#12512;&#38283;&#22987;</text><polygon fill="#181818" points="126.5,206.0859,136.5,210.0859,126.5,214.0859,130.5,210.0859" style="stroke:#181818;stroke-width:1.0;"/><line style="stroke:#181818;stroke-width:1.0;" x1="36" x2="132.5" y1="210.0859" y2="210.0859"/><text fill="#000000" font-family="sans-serif" font-size="13" lengthAdjust="spacing" textLength="78" x="43" y="205.3438">&#12471;&#12473;&#12486;&#12512;&#38283;&#22987;</text><polygon fill="#181818" points="1297.5,235.3965,1307.5,239.3965,1297.5,243.3965,1301.5,239.3965" style="stroke:#181818;stroke-width:1.0;"/><line style="stroke:#181818;stroke-width:1.0;" x1="138.5" x2="1303.5" y1="239.3965" y2="239.3965"/><text fill="#000000" font-family="sans-serif" font-size="13" lengthAdjust="spacing" textLength="91" x="145.5" y="234.6543">&#12525;&#12508;&#12483;&#12488;&#21021;&#26399;&#21270;</text><polygon fill="#181818" points="252.5,264.707,262.5,268.707,252.5,272.707,256.5,268.707" style="stroke:#181818;stroke-width:1.0;"/><line style="stroke:#181818;stroke-width:1.0;" x1="138.5" x2="258.5" y1="268.707" y2="268.707"/><text fill="#000000" font-family="sans-serif" font-size="13" lengthAdjust="spacing" textLength="107" x="145.5" y="263.9648">run(&#12480;&#12502;&#12523;&#12523;&#12540;&#12503;)</text><polygon fill="#181818" points="487.5,294.0176,497.5,298.0176,487.5,302.0176,491.5,298.0176" style="stroke:#181818;stroke-width:1.0;"/><line style="stroke:#181818;stroke-width:1.0;" x1="274.5" x2="493.5" y1="298.0176" y2="298.0176"/><text fill="#000000" font-family="sans-serif" font-size="13" lengthAdjust="spacing" textLength="201" x="281.5" y="293.2754">createMotions(&#12467;&#12510;&#12531;&#12489;&#12501;&#12449;&#12452;&#12523;)</text><polygon fill="#181818" points="285.5,323.3281,275.5,327.3281,285.5,331.3281,281.5,327.3281" style="stroke:#181818;stroke-width:1.0;"/><line style="stroke:#181818;stroke-width:1.0;stroke-dasharray:2.0,2.0;" x1="279.5" x2="498.5" y1="327.3281" y2="327.3281"/><text fill="#000000" font-family="sans-serif" font-size="13" lengthAdjust="spacing" textLength="117" x="291.5" y="322.5859">&#21205;&#20316;&#12458;&#12502;&#12472;&#12455;&#12463;&#12488;&#32676;</text><rect fill="#EEEEEE" height="3" style="stroke:#EEEEEE;stroke-width:1.0;" width="1374.5" x="0" y="355.9834"/><line style="stroke:#000000;stroke-width:1.0;" x1="0" x2="1374.5" y1="355.9834" y2="355.9834"/><line style="stroke:#000000;stroke-width:1.0;" x1="0" x2="1374.5" y1="358.9834" y2="358.9834"/><rect fill="#EEEEEE" height="23.3105" style="stroke:#000000;stroke-width:2.0;" width="119" x="627.75" y="345.3281"/><text fill="#000000" font-family="sans-serif" font-size="13" font-weight="bold" lengthAdjust="spacing" textLength="101" x="633.75" y="361.8965">&#37197;&#32622;&#12456;&#12522;&#12450;A&#25915;&#30053;</text><polygon fill="#181818" points="618.5,395.9492,628.5,399.9492,618.5,403.9492,622.5,399.9492" style="stroke:#181818;stroke-width:1.0;"/><line style="stroke:#181818;stroke-width:1.0;" x1="274.5" x2="624.5" y1="399.9492" y2="399.9492"/><text fill="#000000" font-family="sans-serif" font-size="13" lengthAdjust="spacing" textLength="29" x="281.5" y="395.207">run()</text><path d="M528.5,414.9492 L602.5,414.9492 L602.5,422.2598 L592.5,432.2598 L528.5,432.2598 L528.5,414.9492 " fill="#EEEEEE" style="stroke:#000000;stroke-width:1.5;"/><rect fill="none" height="805.3633" style="stroke:#000000;stroke-width:1.5;" width="836" x="528.5" y="414.9492"/><text fill="#000000" font-family="sans-serif" font-size="13" font-weight="bold" lengthAdjust="spacing" textLength="29" x="543.5" y="428.5176">loop</text><text fill="#000000" font-family="sans-serif" font-size="11" font-weight="bold" lengthAdjust="spacing" textLength="193" x="617.5" y="427.584">[4&#12388;&#12398;&#25774;&#24433;&#20301;&#32622; (position = 0,1,2,3)]</text><line style="stroke:#181818;stroke-width:1.0;" x1="640.5" x2="682.5" y1="453.5703" y2="453.5703"/><line style="stroke:#181818;stroke-width:1.0;" x1="682.5" x2="682.5" y1="453.5703" y2="466.5703"/><line style="stroke:#181818;stroke-width:1.0;" x1="641.5" x2="682.5" y1="466.5703" y2="466.5703"/><polygon fill="#181818" points="651.5,462.5703,641.5,466.5703,651.5,470.5703,647.5,466.5703" style="stroke:#181818;stroke-width:1.0;"/><text fill="#000000" font-family="sans-serif" font-size="13" lengthAdjust="spacing" textLength="78" x="647.5" y="448.8281">&#20107;&#21069;&#26465;&#20214;&#21028;&#23450;</text><path d="M737,440.7598 L737,465.7598 L888,465.7598 L888,450.7598 L878,440.7598 L737,440.7598 " fill="#FEFFDD" style="stroke:#181818;stroke-width:0.5;"/><path d="M878,440.7598 L878,450.7598 L888,450.7598 L878,440.7598 " fill="#FEFFDD" style="stroke:#181818;stroke-width:0.5;"/><text fill="#000000" font-family="sans-serif" font-size="13" lengthAdjust="spacing" textLength="130" x="743" y="458.3281">&#25774;&#24433;&#12364;&#24517;&#35201;&#12363;&#12481;&#12455;&#12483;&#12463;</text><rect fill="#EEEEEE" height="3" style="stroke:#EEEEEE;stroke-width:1.0;" width="1374.5" x="0" y="495.2256"/><line style="stroke:#000000;stroke-width:1.0;" x1="0" x2="1374.5" y1="495.2256" y2="495.2256"/><line style="stroke:#000000;stroke-width:1.0;" x1="0" x2="1374.5" y1="498.2256" y2="498.2256"/><rect fill="#EEEEEE" height="23.3105" style="stroke:#000000;stroke-width:2.0;" width="70" x="652.25" y="484.5703"/><text fill="#000000" font-family="sans-serif" font-size="13" font-weight="bold" lengthAdjust="spacing" textLength="52" x="658.25" y="501.1387">&#25774;&#24433;&#28310;&#20633;</text><polygon fill="#181818" points="823.5,535.1914,833.5,539.1914,823.5,543.1914,827.5,539.1914" style="stroke:#181818;stroke-width:1.0;"/><line style="stroke:#181818;stroke-width:1.0;" x1="640.5" x2="829.5" y1="539.1914" y2="539.1914"/><text fill="#000000" font-family="sans-serif" font-size="13" lengthAdjust="spacing" textLength="171" x="647.5" y="534.4492">run() [&#12511;&#12491;&#12501;&#12451;&#12464;&#26041;&#21521;&#12408;&#22238;&#38957;]</text><polygon fill="#181818" points="1297.5,564.502,1307.5,568.502,1297.5,572.502,1301.5,568.502" style="stroke:#181818;stroke-width:1.0;"/><line style="stroke:#181818;stroke-width:1.0;" x1="835.5" x2="1303.5" y1="568.502" y2="568.502"/><text fill="#000000" font-family="sans-serif" font-size="13" lengthAdjust="spacing" textLength="78" x="842.5" y="563.7598">&#12514;&#12540;&#12479;&#12540;&#21046;&#24481;</text><polygon fill="#181818" points="931.5,593.8125,941.5,597.8125,931.5,601.8125,935.5,597.8125" style="stroke:#181818;stroke-width:1.0;"/><line style="stroke:#181818;stroke-width:1.0;" x1="640.5" x2="937.5" y1="597.8125" y2="597.8125"/><text fill="#000000" font-family="sans-serif" font-size="13" lengthAdjust="spacing" textLength="145" x="647.5" y="593.0703">run() [&#25774;&#24433;&#36317;&#38626;&#12414;&#12391;&#24460;&#36864;]</text><polygon fill="#181818" points="1297.5,623.123,1307.5,627.123,1297.5,631.123,1301.5,627.123" style="stroke:#181818;stroke-width:1.0;"/><line style="stroke:#181818;stroke-width:1.0;" x1="943.5" x2="1303.5" y1="627.123" y2="627.123"/><text fill="#000000" font-family="sans-serif" font-size="13" lengthAdjust="spacing" textLength="78" x="950.5" y="622.3809">&#12514;&#12540;&#12479;&#12540;&#21046;&#24481;</text><rect fill="#EEEEEE" height="3" style="stroke:#EEEEEE;stroke-width:1.0;" width="1374.5" x="0" y="655.7783"/><line style="stroke:#000000;stroke-width:1.0;" x1="0" x2="1374.5" y1="655.7783" y2="655.7783"/><line style="stroke:#000000;stroke-width:1.0;" x1="0" x2="1374.5" y1="658.7783" y2="658.7783"/><rect fill="#EEEEEE" height="23.3105" style="stroke:#000000;stroke-width:2.0;" width="83" x="645.75" y="645.123"/><text fill="#000000" font-family="sans-serif" font-size="13" font-weight="bold" lengthAdjust="spacing" textLength="65" x="651.75" y="661.6914">&#25774;&#24433;&#12539;&#21028;&#23450;</text><polygon fill="#181818" points="1297.5,695.7441,1307.5,699.7441,1297.5,703.7441,1301.5,699.7441" style="stroke:#181818;stroke-width:1.0;"/><line style="stroke:#181818;stroke-width:1.0;" x1="640.5" x2="1303.5" y1="699.7441" y2="699.7441"/><text fill="#000000" font-family="sans-serif" font-size="13" lengthAdjust="spacing" textLength="177" x="647.5" y="695.002">getFrame() [5&#22238;&#12501;&#12524;&#12540;&#12512;&#21462;&#24471;]</text><polygon fill="#181818" points="651.5,725.0547,641.5,729.0547,651.5,733.0547,647.5,729.0547" style="stroke:#181818;stroke-width:1.0;"/><line style="stroke:#181818;stroke-width:1.0;stroke-dasharray:2.0,2.0;" x1="645.5" x2="1308.5" y1="729.0547" y2="729.0547"/><text fill="#000000" font-family="sans-serif" font-size="13" lengthAdjust="spacing" textLength="65" x="657.5" y="724.3125">&#12459;&#12513;&#12521;&#30011;&#20687;</text><path d="M538.5,744.0547 L600.5,744.0547 L600.5,751.3652 L590.5,761.3652 L538.5,761.3652 L538.5,744.0547 " fill="#EEEEEE" style="stroke:#000000;stroke-width:1.5;"/><rect fill="none" height="308.7051" style="stroke:#000000;stroke-width:1.5;" width="816" x="538.5" y="744.0547"/><text fill="#000000" font-family="sans-serif" font-size="13" font-weight="bold" lengthAdjust="spacing" textLength="17" x="553.5" y="757.623">alt</text><text fill="#000000" font-family="sans-serif" font-size="11" font-weight="bold" lengthAdjust="spacing" textLength="121" x="615.5" y="756.6895">[position == 0 (&#21021;&#22238;)]</text><polygon fill="#181818" points="1067.5,778.6758,1077.5,782.6758,1067.5,786.6758,1071.5,782.6758" style="stroke:#181818;stroke-width:1.0;"/><line style="stroke:#181818;stroke-width:1.0;" x1="640.5" x2="1073.5" y1="782.6758" y2="782.6758"/><text fill="#000000" font-family="sans-serif" font-size="13" lengthAdjust="spacing" textLength="83" x="647.5" y="777.9336">detect(frame)</text><line style="stroke:#181818;stroke-width:1.0;" x1="1079.5" x2="1121.5" y1="811.9863" y2="811.9863"/><line style="stroke:#181818;stroke-width:1.0;" x1="1121.5" x2="1121.5" y1="811.9863" y2="824.9863"/><line style="stroke:#181818;stroke-width:1.0;" x1="1080.5" x2="1121.5" y1="824.9863" y2="824.9863"/><polygon fill="#181818" points="1090.5,820.9863,1080.5,824.9863,1090.5,828.9863,1086.5,824.9863" style="stroke:#181818;stroke-width:1.0;"/><text fill="#000000" font-family="sans-serif" font-size="13" lengthAdjust="spacing" textLength="81" x="1086.5" y="807.2441">CNN&#25512;&#35542;&#20966;&#29702;</text><polygon fill="#181818" points="1297.5,850.2969,1307.5,854.2969,1297.5,858.2969,1301.5,854.2969" style="stroke:#181818;stroke-width:1.0;"/><line style="stroke:#181818;stroke-width:1.0;stroke-dasharray:2.0,2.0;" x1="1079.5" x2="1303.5" y1="854.2969" y2="854.2969"/><text fill="#000000" font-family="sans-serif" font-size="13" lengthAdjust="spacing" textLength="104" x="1086.5" y="849.5547">&#21521;&#12365;&#21028;&#23450;&#32080;&#26524;&#26356;&#26032;</text><path d="M548.5,869.2969 L610.5,869.2969 L610.5,876.6074 L600.5,886.6074 L548.5,886.6074 L548.5,869.2969 " fill="#EEEEEE" style="stroke:#000000;stroke-width:1.5;"/><rect fill="none" height="46.6211" style="stroke:#000000;stroke-width:1.5;" width="726" x="548.5" y="869.2969"/><text fill="#000000" font-family="sans-serif" font-size="13" font-weight="bold" lengthAdjust="spacing" textLength="17" x="563.5" y="882.8652">alt</text><text fill="#000000" font-family="sans-serif" font-size="11" font-weight="bold" lengthAdjust="spacing" textLength="120" x="625.5" y="881.9316">[&#26908;&#20986;&#25104;&#21151; &amp;&amp; &#27491;&#38754;&#21521;&#12365;]</text><polygon fill="#181818" points="1203.5,903.918,1213.5,907.918,1203.5,911.918,1207.5,907.918" style="stroke:#181818;stroke-width:1.0;"/><line style="stroke:#181818;stroke-width:1.0;" x1="640.5" x2="1209.5" y1="907.918" y2="907.918"/><text fill="#000000" font-family="sans-serif" font-size="13" lengthAdjust="spacing" textLength="151" x="647.5" y="903.1758">save("upload_front_fig")</text><line style="stroke:#000000;stroke-width:1.0;stroke-dasharray:2.0,2.0;" x1="538.5" x2="1354.5" y1="923.918" y2="923.918"/><text fill="#000000" font-family="sans-serif" font-size="11" font-weight="bold" lengthAdjust="spacing" textLength="171" x="543.5" y="934.5527">[position != 0 &amp;&amp; &#21069;&#22238;&#26908;&#20986;&#25104;&#21151;]</text><path d="M579,942.873 L579,967.873 L691,967.873 L691,952.873 L681,942.873 L579,942.873 " fill="#FEFFDD" style="stroke:#181818;stroke-width:0.5;"/><path d="M681,942.873 L681,952.873 L691,952.873 L681,942.873 " fill="#FEFFDD" style="stroke:#181818;stroke-width:0.5;"/><text fill="#000000" font-family="sans-serif" font-size="13" lengthAdjust="spacing" textLength="91" x="585" y="960.4414">&#30906;&#23455;&#12395;&#27491;&#38754;&#26041;&#21521;</text><polygon fill="#181818" points="1203.5,990.4941,1213.5,994.4941,1203.5,998.4941,1207.5,994.4941" style="stroke:#181818;stroke-width:1.0;"/><line style="stroke:#181818;stroke-width:1.0;" x1="640.5" x2="1209.5" y1="994.4941" y2="994.4941"/><text fill="#000000" font-family="sans-serif" font-size="13" lengthAdjust="spacing" textLength="151" x="647.5" y="989.752">save("upload_front_fig")</text><line style="stroke:#000000;stroke-width:1.0;stroke-dasharray:2.0,2.0;" x1="538.5" x2="1354.5" y1="1003.4941" y2="1003.4941"/><text fill="#000000" font-family="sans-serif" font-size="11" font-weight="bold" lengthAdjust="spacing" textLength="74" x="543.5" y="1014.1289">[&#21069;&#22238;&#26908;&#20986;&#22833;&#25943;]</text><polygon fill="#181818" points="1203.5,1037.7598,1213.5,1041.7598,1203.5,1045.7598,1207.5,1041.7598" style="stroke:#181818;stroke-width:1.0;"/><line style="stroke:#181818;stroke-width:1.0;" x1="640.5" x2="1209.5" y1="1041.7598" y2="1041.7598"/><text fill="#000000" font-family="sans-serif" font-size="13" lengthAdjust="spacing" textLength="142" x="647.5" y="1037.0176">save("Fig_" + position)</text><path d="M1220,1022.4492 L1220,1047.4492 L1306,1047.4492 L1306,1032.4492 L1296,1022.4492 L1220,1022.4492 " fill="#FEFFDD" style="stroke:#181818;stroke-width:0.5;"/><path d="M1296,1022.4492 L1296,1032.4492 L1306,1032.4492 L1296,1022.4492 " fill="#FEFFDD" style="stroke:#181818;stroke-width:0.5;"/><text fill="#000000" font-family="sans-serif" font-size="13" lengthAdjust="spacing" textLength="65" x="1226" y="1040.0176">&#20301;&#32622;&#21029;&#20445;&#23384;</text><rect fill="#EEEEEE" height="3" style="stroke:#EEEEEE;stroke-width:1.0;" width="1374.5" x="0" y="1080.415"/><line style="stroke:#000000;stroke-width:1.0;" x1="0" x2="1374.5" y1="1080.415" y2="1080.415"/><line style="stroke:#000000;stroke-width:1.0;" x1="0" x2="1374.5" y1="1083.415" y2="1083.415"/><rect fill="#EEEEEE" height="23.3105" style="stroke:#000000;stroke-width:2.0;" width="83" x="645.75" y="1069.7598"/><text fill="#000000" font-family="sans-serif" font-size="13" font-weight="bold" lengthAdjust="spacing" textLength="65" x="651.75" y="1086.3281">&#20803;&#20301;&#32622;&#24489;&#24112;</text><polygon fill="#181818" points="931.5,1120.3809,941.5,1124.3809,931.5,1128.3809,935.5,1124.3809" style="stroke:#181818;stroke-width:1.0;"/><line style="stroke:#181818;stroke-width:1.0;" x1="640.5" x2="937.5" y1="1124.3809" y2="1124.3809"/><text fill="#000000" font-family="sans-serif" font-size="13" lengthAdjust="spacing" textLength="132" x="647.5" y="1119.6387">run() [&#20803;&#20301;&#32622;&#12414;&#12391;&#21069;&#36914;]</text><polygon fill="#181818" points="1297.5,1149.6914,1307.5,1153.6914,1297.5,1157.6914,1301.5,1153.6914" style="stroke:#181818;stroke-width:1.0;"/><line style="stroke:#181818;stroke-width:1.0;" x1="943.5" x2="1303.5" y1="1153.6914" y2="1153.6914"/><text fill="#000000" font-family="sans-serif" font-size="13" lengthAdjust="spacing" textLength="78" x="950.5" y="1148.9492">&#12514;&#12540;&#12479;&#12540;&#21046;&#24481;</text><polygon fill="#181818" points="823.5,1179.002,833.5,1183.002,823.5,1187.002,827.5,1183.002" style="stroke:#181818;stroke-width:1.0;"/><line style="stroke:#181818;stroke-width:1.0;" x1="640.5" x2="829.5" y1="1183.002" y2="1183.002"/><text fill="#000000" font-family="sans-serif" font-size="13" lengthAdjust="spacing" textLength="119" x="647.5" y="1178.2598">run() [&#20803;&#26041;&#21521;&#12408;&#22238;&#38957;]</text><polygon fill="#181818" points="1297.5,1208.3125,1307.5,1212.3125,1297.5,1216.3125,1301.5,1212.3125" style="stroke:#181818;stroke-width:1.0;"/><line style="stroke:#181818;stroke-width:1.0;" x1="835.5" x2="1303.5" y1="1212.3125" y2="1212.3125"/><text fill="#000000" font-family="sans-serif" font-size="13" lengthAdjust="spacing" textLength="78" x="842.5" y="1207.5703">&#12514;&#12540;&#12479;&#12540;&#21046;&#24481;</text><line style="stroke:#181818;stroke-width:1.0;" x1="640.5" x2="682.5" y1="1253.623" y2="1253.623"/><line style="stroke:#181818;stroke-width:1.0;" x1="682.5" x2="682.5" y1="1253.623" y2="1266.623"/><line style="stroke:#181818;stroke-width:1.0;" x1="635.5" x2="682.5" y1="1266.623" y2="1266.623"/><polygon fill="#181818" points="645.5,1262.623,635.5,1266.623,645.5,1270.623,641.5,1266.623" style="stroke:#181818;stroke-width:1.0;"/><text fill="#000000" font-family="sans-serif" font-size="13" lengthAdjust="spacing" textLength="130" x="647.5" y="1248.8809">&#30011;&#20687;&#12450;&#12483;&#12503;&#12525;&#12540;&#12489;&#20966;&#29702;</text><rect fill="#EEEEEE" height="3" style="stroke:#EEEEEE;stroke-width:1.0;" width="1374.5" x="0" y="1290.2783"/><line style="stroke:#000000;stroke-width:1.0;" x1="0" x2="1374.5" y1="1290.2783" y2="1290.2783"/><line style="stroke:#000000;stroke-width:1.0;" x1="0" x2="1374.5" y1="1293.2783" y2="1293.2783"/><rect fill="#EEEEEE" height="23.3105" style="stroke:#000000;stroke-width:2.0;" width="109" x="632.75" y="1279.623"/><text fill="#000000" font-family="sans-serif" font-size="13" font-weight="bold" lengthAdjust="spacing" textLength="91" x="638.75" y="1296.1914">&#12456;&#12522;&#12450;&#25915;&#30053;&#32153;&#32154;</text><line style="stroke:#181818;stroke-width:1.0;" x1="274.5" x2="316.5" y1="1339.2441" y2="1339.2441"/><line style="stroke:#181818;stroke-width:1.0;" x1="316.5" x2="316.5" y1="1339.2441" y2="1352.2441"/><line style="stroke:#181818;stroke-width:1.0;" x1="269.5" x2="316.5" y1="1352.2441" y2="1352.2441"/><polygon fill="#181818" points="279.5,1348.2441,269.5,1352.2441,279.5,1356.2441,275.5,1352.2441" style="stroke:#181818;stroke-width:1.0;"/><text fill="#000000" font-family="sans-serif" font-size="13" lengthAdjust="spacing" textLength="117" x="281.5" y="1334.502">&#20182;&#12398;&#21205;&#20316;&#12434;&#32153;&#32154;&#23455;&#34892;</text><!--SRC=[dLLDRnfN5DtFhtXb4O7YIAdRR2nH2Ndg7P5bTzTKrjGUEoCH1i74QsQU74F03N72E0bW6qnC4cfYrocnmSO_vl5cO9M_qFSncG-SLaqG6Y4uzznpxptteYbQGWRZZItxieECDmY-GqOZPZtls-NNoFY8u0KoJX0yHSOvhfn-kiZPntNhnJCxd_jqaR-N32EuXs01mJ8o3f1nR6rtyEK93JJE4No4u7v44AHbJKs3aDtkMe-pOxE0MuKGa39WKPFIcf0Y3sLPIKb93OH-_WN18mIho3WbIQTlJzzXoBYa98D0J-7dH0mOYmTXZ6UNweVvKUl0sYrnlla9MB0APBGHh2Fu5XVAmyig3vcD1MD6hMtSExIAcxZp2bTsn_j7NC721EnZRLnfS9XT-J3E_iLWuk9_Az0xkFGKwLjMiuetUro1A4x6b17yauu8xW-lQlZe1SFDNQDc7OKGmHm3BAY_gveWHAF0tpy-612D2cmkuDPFhEqpNm09z0SAO4m4uSk0SpMhkeUBfWkAnMT0-Y6rIXP14y4sUnFHEn5g3MLTqcGwE24MPqddPy1oMYPVnbLDKPEPi7-8h4DrP3G9IKI8puDRJWO-AcIyepcCCsIqaF6UwB47JLRgborEotNIpiQuJ9yeEdCXeQefy2FIcsGctDx3Iqe5mYarer2580fkJtq_DJtrGqG0vCKU9DQb7VOAEBzbrUh3VXVdciG9399KIOwqidQVjD1P7Bs8hpP6XphIYHTqMWHfgl7UeoMLSAZLCx7nakhtPOijE3M0NoSNqpndXZhZLlsDHSKM0aDii6s_8a-Sw-91_Lenug9BpqLmSoDzWFGM7XJ7sImd5XV_9x5R3e9ztfc9YXoEDLcRIqiFP9hw3Yd1RttynCI37PwOmPadMEFTHRQVzp5yukML4XhmnaVc1yB4k8IOJz0_G56S0Iko9YzhuLKgmOSGHHSnU_UkzSURKTl4cuTswL4GuzN1bvfNQlzTidQhLkM3PHwxUFS3LSYNtygLyECzSEC6i8uEnhK6vt21FgrpP3uPQLqEXnwc4ggqihIQLfFQqggo5l9KoycLO3OvaP6zPdn7cq5o4SEITlWLk57Cj-gwdEPDjXiztDb3UflBuquJlaMQ9yUV7JTFhFBElnFEAMjB8N3JBI4I5Eei65zQd7lDBwNWRyLdA-8DwC06R_7PyOGLVUvtWOxryrlahd-bzQ-lB67zzZMbjGZ-eyCjJquTkyixx4QJTSax1bsHWsUE_Hiunv7VHhlxqkw-yYualRB3lad_cfnRkyqXPFgZUj7FIAxvFm00]--></g></svg>